<?xml version="1.0" encoding="UTF-8" standalone="no"?>
<!-- Svg Vector Icons : http://www.onlinewebfonts.com/icon -->

<svg
   version="1.1"
   x="0px"
   y="0px"
   viewBox="0 0 1000 1000"
   enable-background="new 0 0 1000 1000"
   xml:space="preserve"
   id="svg573"
   sodipodi:docname="angry.svg"
   inkscape:version="1.2 (dc2aedaf03, 2022-05-15)"
   xmlns:inkscape="http://www.inkscape.org/namespaces/inkscape"
   xmlns:sodipodi="http://sodipodi.sourceforge.net/DTD/sodipodi-0.dtd"
   xmlns="http://www.w3.org/2000/svg"
   xmlns:svg="http://www.w3.org/2000/svg"><defs
   id="defs577" /><sodipodi:namedview
   id="namedview575"
   pagecolor="#505050"
   bordercolor="#eeeeee"
   borderopacity="1"
   inkscape:showpageshadow="0"
   inkscape:pageopacity="0"
   inkscape:pagecheckerboard="0"
   inkscape:deskcolor="#505050"
   showgrid="false"
   inkscape:zoom="0.4515"
   inkscape:cx="1035.4374"
   inkscape:cy="799.55703"
   inkscape:window-width="1835"
   inkscape:window-height="1057"
   inkscape:window-x="-8"
   inkscape:window-y="-8"
   inkscape:window-maximized="1"
   inkscape:current-layer="svg573" />
<metadata
   id="metadata527"> Svg Vector Icons : http://www.onlinewebfonts.com/icon </metadata>
<path
   id="path4389"
   style="color:#000000;fill:#d09000;fill-opacity:0.95999998;stroke:none;stroke-width:0.25;stroke-opacity:1"
   d="m 445.5919,388.87963 c -2.14143,0.0921 -4.03794,1.14084 -5.35742,2.76123 -0.80675,-1.48012 -2.36982,-2.45862 -4.13233,-2.41162 h -0.006 l -0.006,5e-4 c -1.20809,0.0575 -2.34313,0.57969 -3.15576,1.47754 -0.83392,0.89407 -1.26782,2.08278 -1.21338,3.31494 2.5e-4,0.0467 0.008,0.085 0.0108,0.13037 -2.4606,0.87569 -4.13992,3.29369 -4.06201,5.99463 l 5e-4,0.0176 0.002,0.0181 c 0.17717,2.05012 1.30848,3.8792 3.00146,4.94873 -0.28332,0.85182 -0.4484,1.72683 -0.40283,2.62549 0.082,1.95524 0.89772,3.80985 2.31885,5.1499 1.42083,1.36458 3.29662,2.05283 5.25586,1.97119 2.63829,-0.10048 4.96481,-1.65603 6.16699,-3.96435 1.07451,0.70687 2.33035,1.08175 3.61621,1.03857 0.0458,1.7e-4 0.15574,-0.0214 0.24707,-0.0332 0.001,0.001 0.003,0.003 0.004,0.004 l -0.0351,0.006 h 0.041 c 0.43703,0.4465 0.87203,0.89048 1.32666,1.32617 l 10e-4,10e-4 0.001,0.001 c 1.03493,0.98319 2.15115,1.81874 3.21778,2.66211 2.12596,1.75066 4.27572,3.47554 6.4248,5.17481 l 0.53174,0.42041 0.71777,-1.07617 -0.38134,-0.36231 c -2.00295,-1.9028 -4.02953,-3.7798 -6.05567,-5.63086 l -0.003,-0.002 c -0.98292,-0.90938 -1.96717,-1.92065 -3.08399,-2.80371 -1.07869,-0.85292 -2.19723,-1.7187 -3.40967,-2.4668 l -0.42041,-0.25976 -0.67187,0.67236 c -0.6434,-0.22063 -1.24049,-0.58043 -1.72461,-1.10303 -7.5e-4,-7.5e-4 -0.002,-10e-4 -0.002,-0.002 l -1.22559,-1.35498 -0.50928,1.78321 v 10e-4 c -0.62796,2.2203 -2.56577,3.75384 -4.81884,3.84521 -1.7e-4,1e-5 -2.5e-4,0 -5e-4,0 -1.41695,0.0449 -2.74356,-0.44259 -3.77247,-1.42675 l -0.002,-0.002 -0.003,-0.002 c -1.0257,-0.95881 -1.60668,-2.26908 -1.67627,-3.71534 -0.022,-0.88765 0.13429,-1.72511 0.53369,-2.52392 l 0.49414,-0.98828 -1.00732,-0.44092 -0.005,-0.002 c -1.45139,-0.60655 -2.45147,-2.01711 -2.5166,-3.62354 v -5e-4 -5e-4 c -0.0867,-2.0382 1.36863,-3.8339 3.32715,-4.15673 l 5e-4,-5e-4 1.17236,-0.19532 -0.37304,-1.11914 c -0.0643,-0.23727 -0.10291,-0.43789 -0.12452,-0.65918 -0.0166,-0.68379 0.22039,-1.31755 0.66407,-1.82422 0.46825,-0.50631 1.04486,-0.77672 1.74072,-0.81884 1.3766,-0.0573 2.5338,1.04388 2.59375,2.40283 l 5e-4,0.002 0.0562,1.06982 h 1.06787 0.14697 l 0.67139,0.061 0.32324,-0.646 0.006,-0.0156 c 0.8328,-1.91318 2.61484,-3.13494 4.65479,-3.22461 l 10e-4,-5e-4 h 10e-4 c 1.40425,-0.0669 2.7594,0.44331 3.78858,1.42773 l 0.002,0.002 0.002,0.002 c 1.05177,0.98464 1.63427,2.32022 1.70263,3.79639 2e-5,3.2e-4 -2e-5,6.5e-4 0,9.7e-4 0.0666,1.59328 -0.5594,3.1108 -1.72461,4.18653 -9e-5,8e-5 9e-5,5e-4 0,5e-4 l -0.98535,0.86181 1.08154,0.76367 0.008,0.005 c 1.15503,0.76275 1.87625,2.05079 1.91992,3.44824 0.0118,0.37841 -0.0371,0.75658 -0.12207,1.125 -0.27264,-0.2735 -0.53929,-0.55277 -0.82226,-0.82227 l -0.36182,-0.34472 -0.97656,0.65088 0.28955,0.50634 c 0.71499,1.25124 1.50307,2.42043 2.31201,3.53272 l 0.001,10e-4 5e-4,0.001 c 0.84969,1.15866 1.78455,2.19321 2.64893,3.23047 l 5e-4,5e-4 c 1.77654,2.12685 3.55361,4.22888 5.35546,6.33105 l 0.36036,0.42041 1.07568,-0.71679 -0.37988,-0.52637 c -1.62411,-2.24877 -3.25011,-4.47502 -4.92774,-6.67871 -0.81787,-1.11529 -1.6016,-2.25404 -2.52978,-3.33691 l -0.006,-0.007 -0.006,-0.007 c -0.15736,-0.1731 -0.32904,-0.3707 -0.49756,-0.56348 0.41219,-0.90687 0.65742,-1.8779 0.60938,-2.86963 -0.0738,-1.66755 -0.80579,-3.20366 -1.9751,-4.33105 1.08707,-1.3883 1.69844,-3.12563 1.625,-4.91553 -0.0812,-2.00207 -0.89911,-3.86631 -2.34814,-5.20703 -1.44294,-1.35987 -3.33686,-2.07408 -5.30225,-1.99219 h -5e-4 z m -14.19795,15.99932 c -0.375,0.925 -0.55,1.875 -0.5,2.85 0.075,1.8 0.825,3.5 2.125,4.725 1.3,1.25 3,1.875 4.8,1.8 2.65,-0.1 4.975,-1.8 5.95,-4.275 1.075,0.925 2.45,1.4 3.85,1.35 0.075,0 0.15,0 0.225,-0.025 h 0.075 l -0.025,-0.25 c 0.575,0.6 1.15,1.175 1.75,1.75 1,0.95 2.1,1.775 3.175,2.625 2.125,1.75 4.275,3.475 6.425,5.175 l 0.05,-0.075 c -2,-1.9 -4.025,-3.775 -6.05,-5.625 -1,-0.925 -1.975,-1.925 -3.05,-2.775 -1.075,-0.85 -2.175,-1.7 -3.35,-2.425 l -0.05,0.05 c 0.2,0.25 0.425,0.475 0.625,0.7 -1.325,0 -2.6,-0.55 -3.525,-1.55 l -0.475,-0.525 -0.2,0.7 c -0.7,2.475 -2.875,4.2 -5.4,4.3 -1.575,0.05 -3.075,-0.5 -4.225,-1.6 -1.15,-1.075 -1.8,-2.55 -1.875,-4.15 -0.025,-0.975 0.15,-1.925 0.6,-2.825 l 0.2,-0.4 -0.4,-0.175 c -1.675,-0.7 -2.825,-2.325 -2.9,-4.175 -0.1,-2.35 1.575,-4.425 3.85,-4.8 l 0.45,-0.075 -0.15,-0.45 c -0.075,-0.275 -0.125,-0.525 -0.15,-0.8 -0.025,-0.85 0.275,-1.65 0.825,-2.275 0.575,-0.625 1.325,-0.975 2.175,-1.025 1.725,-0.075 3.175,1.3 3.25,3 l 0.025,0.475 h 0.475 c 0.075,0 0.125,0 0.175,0 l 0.275,0.025 0.125,-0.25 c 0.925,-2.125 2.925,-3.5 5.2,-3.6 1.575,-0.075 3.1,0.5 4.25,1.6 1.175,1.1 1.825,2.6 1.9,4.225 0.075,1.775 -0.625,3.475 -1.925,4.675 l -0.4,0.35 0.425,0.3 c 1.325,0.875 2.15,2.35 2.2,3.95 0.025,0.8 -0.15,1.6 -0.475,2.3 -0.5,-0.525 -1,-1.025 -1.525,-1.525 l -0.075,0.05 c 0.7,1.225 1.475,2.375 2.275,3.475 0.825,1.125 1.75,2.15 2.625,3.2 1.775,2.125 3.55,4.225 5.35,6.325 l 0.075,-0.05 c -1.625,-2.25 -3.25,-4.475 -4.925,-6.675 -0.825,-1.125 -1.6,-2.25 -2.5,-3.3 -0.25,-0.275 -0.5,-0.575 -0.75,-0.85 0.5,-0.925 0.75,-1.95 0.7,-2.975 -0.075,-1.7 -0.875,-3.275 -2.175,-4.3 1.225,-1.325 1.9,-3.125 1.825,-4.95 -0.075,-1.85 -0.825,-3.55 -2.15,-4.775 -1.325,-1.25 -3.05,-1.9 -4.85,-1.825 -2.325,0.1 -4.375,1.375 -5.55,3.375 -0.45,-1.8 -2.075,-3.075 -3.95,-3.025 -1.05,0.05 -2.025,0.5 -2.725,1.275 -0.725,0.775 -1.1,1.8 -1.05,2.875 0,0.175 0.025,0.375 0.05,0.575 -2.45,0.625 -4.175,2.95 -4.1,5.55 0.175,2.025 1.35,3.85 3.1,4.75 z m 123.02558,-28.94951 c -3.24735,0.12685 -6.15783,1.99072 -7.75537,4.81152 -1.35843,-0.494 -2.789,-0.73334 -4.24023,-0.68652 h -0.003 -0.004 c -3.03538,0.13197 -5.85071,1.43338 -7.91064,3.70459 -2.05808,2.26916 -3.14304,5.23386 -3.01123,8.32129 1e-5,1.6e-4 0,3.2e-4 0,5e-4 0.15126,4.32844 2.68826,8.12233 6.45557,9.96338 -1.24137,1.76405 -1.92384,3.89226 -1.83008,6.10546 0.002,0.19184 0.0239,0.33987 0.0239,0.3794 v 0.26758 c -0.73142,0.74717 -1.46641,1.48515 -2.18994,2.28906 l 0.002,-0.002 c -1.53128,1.68441 -2.83949,3.49712 -4.2041,5.23389 -2.77674,3.50222 -5.50371,7.00502 -8.20605,10.5581 l -0.33057,0.43408 0.94971,0.94971 0.44092,-0.48535 c 2.99953,-3.29948 5.97551,-6.60052 8.90332,-9.95361 l 0.005,-0.005 c 1.46451,-1.63802 3.0234,-3.2716 4.39893,-5.05469 l 10e-4,-10e-4 0.002,-0.002 c 1.35396,-1.7802 2.69334,-3.59842 3.86377,-5.55761 l 0.28857,-0.48291 -0.95312,-0.71533 -0.26221,0.22705 c 0.31002,-1.41022 1.01523,-2.71592 2.07129,-3.72168 l 0.002,-0.002 1.59522,-1.54688 -2.12305,-0.62744 -10e-4,-5e-4 -0.002,-5e-4 c -3.64094,-1.09813 -6.21228,-4.43833 -6.35264,-8.29815 v -5e-4 -9.7e-4 c -0.0938,-2.41434 0.74662,-4.69996 2.33838,-6.45557 1.61494,-1.77864 3.77102,-2.77545 6.13232,-2.87012 h 5e-4 c 1.44961,-0.0467 2.84094,0.25398 4.17872,0.91113 l 0.002,9.8e-4 1.23829,0.59473 0.49072,-1.27637 10e-4,-0.002 c 1.01102,-2.54821 3.39377,-4.23921 6.04346,-4.354 3.40621,-0.13717 6.40669,2.35518 6.95752,5.7749 l 5e-4,0.002 0.24414,1.46533 1.37402,-0.44189 c 0.37971,-0.11168 0.75812,-0.17749 1.10645,-0.19971 1.1853,-0.0414 2.27873,0.36747 3.13086,1.19775 l 0.003,0.003 0.003,0.003 c 0.85597,0.81208 1.36178,1.93219 1.40576,3.11963 0.0877,2.49198 -1.83305,4.56875 -4.15479,4.67725 l -0.007,5e-4 -1.31397,0.0908 v 1.3584 0.2583 l -0.0474,0.90088 0.8208,0.33789 c 3.15738,1.42939 5.18506,4.48146 5.30224,7.97363 v 0.002 0.001 c 0.0939,2.44071 -0.74799,4.77514 -2.38525,6.55273 l -0.002,0.002 -0.001,0.001 c -1.63943,1.80337 -3.82111,2.80242 -6.21289,2.9209 -2.61364,0.0923 -5.13339,-0.97995 -6.91113,-2.94482 l -10e-4,-0.002 -1.13379,-1.23242 -0.88233,1.42089 c -1.26556,2.00103 -3.42768,3.24156 -5.74511,3.3335 -0.87025,0.0341 -1.69998,-0.14839 -2.51026,-0.43555 0.59773,-0.59524 1.20317,-1.1847 1.75928,-1.83349 l 0.32617,-0.38037 -0.70849,-0.94434 -0.4795,0.27686 c -1.98631,1.14595 -3.80664,2.46159 -5.58691,3.79052 l -0.002,0.001 -0.003,0.002 c -1.80625,1.37377 -3.44212,2.88491 -5.10986,4.35352 -3.37658,2.90144 -6.70292,5.82738 -10.00342,8.77783 l -0.42725,0.38232 0.79297,1.05762 0.5,-0.37304 c 3.55294,-2.6522 7.07914,-5.35327 10.5791,-8.05323 l 0.003,-0.003 c 1.76275,-1.34056 3.57529,-2.6228 5.28174,-4.1255 l 10e-4,-9.9e-4 10e-4,-10e-4 c 0.35542,-0.31593 0.70007,-0.63482 1.04394,-0.94726 1.44284,0.73165 3.02582,1.10344 4.63477,1.05469 h 0.002 0.002 c 2.65478,-0.0992 5.10923,-1.35955 6.86035,-3.36182 2.16288,1.86793 4.92931,2.90902 7.81445,2.78662 3.06895,-0.10623 5.92981,-1.45828 7.98975,-3.72949 2.08371,-2.29472 3.16688,-5.28309 3.06152,-8.39111 -0.0955,-3.68661 -1.80535,-6.93095 -4.57568,-9.03076 2.48739,-1.16034 4.14543,-3.7593 4.05078,-6.69336 v -0.003 -0.004 c -0.0818,-1.85382 -0.85022,-3.61366 -2.22168,-4.90283 -1.36377,-1.28194 -3.13064,-1.94516 -4.98487,-1.89356 -0.17035,3.8e-4 -0.30765,0.0313 -0.46288,0.0498 -1.23062,-4.01922 -4.99249,-6.80454 -9.22809,-6.65052 h -5e-4 z m 0.0474,1.24902 c 3.82673,-0.13915 7.23838,2.48188 8.14453,6.22266 l 0.13672,0.56494 0.57373,-0.0957 c 0.3,-0.05 0.56632,-0.0913 0.79687,-0.0913 h 0.009 l 0.009,-5e-4 c 1.54161,-0.0453 2.97009,0.49023 4.10352,1.55566 1.12804,1.06036 1.75945,2.5 1.82812,4.04541 0.0883,2.8143 -1.74329,5.2172 -4.3042,5.86865 l -1.29589,0.32959 v -0.14062 l 0.12939,-0.009 c 1.6e-4,-10e-6 2.5e-4,1e-5 5e-4,0 3.02772,-0.14176 5.45649,-2.81428 5.34473,-5.97168 v -5e-4 -5e-4 c -0.056,-1.51081 -0.6993,-2.93894 -1.79102,-3.97656 -1.09521,-1.06592 -2.54684,-1.60573 -4.05664,-1.54981 h -0.008 l -0.008,5e-4 c -0.45016,0.0281 -0.91941,0.11178 -1.38769,0.24951 l -0.007,0.002 -0.019,0.006 -0.006,-0.0361 c -0.65072,-4.02842 -4.19914,-6.98454 -8.24173,-6.82175 h -5e-4 -10e-4 c -3.14901,0.13573 -5.96504,2.14436 -7.1543,5.14453 l -10e-4,0.003 -0.008,0.0205 -0.009,-0.004 -0.002,-9.7e-4 c -1.51138,-0.74197 -3.11921,-1.0908 -4.76856,-1.0376 h -0.002 -0.002 c -2.68681,0.10641 -5.17918,1.25924 -7.01318,3.2793 v 5e-4 c -1.80792,1.99402 -2.76746,4.60765 -2.66162,7.34277 10e-6,1.7e-4 -10e-6,3.3e-4 0,5e-4 10e-6,3.3e-4 -2e-5,6.5e-4 0,9.8e-4 0.1602,4.38849 3.08703,8.19675 7.24414,9.44921 l 0.002,5e-4 0.0752,0.022 -0.0522,0.0513 c -1.70224,1.62118 -2.64405,3.88491 -2.64405,6.22754 v 0.13916 l -0.0444,0.005 c -0.0594,-2.12278 0.65081,-4.17163 1.97559,-5.77051 l 0.54345,-0.65625 -0.78857,-0.32128 c -3.69642,-1.50694 -6.21954,-5.08616 -6.36116,-9.19291 l -5e-4,-0.002 v -0.003 c -0.11805,-2.76239 0.84667,-5.39752 2.68848,-7.42823 1.83949,-2.02816 4.32348,-3.17629 7.03711,-3.29492 1.46127,-0.0464 2.89297,0.2119 4.23242,0.77588 l 0.54346,0.229 0.26025,-0.52929 c 1.32632,-2.69918 3.998,-4.48474 6.96192,-4.60108 z m 10.00195,18.53223 1.12793,0.67871 c 3.02206,1.81796 4.90273,4.98356 4.99756,8.70556 v 0.002 0.003 c 0.0946,2.79197 -0.872,5.45303 -2.73828,7.5083 v 5e-4 c -1.83973,2.02842 -4.3784,3.22616 -7.10889,3.32031 h -0.002 -0.003 c -2.75158,0.11759 -5.40985,-0.9161 -7.38964,-2.82519 l -0.50343,-0.48584 -0.42626,0.55517 c -1.53967,2.00624 -3.86836,3.23744 -6.35156,3.33057 -1.53553,0.0459 -3.04355,-0.32515 -4.39356,-1.09326 l -0.2373,-0.13526 c 0.0204,-0.0145 0.0406,-0.0294 0.061,-0.0439 l 0.61279,0.30615 c 1.2375,0.61875 2.57378,0.91985 3.95411,0.86572 2.73192,-0.10819 5.26945,-1.56739 6.7539,-3.91552 l 10e-4,-0.002 0.0171,-0.0278 0.0146,0.0156 c 2.02147,2.23426 4.90062,3.46159 7.88574,3.35498 h 0.004 0.004 c 2.70489,-0.13259 5.21995,-1.28275 7.0791,-3.32617 l 5e-4,-10e-4 c 1.86159,-2.02159 2.81967,-4.68549 2.71436,-7.44336 v -10e-4 c -0.13309,-3.9552 -2.45362,-7.45063 -6.04248,-9.07226 l -0.009,-0.004 -0.0254,-0.0107 0.002,-0.0493 z m -29.16553,15.77246 c -0.12938,0.17147 -0.25165,0.34641 -0.38183,0.51758 -0.83089,1.07677 -1.75005,2.11446 -2.68408,3.14843 0.85541,-1.10895 1.71559,-2.20332 2.64404,-3.22461 l 10e-4,-0.002 10e-4,-10e-4 c 0.13609,-0.1512 0.28237,-0.29047 0.41992,-0.43896 z m 4.88623,4.69726 c -0.1947,0.17841 -0.39487,0.36142 -0.58593,0.53125 -1.01513,0.89374 -2.091,1.72077 -3.18213,2.54151 1.02991,-0.90803 2.06416,-1.80009 3.14648,-2.62354 l 0.002,-0.002 c 7.5e-4,-7.5e-4 10e-4,-0.001 0.002,-0.002 0.20389,-0.15218 0.41284,-0.29481 0.61719,-0.4458 z m 25.72937,-20.32646 c 2.85,-0.725 4.875,-3.4 4.775,-6.5 -0.075,-1.7 -0.775,-3.3 -2.025,-4.475 -1.25,-1.175 -2.85,-1.775 -4.55,-1.725 -0.3,0 -0.6,0.05 -0.9,0.1 -0.975,-4.025 -4.65,-6.85 -8.775,-6.7 -3.2,0.125 -6.075,2.05 -7.5,4.95 -1.425,-0.6 -2.95,-0.875 -4.5,-0.825 -2.875,0.125 -5.525,1.35 -7.475,3.5 -1.95,2.15 -2.975,4.95 -2.85,7.875 0.15,4.35 2.825,8.15 6.75,9.75 -1.45,1.75 -2.225,4 -2.125,6.325 0,0.125 0.025,0.275 0.025,0.4 v 0.15 l 0.4,-0.05 c -0.925,0.95 -1.85,1.875 -2.75,2.875 -1.5,1.65 -2.8,3.45 -4.175,5.2 -2.775,3.5 -5.5,7 -8.2,10.55 l 0.1,0.1 c 3,-3.3 5.975,-6.6 8.9,-9.95 1.475,-1.65 3.025,-3.275 4.375,-5.025 1.35,-1.775 2.675,-3.575 3.825,-5.5 l -0.1,-0.075 c -0.375,0.325 -0.725,0.7 -1.1,1.025 0,-2.175 0.875,-4.275 2.45,-5.775 l 0.825,-0.8 -1.1,-0.325 c -3.9,-1.175 -6.65,-4.75 -6.8,-8.875 -0.1,-2.575 0.8,-5.025 2.5,-6.9 1.725,-1.9 4.05,-2.975 6.575,-3.075 1.55,-0.05 3.05,0.275 4.475,0.975 l 0.625,0.3 0.25,-0.65 c 1.1,-2.775 3.7,-4.625 6.6,-4.75 3.725,-0.15 7,2.575 7.6,6.3 l 0.125,0.75 0.7,-0.225 c 0.425,-0.125 0.85,-0.2 1.25,-0.225 1.35,-0.05 2.625,0.425 3.6,1.375 0.975,0.925 1.55,2.2 1.6,3.55 0.1,2.825 -2.075,5.2 -4.75,5.325 l -0.725,0.05 v 0.775 c 0,0.1 0,0.175 0,0.275 l -0.025,0.475 0.425,0.175 c 3.375,1.525 5.55,4.8 5.675,8.525 0.1,2.6 -0.8,5.1 -2.55,7 -1.75,1.925 -4.1,3 -6.65,3.125 -2.8,0.1 -5.5,-1.05 -7.4,-3.15 l -0.575,-0.625 -0.45,0.725 c -1.375,2.175 -3.725,3.525 -6.25,3.625 -1.275,0.05 -2.5,-0.225 -3.65,-0.8 0.825,-0.8 1.65,-1.625 2.4,-2.5 l -0.075,-0.1 c -1.95,1.125 -3.75,2.425 -5.525,3.75 -1.775,1.35 -3.4,2.85 -5.075,4.325 -3.375,2.9 -6.7,5.825 -10,8.775 l 0.075,0.1 c 3.55,-2.65 7.075,-5.35 10.575,-8.05 1.775,-1.35 3.575,-2.625 5.25,-4.1 0.45,-0.4 0.9,-0.825 1.35,-1.225 1.45,0.825 3.075,1.225 4.725,1.175 2.675,-0.1 5.175,-1.425 6.825,-3.575 2.1,2.025 4.925,3.125 7.85,3 2.9,-0.1 5.6,-1.375 7.55,-3.525 1.975,-2.175 3,-5 2.9,-7.95 -0.1,-3.925 -2.1,-7.3 -5.3,-9.225 z m -92.52285,36.15068 c -2.51455,-0.23406 -6.62844,0.33011 -13.07569,3.48389 -0.90095,0.25102 -1.82941,0.57695 -2.75879,1.0542 -12.71397,6.33218 -25.779,15.90431 -28.71533,30.9624 -2.86139,14.58306 5.37041,27.4232 15.0586,37.28662 2.7965,2.8469 5.9722,3.97584 9.01855,3.86524 2.95912,-0.10744 5.78237,-1.39451 8.04492,-3.37354 l -0.0742,29.77051 v 75.2998 c 0,6.25981 4.50805,11.3252 10.82471,11.3252 6.31666,0 11.42529,-5.05733 11.42529,-11.3252 v -78.44287 c 7.5e-4,-0.008 0.0942,-0.96717 0.667,-1.93701 0.57513,-0.97376 1.61368,-1.94525 3.55957,-1.96973 1.9469,-0.0245 2.85745,0.89257 3.31396,1.82373 0.45651,0.93117 0.43408,1.87305 0.43408,1.87305 v 10e-4 78.42676 c 0,6.26821 5.13354,11.32471 11.4502,11.32471 6.31649,0 11.44992,-5.05625 11.45019,-11.32422 v -5e-4 l 0.375,-80.94971 v -5.1e-4 c 0,-0.31543 0.0246,-11.25888 0.0493,-24.40527 2.26073,1.85947 5.04282,3.05019 7.94189,3.10546 2.98323,0.0569 6.07669,-1.07864 8.79786,-3.86279 9.68818,-9.86342 17.9199,-22.70359 15.05859,-37.33642 v -5e-4 h -5e-4 c -3.01167,-15.03328 -16.07725,-24.60534 -28.7666,-30.9375 -1.47741,-0.73871 -2.93212,-1.15677 -4.36328,-1.34082 l -0.0249,-0.3252 -0.0918,-0.0195 c -4.65991,-0.97708 -7.90336,-1.06546 -9.98535,-0.90821 -2.08199,0.15725 -3.01611,0.56641 -3.01611,0.56641 l -0.042,0.0186 -9.94629,20.83935 2.12548,-18.29345 h 0.38868 v -3.4253 h -8 v 3.4253 h 0.41552 l 2.49561,18.23047 -9.94238,-21.68067 -0.10352,0.0298 c -0.23925,0.0693 -0.33498,0.0971 -0.40625,0.1372 -0.0178,0.01 -0.04,0.0155 -0.0654,0.0625 -0.0127,0.0235 -0.0209,0.0654 -0.0107,0.1001 5e-4,0.001 10e-4,0.001 0.002,0.002 -0.0301,0.0175 -0.0649,0.0347 -0.15088,0.0747 -0.0474,-0.051 -0.21371,-0.24528 -0.69824,-0.50488 -0.54412,-0.29154 -1.40099,-0.60901 -2.65869,-0.72608 z m -0.0229,0.24854 c 1.22666,0.11418 2.049,0.4221 2.56347,0.69775 0.51447,0.27565 0.7124,0.50928 0.7124,0.50928 l 0.0591,0.0688 0.084,-0.0347 c 0.22936,-0.0956 0.32352,-0.13554 0.39502,-0.2124 0.0179,-0.0192 0.0389,-0.0453 0.0449,-0.0894 10e-4,-0.007 -0.006,-0.0121 -0.006,-0.0195 0.0297,-0.0106 0.0667,-0.0221 0.12598,-0.041 l 10.20361,22.24902 0.23731,-0.0693 -2.63965,-19.28272 h -0.38379 v -2.92529 h 7.5 v 2.92529 h -0.36133 l -2.23779,19.26026 0.23681,0.0684 10.22706,-21.42676 c 0.0487,-0.0211 0.89741,-0.38285 2.89453,-0.53369 2.04085,-0.15415 5.23633,-0.0653 9.82324,0.88818 l 0.0254,0.33057 0.10205,0.0122 c 1.43611,0.17332 2.89621,0.59361 4.38379,1.3374 12.66062,6.31783 25.64498,15.846 28.6333,30.7627 2.83841,14.51694 -5.32952,27.27683 -14.99121,37.11328 h -5e-4 c -2.67883,2.74084 -5.69749,3.84321 -8.61426,3.7876 -2.91677,-0.0556 -5.73448,-1.27421 -7.99023,-3.19532 l -0.20557,-0.17529 -5e-4,0.27002 c -0.025,13.32496 -0.0498,24.31898 -0.0498,24.65039 l -0.375,80.94971 v 5e-4 c 0,6.13178 -5.01686,11.07471 -11.20019,11.07471 -6.18333,0 -11.2002,-4.94293 -11.2002,-11.07471 v -78.42188 -0.003 c 1.5e-4,-0.005 0.0264,-0.99521 -0.45947,-1.98633 -0.48724,-0.99383 -1.5139,-1.98889 -3.54199,-1.96338 -2.02911,0.0255 -3.16537,1.06605 -3.77149,2.09229 -0.60612,1.02623 -0.70117,2.0459 -0.70117,2.0459 l -5e-4,0.006 v 78.45556 c 0,6.13212 -4.99196,11.0752 -11.17529,11.0752 -6.18333,0 -10.57471,-4.93501 -10.57471,-11.0752 v -75.2998 l 0.0757,-30.30762 -0.20997,0.18995 c -2.25583,2.04512 -5.11657,3.36255 -8.09521,3.4707 -2.97864,0.10814 -6.07806,-0.98743 -8.83154,-3.79053 -9.6618,-9.83656 -17.83031,-22.59656 -14.9917,-37.06348 2.91356,-14.94134 15.89792,-24.46929 28.58349,-30.78711 l 5e-4,-5e-4 h 5e-4 c 0.91549,-0.47011 1.8322,-0.79258 2.72657,-1.04101 l 0.0112,-0.003 0.0102,-0.005 c 6.42392,-3.14336 10.49588,-3.69125 12.94922,-3.46289 z m 40.8208,31.38135 v 0.24462 c 0,5.12459 -0.0249,12.47465 -0.0249,20.39991 v 0.30175 l 0.21338,-0.21337 c 1.57652,-1.57652 3.79387,-3.87399 5.36279,-6.27295 0.78446,-1.19949 1.40767,-2.42466 1.70459,-3.60401 0.29692,-1.17934 0.26585,-2.31868 -0.27051,-3.32031 l -5e-4,-0.001 -4.9e-4,-5e-4 c -1.68596,-3.06995 -4.0757,-5.43358 -6.78614,-7.39111 z m -52.84912,0.40527 -0.19727,0.13623 c -2.93611,2.03269 -5.47695,4.4975 -7.26318,7.76807 h -5e-4 c -0.56849,1.04652 -0.58497,2.24097 -0.25049,3.47363 0.33448,1.23266 1.01784,2.5104 1.86328,3.75342 1.69089,2.48604 4.03359,4.83368 5.55908,6.34668 l 0.21192,0.20996 10e-4,-0.29834 z m 53.09863,0.0962 c 2.60438,1.91252 4.89335,4.1994 6.51514,7.15186 0.50114,0.93587 0.53569,2.00298 0.24902,3.1416 -0.28667,1.13862 -0.89647,2.34294 -1.67139,3.52783 -1.48789,2.27508 -3.55944,4.44371 -5.1167,6.0083 7.5e-4,-7.68563 0.0233,-14.79329 0.0239,-19.82959 z m -53.35059,0.39551 -0.0727,20.58984 c -1.52344,-1.51406 -3.71013,-3.72917 -5.31641,-6.09082 -0.8358,-1.22885 -1.50577,-2.48666 -1.8291,-3.67822 -0.32333,-1.19156 -0.30251,-2.3101 0.22901,-3.28858 1.7224,-3.15369 4.16243,-5.54287 6.98925,-7.53222 z m 27.60108,6.59765 c -1.96798,0 -3.5752,1.60877 -3.5752,3.625 0,2.01624 1.60612,3.64991 3.5752,3.64991 1.97017,0 3.57519,-1.65781 3.57519,-3.64991 0,-1.99209 -1.60611,-3.625 -3.57519,-3.625 z m 0,0.25 c 1.83092,0 3.32519,1.51711 3.32519,3.375 0,1.8579 -1.49537,3.39991 -3.32519,3.39991 -1.83092,0 -3.3252,-1.51615 -3.3252,-3.39991 0,-1.88375 1.49318,-3.375 3.3252,-3.375 z m -0.25,10.79981 c -1.96798,0 -3.5752,1.60876 -3.5752,3.625 0,2.01624 1.60612,3.6499 3.5752,3.6499 1.97017,0 3.57519,-1.6578 3.57519,-3.6499 0,-1.9921 -1.60611,-3.625 -3.57519,-3.625 z m 0,0.25 c 1.83092,0 3.32519,1.5171 3.32519,3.375 0,1.8579 -1.49537,3.3999 -3.32519,3.3999 -1.83092,0 -3.3252,-1.51614 -3.3252,-3.3999 0,-1.88376 1.49318,-3.375 3.3252,-3.375 z m 0,10.7749 c -1.96908,0 -3.5752,1.63367 -3.5752,3.6499 0,2.01624 1.60612,3.65039 3.5752,3.65039 1.96908,0 3.57519,-1.63415 3.57519,-3.65039 0,-2.01623 -1.60611,-3.6499 -3.57519,-3.6499 z m 0,0.25 c 1.83092,0 3.32519,1.51614 3.32519,3.3999 0,1.88376 -1.49427,3.40039 -3.32519,3.40039 -1.83092,0 -3.3252,-1.51663 -3.3252,-3.40039 0,-1.88376 1.49428,-3.3999 3.3252,-3.3999 z m 28.97495,-57.59991 c -1.5,-0.75 -2.975,-1.175 -4.425,-1.35 l -0.025,-0.325 c -9.3,-1.95 -12.925,-0.35 -12.925,-0.35 l -10.25,21.475 2.225,-19.15 h 0.375 v -3.175 h -7.75 v 3.175 h 0.4 l 2.625,19.175 -10.25,-22.35 c -0.95,0.275 0.225,0.025 -0.675,0.4 0,0 -3.5,-4.075 -16.375,2.225 -0.9,0.25 -1.825,0.575 -2.75,1.05 -12.7,6.325 -25.725,15.875 -28.65,30.875 -2.85,14.525 5.35,27.325 15.025,37.175 5.55,5.65 12.55,4.45 17.1,0.325 l -0.075,30.025 v 75.3 c 0,6.2 4.45,11.2 10.7,11.2 6.25,0 11.3,-5 11.3,-11.2 v -78.45 c 0,0 0.375,-3.975 4.35,-4.025 3.975,-0.05 3.875,3.825 3.875,3.825 v 78.425 c 0,6.2 5.075,11.2 11.325,11.2 6.25,0 11.325,-5 11.325,-11.2 l 0.375,-80.95 c 0,-0.325 0.025,-11.325 0.05,-24.65 4.55,3.875 11.375,4.925 16.775,-0.6 9.675,-9.85 17.875,-22.65 15.025,-37.225 -3,-14.975 -16.025,-24.525 -28.7,-30.85 z m -56.275,49.575 c -3.05,-3.025 -9.35,-9.375 -7.15,-13.425 1.775,-3.25 4.3,-5.7 7.225,-7.725 z m 27.3,14.95 c -1.9,0 -3.45,-1.575 -3.45,-3.525 0,-1.95 1.55,-3.525 3.45,-3.525 1.9,0 3.45,1.575 3.45,3.525 0,1.95 -1.55,3.525 -3.45,3.525 z m 0,-11.05 c -1.9,0 -3.45,-1.575 -3.45,-3.525 0,-1.95 1.55,-3.5 3.45,-3.5 1.9,0 3.45,1.575 3.45,3.5 0,1.925 -1.55,3.525 -3.45,3.525 z m 0.25,-11.05 c -1.9,0 -3.45,-1.575 -3.45,-3.525 0,-1.95 1.55,-3.5 3.45,-3.5 1.9,0 3.45,1.575 3.45,3.5 0,1.925 -1.55,3.525 -3.45,3.525 z m 25.6,6 c 0,-7.925 0.025,-15.275 0.025,-20.4 2.7,1.95 5.075,4.3 6.75,7.35 2.075,3.875 -3.625,9.9 -6.775,13.05 z m -27.0502,-94.9252 c -10.68653,0 -19.34961,8.83407 -19.34961,19.7251 0,10.89103 8.66308,19.7251 19.34961,19.7251 10.68654,0 19.3501,-8.83407 19.3501,-19.7251 0,-10.89103 -8.66356,-19.7251 -19.3501,-19.7251 z m 0,0.25 c 10.54879,0 19.1001,8.71659 19.1001,19.4751 0,10.75851 -8.55131,19.4751 -19.1001,19.4751 -10.54879,0 -19.09961,-8.71659 -19.09961,-19.4751 0,-10.75851 8.55082,-19.4751 19.09961,-19.4751 z m 19.2252,19.4752 a 19.225,19.6 0 0 1 -19.225,19.6 19.225,19.6 0 0 1 -19.225,-19.6 19.225,19.6 0 0 1 19.225,-19.6 19.225,19.6 0 0 1 19.225,19.6 z" />
</svg>
