<?xml version="1.0" encoding="UTF-8" standalone="no"?>
<!-- Svg Vector Icons : http://www.onlinewebfonts.com/icon -->

<svg
   version="1.1"
   x="0px"
   y="0px"
   viewBox="0 0 1000 1000"
   enable-background="new 0 0 1000 1000"
   xml:space="preserve"
   id="svg48"
   sodipodi:docname="clock-time.svg"
   inkscape:version="1.2 (dc2aedaf03, 2022-05-15)"
   xmlns:inkscape="http://www.inkscape.org/namespaces/inkscape"
   xmlns:sodipodi="http://sodipodi.sourceforge.net/DTD/sodipodi-0.dtd"
   xmlns="http://www.w3.org/2000/svg"
   xmlns:svg="http://www.w3.org/2000/svg"><defs
   id="defs52" /><sodipodi:namedview
   id="namedview50"
   pagecolor="#505050"
   bordercolor="#eeeeee"
   borderopacity="1"
   inkscape:showpageshadow="0"
   inkscape:pageopacity="0"
   inkscape:pagecheckerboard="0"
   inkscape:deskcolor="#505050"
   showgrid="false"
   inkscape:zoom="0.903"
   inkscape:cx="441.30676"
   inkscape:cy="500.55371"
   inkscape:window-width="1835"
   inkscape:window-height="1057"
   inkscape:window-x="-8"
   inkscape:window-y="-8"
   inkscape:window-maximized="1"
   inkscape:current-layer="svg48" />
<metadata
   id="metadata2"> Svg Vector Icons : http://www.onlinewebfonts.com/icon </metadata>
<g
   id="g46"
   transform="matrix(0.26122449,0,0,0.26122449,369.38776,369.38776)"
   style="fill:#08d0a8;fill-opacity:1"><g
     id="g14"
     style="fill:#08d0a8;fill-opacity:1"><g
       id="g12"
       style="fill:#08d0a8;fill-opacity:1"><g
         id="g6"
         style="fill:#08d0a8;fill-opacity:1"><path
           d="m 500,10 h -44.2 v 233 h 88.4 V 100.8 C 746.7,122.8 901.6,293.4 901.6,500 901.6,721.5 721.4,901.6 500,901.6 278.6,901.6 98.4,721.5 98.4,500 c 0,-90.6 29.5,-176.2 85.1,-247.3 L 199.1,232.9 129.5,178.4 114,198.2 C 46,285.1 10,389.4 10,500 10,770.2 229.8,990 500,990 770.2,990 990,770.2 990,500 990,229.8 770.2,10 500,10 Z"
           id="path4"
           style="fill:#08d0a8;fill-opacity:1" /></g><g
         id="g10"
         style="fill:#08d0a8;fill-opacity:1"><path
           d="m 429.6,575.1 c 16,19.2 38.5,31 63.3,33.2 2.9,0.3 5.7,0.4 8.5,0.4 47.8,0 88.7,-37.4 93,-85 2.2,-24.8 -5.3,-49.1 -21.3,-68.3 -16,-19.2 -38.5,-31 -63.3,-33.3 -8.2,-0.7 -16.5,-0.3 -25.3,1.4 L 214.6,194.9 412.9,486.2 c -2.5,7.3 -4,14 -4.6,20.6 -2.3,24.8 5.2,49.1 21.3,68.3 z"
           id="path8"
           style="fill:#08d0a8;fill-opacity:1" /></g></g></g><g
     id="g16"
     style="fill:#08d0a8;fill-opacity:1" /><g
     id="g18"
     style="fill:#08d0a8;fill-opacity:1" /><g
     id="g20"
     style="fill:#08d0a8;fill-opacity:1" /><g
     id="g22"
     style="fill:#08d0a8;fill-opacity:1" /><g
     id="g24"
     style="fill:#08d0a8;fill-opacity:1" /><g
     id="g26"
     style="fill:#08d0a8;fill-opacity:1" /><g
     id="g28"
     style="fill:#08d0a8;fill-opacity:1" /><g
     id="g30"
     style="fill:#08d0a8;fill-opacity:1" /><g
     id="g32"
     style="fill:#08d0a8;fill-opacity:1" /><g
     id="g34"
     style="fill:#08d0a8;fill-opacity:1" /><g
     id="g36"
     style="fill:#08d0a8;fill-opacity:1" /><g
     id="g38"
     style="fill:#08d0a8;fill-opacity:1" /><g
     id="g40"
     style="fill:#08d0a8;fill-opacity:1" /><g
     id="g42"
     style="fill:#08d0a8;fill-opacity:1" /><g
     id="g44"
     style="fill:#08d0a8;fill-opacity:1" /></g>
</svg>
