<?xml version="1.0" encoding="UTF-8" standalone="no"?>
<!-- Svg Vector Icons : http://www.onlinewebfonts.com/icon -->

<svg
   version="1.1"
   x="0px"
   y="0px"
   viewBox="0 0 1000 1000"
   enable-background="new 0 0 1000 1000"
   xml:space="preserve"
   id="svg12"
   sodipodi:docname="confused2.svg"
   inkscape:version="1.2 (dc2aedaf03, 2022-05-15)"
   xmlns:inkscape="http://www.inkscape.org/namespaces/inkscape"
   xmlns:sodipodi="http://sodipodi.sourceforge.net/DTD/sodipodi-0.dtd"
   xmlns="http://www.w3.org/2000/svg"
   xmlns:svg="http://www.w3.org/2000/svg"><defs
   id="defs16" /><sodipodi:namedview
   id="namedview14"
   pagecolor="#505050"
   bordercolor="#eeeeee"
   borderopacity="1"
   inkscape:showpageshadow="0"
   inkscape:pageopacity="0"
   inkscape:pagecheckerboard="0"
   inkscape:deskcolor="#505050"
   showgrid="false"
   inkscape:zoom="0.63851742"
   inkscape:cx="292.08287"
   inkscape:cy="291.2998"
   inkscape:window-width="1835"
   inkscape:window-height="1057"
   inkscape:window-x="-8"
   inkscape:window-y="-8"
   inkscape:window-maximized="1"
   inkscape:current-layer="svg12" />
<metadata
   id="metadata2"> Svg Vector Icons : http://www.onlinewebfonts.com/icon </metadata>
<g
   id="g472"
   transform="matrix(0.25,0,0,0.25,375,375.0097)"><path
     style="fill:#d09000;fill-opacity:0.96;stroke-width:0.1"
     d="m 399.5,10.92 c -15.77,3.35 -20.69,7.69 -44.54,39.81 -10.44,13.99 -23.65,28.18 -40.2,43.16 -13.6,12.22 -34.09,31.73 -45.72,43.16 l -21.28,20.89 49.86,50.25 c 27.59,27.59 66.81,68.38 87.5,90.65 20.69,22.27 42.17,44.73 47.69,50.25 l 10.05,9.66 v 294.81 294.61 l 4.73,9.85 c 12.02,25.81 32.71,36.85 56.56,29.76 12.81,-3.75 24.04,-12.42 29.95,-23.45 l 4.34,-8.27 0.59,-153.12 0.39,-153.31 h 5.91 5.91 l 0.39,153.31 0.59,153.12 4.73,9.46 c 9.06,18.53 30.54,27.79 54.19,23.45 16.36,-3.15 25.22,-9.66 32.12,-23.45 l 5.52,-11.43 0.59,-270.57 0.39,-270.37 h 8.87 8.87 v 90.03 c 0,86.51 0.2,90.65 4.14,99.12 8.87,19.51 22.86,28.38 45.13,28.38 14.78,0 23.65,-2.76 32.12,-10.25 3.15,-2.76 3.35,-13.99 3.35,-183.66 V 256.06 l -9.06,-8.47 c -4.93,-4.53 -13.2,-10.25 -18.13,-12.41 -9.26,-4.34 -10.64,-4.34 -143.26,-4.93 l -134.2,-0.59 -36.27,-36.26 -36.46,-36.46 36.85,-37.05 C 448.56,82.84 453.09,77.13 455.46,64.12 460.98,33.39 430.44,4.42 399.5,10.92 Z"
     id="path4" /><path
     id="path6"
     style="fill:#d09000;fill-opacity:0.96;stroke-width:0.11"
     d="m 553.0639,16.232967 c -5.60723,0.08113 -11.40467,0.946603 -19.20917,2.679101 -35.11196,7.369994 -65.03279,35.332896 -75.86777,70.45586 -17.12698,55.274942 21.24105,115.323412 80.85,126.158402 40.75495,7.58999 85.62496,-17.1261 104.91894,-57.88105 8.01899,-16.47799 8.23925,-17.99629 8.23925,-40.96427 0,-22.967973 -0.22026,-24.497012 -8.23925,-40.974996 -13.87099,-29.47997 -41.18351,-50.94178 -72.62148,-57.442773 -7.04549,-1.407999 -12.46327,-2.111399 -18.07052,-2.030274 z m 49.15625,23.819726 c 3.09747,22.326281 28.31566,43.399562 22.43966,59.707814 -15.01306,27.650033 -43.79164,16.581863 -44.97383,0.305073 -5.39324,-9.053654 11.32659,-40.415072 22.53417,-60.012887 z"
     sodipodi:nodetypes="sccccsccscccc" /></g>
</svg>
