<?xml version="1.0" encoding="UTF-8" standalone="no"?>
<!-- Svg Vector Icons : http://www.onlinewebfonts.com/icon -->

<svg
   version="1.1"
   x="0px"
   y="0px"
   viewBox="0 0 1000 1000"
   enable-background="new 0 0 1000 1000"
   xml:space="preserve"
   id="svg7104"
   sodipodi:docname="confused1.svg"
   inkscape:version="1.2 (dc2aedaf03, 2022-05-15)"
   xmlns:inkscape="http://www.inkscape.org/namespaces/inkscape"
   xmlns:sodipodi="http://sodipodi.sourceforge.net/DTD/sodipodi-0.dtd"
   xmlns="http://www.w3.org/2000/svg"
   xmlns:svg="http://www.w3.org/2000/svg"><defs
   id="defs7108" /><sodipodi:namedview
   id="namedview7106"
   pagecolor="#505050"
   bordercolor="#eeeeee"
   borderopacity="1"
   inkscape:showpageshadow="0"
   inkscape:pageopacity="0"
   inkscape:pagecheckerboard="0"
   inkscape:deskcolor="#505050"
   showgrid="false"
   inkscape:zoom="0.62225397"
   inkscape:cx="394.53344"
   inkscape:cy="591.3984"
   inkscape:window-width="1835"
   inkscape:window-height="1057"
   inkscape:window-x="-8"
   inkscape:window-y="-8"
   inkscape:window-maximized="1"
   inkscape:current-layer="svg7104" />
<metadata
   id="metadata7092"> Svg Vector Icons : http://www.onlinewebfonts.com/icon </metadata>
<path
   id="path7255"
   style="fill:#d09000;fill-opacity:0.96;stroke-width:0.025"
   d="m 511.56995,546.97903 c -2.585,1.5325 -3.975,4.2625 -3.6875,7.23 0.1425,1.2925 0.67,2.9675 1.1975,3.6375 1.1,1.5325 4.645,3.4475 6.3675,3.4475 0.67,0 2.2025,-0.48 3.3525,-1.1 2.2975,-1.15 4.31,-4.215 4.31,-6.56 0,-1.725 -1.915,-5.2675 -3.4475,-6.4175 -1.9625,-1.435 -5.9375,-1.53 -8.0925,-0.2375 z m -9.91,-123.05 c -4.07,0.67 -9.625,2.73 -13.1675,4.7875 -3.64,2.155 -9.0975,7.085 -11.54,10.4375 -4.405,5.985 -7.135,13.9325 -7.1825,20.9725 -0.0475,4.8825 0.48,6.08 3.5425,8.14 4.6925,3.2075 11.49,-0.7175 11.49,-6.6075 0.0475,-5.84 2.825,-12.305 7.135,-16.375 9.0975,-8.6675 22.6,-8.6675 31.6975,0 11.54,11.0125 8.57,30.115 -5.745,36.82 -7.6125,3.5425 -7.8525,3.735 -8.8575,5.6975 -0.9575,1.82 -1.005,2.6325 -1.005,19.9175 v 18.0025 l 1.3875,1.77 c 3.255,4.31 9.0975,4.1175 12.4475,-0.3825 0.9575,-1.245 1.005,-2.06 1.1475,-15.7525 l 0.145,-14.46 3.4475,-1.915 c 4.5,-2.49 11.49,-9.3375 14.125,-13.885 1.1,-1.8675 2.6825,-5.41 3.495,-7.9 1.485,-4.2625 1.58,-4.98 1.58,-11.2525 0.0475,-7.2775 -0.5275,-10.15 -3.065,-15.8475 -6.94,-15.6075 -24.32,-24.945 -41.0775,-22.1675 z m 0.1425,-45.965 c -7.23,0.575 -18.8175,2.585 -24.945,4.31 -16.5175,4.645 -28.1525,11.06 -38.0175,20.9725 -5.985,5.985 -9.385,10.725 -12.6875,17.525 -4.7875,9.96 -6.32,17.0925 -6.9425,32.5575 -0.765,18.435 -1.245,20.3975 -7.7075,31.3125 -4.7875,8.1375 -6.32,11.06 -9.145,17.4275 -2.2025,5.0275 -2.2975,7.7075 -0.43,10.3425 2.06,2.8725 3.16,3.16 13.12,3.305 l 8.9525,0.1925 -0.2875,14.4125 c -0.3825,16.0875 0.0475,21.9775 2.01,28.1525 2.1075,6.655 6.4625,11.825 12.4,14.7475 5.4575,2.68 7.6125,3.0175 20.0125,3.255 l 11.3475,0.24 v 20.205 c 0,20.205 0,20.2525 1.1,21.8325 0.575,0.8625 1.675,2.06 2.395,2.585 1.34,1.005 1.485,1.005 52.4275,1.15 28.105,0.0475 51.805,0 52.6675,-0.1425 2.3475,-0.43 5.1225,-3.16 5.8425,-5.745 0.815,-2.9675 0.3825,-4.6925 -2.68,-9.8625 -6.13,-10.2475 -9.385,-18.0025 -11.3,-26.9075 -0.815,-3.8775 -1.0525,-6.465 -1.0525,-12.785 0,-9.385 0.7675,-13.98 3.83,-23.3175 2.4425,-7.565 5.315,-13.55 11.205,-23.605 5.65,-9.625 8.235,-15.035 10.5325,-21.9775 6.415,-19.535 6.6075,-45.39 0.43,-64.3975 -1.725,-5.315 -6.2725,-14.65 -9.29,-19.2 -7.9475,-11.8275 -18.8175,-21.355 -31.6,-27.77 -15.6075,-7.81 -31.215,-10.4425 -52.1875,-8.815 z m 21.69,15.3225 c 27.4825,3.015 49.9875,20.8275 57.5525,45.3425 2.585,8.5225 3.065,12.305 3.065,23.3175 -0.0475,14.0775 -1.3875,23.605 -4.5975,32.75 -1.82,5.1225 -3.59,8.6675 -8.57,17.0925 -8.14,13.79 -13.455,26.5725 -15.705,37.7775 -3.735,18.53 -1.245,38.1125 6.655,53.2425 l 2.2975,4.4525 h -39.6925 -39.6925 v -19.775 c 0,-28.01 1.7725,-25.855 -21.3075,-26.19 -15.4175,-0.24 -15.8475,-0.2875 -18.0975,-1.3875 -2.6825,-1.2925 -4.3575,-3.5425 -5.505,-7.2775 -0.67,-2.2025 -0.765,-5.65 -0.815,-24.13 -0.0475,-22.7425 -0.095,-23.125 -2.2975,-25.5675 -1.82,-1.9625 -3.6875,-2.4425 -9.91,-2.4425 -3.16,0 -5.745,-0.095 -5.745,-0.1925 0,-0.0975 2.155,-4.3575 4.74,-9.48 2.6325,-5.075 5.17,-10.6775 5.745,-12.4475 1.5325,-5.0275 2.395,-12.3525 2.73,-22.455 0.575,-19.295 3.495,-28.68 12.065,-39.1175 2.49,-2.9675 9.3375,-8.5225 14.03,-11.3 15.3675,-9.15 42.8025,-14.4625 63.055,-12.2125 z" />
</svg>
