<?xml version="1.0" encoding="UTF-8"?>
<svg width="752pt" height="752pt" version="1.1" viewBox="0 0 752 752" xmlns="http://www.w3.org/2000/svg">
 <path d="m253.04 313.05-26.82-15.465c-4.4141 4.2344-10.438 6.832-17.082 6.832-13.66 0-24.758-11.09-24.758-24.758 0-13.676 11.098-24.766 24.758-24.766 13.699 0 24.758 11.09 24.758 24.766 0 2.0039-0.20703 3.957-0.66016 5.832l26.777 15.465c-3.5117 3.2539-5.9023 7.4414-6.9727 12.094zm6.9688 138-26.777 15.477c0.45312 1.8594 0.66016 3.8086 0.66016 5.8164 0 13.68-11.059 24.758-24.758 24.758-13.66 0-24.758-11.078-24.758-24.758 0-13.676 11.098-24.758 24.758-24.758 6.6406 0 12.668 2.5938 17.082 6.8281l26.82-15.469c1.0742 4.6523 3.4648 8.8438 6.9727 12.105zm239-12.105 26.781 15.465c4.4531-4.2227 10.484-6.8281 17.082-6.8281 13.699 0 24.758 11.086 24.758 24.758 0 13.68-11.059 24.758-24.758 24.758-13.66 0-24.758-11.078-24.758-24.758 0-2.0078 0.24609-3.9609 0.69922-5.8242l-26.781-15.469c3.5117-3.2578 5.9023-7.4492 6.9766-12.102zm-6.9727-138 26.781-15.477c-0.45312-1.8594-0.69922-3.8125-0.69922-5.8164 0-13.676 11.098-24.766 24.758-24.766 13.699 0 24.758 11.09 24.758 24.766 0 13.668-11.059 24.758-24.758 24.758-6.6016 0-12.625-2.5938-17.039-6.8242l-26.82 15.469c-1.082-4.6562-3.4727-8.8477-6.9805-12.109zm-109.02-93.879v30.945c-4.5781-1.4062-9.4062-1.4062-14.031 0v-30.945c-10.23-3.0234-17.746-12.516-17.746-23.754 0-13.676 11.098-24.766 24.758-24.766 13.699 0 24.758 11.09 24.758 24.766 0.007813 11.238-7.4609 20.727-17.738 23.754zm-1.8984 45.328 33.793 19.516-109.59 63.27v46.895c0 1.875 0.94531 3.4844 2.5586 4.4219l25.422 14.668c0.78516 0.46875 1.7305 0.46875 2.5547 0 0.78516-0.46875 1.2773-1.2734 1.2773-2.2109v-45.414l109.6-63.281 33.793 19.516c3.2227 1.875 5.0781 5.0898 5.0781 8.8398v114.77c0 3.7461-1.8555 6.9609-5.0781 8.8398l-99.402 57.383c-3.2617 1.8633-6.9766 1.8633-10.191 0l-99.402-57.383c-3.2617-1.8789-5.1172-5.0977-5.1172-8.8398v-114.77c0-3.75 1.8555-6.9648 5.1172-8.8398l99.402-57.387c3.2227-1.8711 6.9297-1.8711 10.191 0.003907zm-5.1172 341.05c-13.66 0-24.758-11.086-24.758-24.766 0-11.242 7.5078-20.723 17.746-23.754v-30.945c4.6211 1.4141 9.4531 1.4141 14.031 0v30.949c10.277 3.0234 17.746 12.512 17.746 23.754-0.003906 13.676-11.066 24.762-24.766 24.762z" fill-rule="evenodd"/>
</svg>
