<?xml version="1.0" encoding="UTF-8"?>
<svg width="752pt" height="752pt" version="1.1" viewBox="0 0 752 752" xmlns="http://www.w3.org/2000/svg">
 <defs>
  <clipPath id="a">
   <path d="m139.21 245h473.58v264h-473.58z"/>
  </clipPath>
 </defs>
 <g clip-path="url(#a)">
  <path d="m395.7 245.95h-207.47c-9.5273 0-17.668 7.3984-17.945 16.926-0.37109 9.7109 7.2148 17.852 16.926 18.223h0.64844 50.965c7.8633 0 14.246 6.3828 14.246 14.246 0 7.8633-6.3828 14.246-14.246 14.246l-35.516-0.003906c-9.5273 0-17.574 7.3984-17.945 16.926-0.37109 9.7109 7.2148 17.852 16.926 18.223h0.64844 23.586c8.0469 0 14.984 6.1953 15.355 14.246 0.37109 8.2305-5.918 15.262-14.246 15.633h-0.73828l-69.652-0.003907c-9.5273 0-17.668 7.3984-17.945 16.926-0.37109 9.7109 7.2148 17.852 16.926 18.223h0.64844 65.117c7.8633 0.46094 13.875 7.2148 13.41 15.078-0.46094 7.3086-6.2891 13.133-13.598 13.41h-20.898c-9.5273 0-17.668 7.3984-17.945 16.926-0.37109 9.7109 7.2148 17.852 16.926 18.223h0.64844 62.711c3.793 20.535 20.996 35.426 43.844 35.426 22.57 0 43.75-14.523 53.461-34.777 12.578-0.09375 26.082-0.27734 38.387-0.64844 0 0 30.062-0.37109 64.746-1.1094 3.3281 21.09 20.812 36.535 44.027 36.535 24.695 0 47.727-17.48 55.961-40.699 0.83203-0.09375 1.4805-0.27734 1.9414-0.37109 18.129-4.5312 33.391-19.609 37.645-38.109 2.4961-10.82 6.1953-31.91 9.25-52.723 1.0156-6.3828 0.27734-12.949-2.2188-18.961-7.6758-17.945-16.926-35.148-27.75-51.43-10.176-15.168-27.285-24.234-46.805-24.605-10.914-0.18359-21.551-0.27734-29.969-0.27734-4.1641-18.777-19.426-31.91-39.773-34.223-23.855-1.6602-70.289-1.4727-70.289-1.4727zm-65.117 211.45c-1.2969 9.0664-9.6211 16.371-18.684 16.371-9.0664 0-15.355-7.3984-14.059-16.371 1.2969-8.9727 9.6211-16.371 18.684-16.371s15.352 7.3984 14.059 16.371zm140.78-159.37c-0.83203 16.371-3.0508 37.09-6.4766 61.512-3.4219 24.418-7.0312 45.137-10.82 61.512-2.0352 8.6016-9.3438 14.891-18.035 15.816-12.949 1.1094-44.121 2.0352-71.316 2.1289-4.7188-19.238-21.461-32.93-43.289-32.93-18.777 0-36.629 10.082-47.727 25.16-2.2188-2.9609-3.3281-6.5664-3.1445-10.266 0.83203-16.371 3.0508-37 6.4766-61.512 3.4219-24.512 7.0312-45.137 10.82-61.512 2.0352-8.5078 9.3438-14.891 18.035-15.816 13.781-1.2031 47.914-2.2188 76.219-2.2188 28.305 0 62.156 1.0156 75.57 2.2188 8.418 0.82812 14.152 7.4883 13.688 15.906zm59.848 159.37c-1.2969 9.0664-9.6211 16.371-18.684 16.371-9.0664 0-15.355-7.3086-14.059-16.371 1.2969-9.0664 9.6211-16.371 18.684-16.371s15.262 7.3984 14.059 16.371zm46.246-80.844c-2.9609 20.164-6.4766 40.145-8.7891 49.949-0.73828 2.8672-2.6836 5.2734-5.2734 6.5664-6.3828-16.094-21.828-27.008-41.438-27.008-11.379 0.09375-22.383 3.6055-31.82 9.9883 3.0508-14.336 6.2891-32.742 9.6211-56.516 2.4062-16.836 4.0703-30.984 5.1797-42.918 7.3984 0 16.188 0.09375 25.066 0.27734 9.25 0.18359 17.203 4.3477 22.105 11.656 9.8047 14.801 18.223 30.43 25.16 46.711 0.28125 0.37109 0.28125 0.92578 0.1875 1.293z"/>
 </g>
 <path d="m177.41 327.16c0 9.707-7.8672 17.574-17.574 17.574-9.7031 0-17.574-7.8672-17.574-17.574 0-9.707 7.8711-17.574 17.574-17.574 9.707 0 17.574 7.8672 17.574 17.574"/>
</svg>
