<?xml version="1.0" encoding="UTF-8"?>
<svg width="752pt" height="752pt" version="1.1" viewBox="0 0 752 752" xmlns="http://www.w3.org/2000/svg">
 <defs>
  <clipPath id="b">
   <path d="m299 440h313.79v8h-313.79z"/>
  </clipPath>
  <clipPath id="a">
   <path d="m139.21 221h66.789v67h-66.789z"/>
  </clipPath>
 </defs>
 <path d="m313.96 296.41c11.512 17.598 17.133 44.832 17.184 83.281 0 1.832-0.023438 3.7031-0.046876 5.5859 5.5703-4.332 12.562-6.918 20.164-6.918 18.16 0 32.879 14.723 32.879 32.883 0 0.21484-0.011719 0.42969-0.015625 0.64453h114.79c-0.003906-0.21484-0.015625-0.42578-0.015625-0.64453 0-18.16 14.719-32.883 32.879-32.883s32.879 14.723 32.879 32.883c0 0.21484-0.011718 0.42969-0.015624 0.64453h28.383l0.003906-64.477-41.262-74.785h-268.2v3.4883c3.1719 0.32031 7.5781 1.2383 12.434 3.6875 6.8203 3.4023 13.043 9.1523 17.957 16.609zm206.22 64.543h-25.145v-5.8008h25.145zm-30.945-75.43h54.922l31.504 57.098h-86.426z"/>
 <path d="m558.22 411.24c0-14.574-11.863-26.438-26.434-26.438-14.574 0-26.434 11.863-26.434 26.438 0 14.57 11.859 26.434 26.434 26.434 14.57 0 26.434-11.859 26.434-26.434zm-26.434 13.539c-7.4688 0-13.543-6.0742-13.543-13.539 0-7.4688 6.0742-13.543 13.543-13.543 7.4609 0 13.539 6.0742 13.539 13.543 0 7.4648-6.0742 13.539-13.539 13.539z"/>
 <path d="m325.75 418.04c3.0117 11.281 13.293 19.629 25.516 19.629 14.574 0 26.434-11.859 26.434-26.434s-11.863-26.438-26.434-26.438c-8.1992 0-15.535 3.7539-20.391 9.6328-0.13672 3.9961-0.31641 8.0703-0.5625 12.234-0.25 4.3398-1.9336 8.2734-4.5625 11.375zm25.516-20.348c7.4648 0 13.543 6.0742 13.543 13.543 0 7.4648-6.0781 13.539-13.543 13.539-7.4688 0-13.543-6.0742-13.543-13.539 0.003907-7.4688 6.0742-13.543 13.543-13.543z"/>
 <g clip-path="url(#b)">
  <path d="m517.27 440.74h-217.87v6.9141h313.39v-6.9141z"/>
 </g>
 <path d="m168.88 210.18c-5.957-1.3672-11.891 2.3555-13.254 8.3086 0 0.007813-0.015625 0.074219-0.039062 0.17188h21.629c-0.87109-4.0742-4.0078-7.4844-8.3359-8.4805z"/>
 <path d="m250.5 400.18h6.4102v124.82c0 9.4453 7.6562 17.094 17.094 17.094 9.4414 0 17.098-7.6523 17.098-17.094l0.003907-207.36c0.82031 1.6797 1.6445 3.6094 2.4609 5.8594 3.8984 10.801 7.1758 28.527 7.1641 56.195 0 7.625-0.24609 16-0.78125 25.199-0.35547 6.1055 4.3008 11.332 10.402 11.691 0.21875 0.011719 0.4375 0.019531 0.65234 0.019531 5.8164 0 10.691-4.5391 11.035-10.418 0.55469-9.5898 0.8125-18.391 0.81641-26.488-0.058594-41.738-6.7227-64.836-15.812-78.727-4.5469-6.8945-9.8594-11.316-14.77-13.766-4.7578-2.4023-8.9414-2.9297-11.426-2.9531-0.14453-0.003907-0.28516-0.023438-0.42969-0.023438h-16.219l-37.207-0.003906c-1.2617 0-2.4688 0.23047-3.5938 0.63281-2.5664 0.49609-8.1797 1.4531-15.051 1.9453v3.75h-58.105c0.17187 0.39062 0.34375 0.78125 0.54297 1.1797 1.0195 1.9805 2.543 4.1875 5.0742 5.9961 13.789 9.5977 30.281 11.414 44.074 11.504 6.0781-0.007813 11.688-0.42578 16.375-0.95313v216.72c0 9.4453 7.6562 17.094 17.094 17.094 7.3047 0 13.523-4.5898 15.973-11.035 0.71484-1.8828 1.125-3.9219 1.125-6.0625z"/>
 <path d="m306.97 233c0-5.4727-13.312-9.9102-29.73-9.9102-0.5625 0-1.1094 0.019531-1.6641 0.027344-5.6211-5.5586-13.344-8.9922-21.871-8.9922-17.184 0-31.113 13.93-31.113 31.113 0 17.184 13.93 31.113 31.113 31.113 15.766 0 28.773-11.719 30.82-26.922-2.8047-0.14453-5.7617-0.44531-8.8086-0.91797-15.93-2.4766-28.207-8.7188-27.855-14.062 2.1055 4.7852 14.438 8.4609 29.379 8.4609 11.273 0 21.082-2.0938 26.125-5.1758 2.2969-1.4062 3.6055-3.0195 3.6055-4.7344z"/>
 <g clip-path="url(#a)">
  <path d="m139.21 221.43h66.375v66.375h-66.375z"/>
 </g>
</svg>
