<?xml version="1.0" encoding="UTF-8"?>
<svg width="752pt" height="752pt" version="1.1" viewBox="0 0 752 752" xmlns="http://www.w3.org/2000/svg">
 <g>
  <path d="m376 198.15-229.39 61.176v233.36l227.48 60.656 1.9102 0.50781 229.39-61.172v-233.36zm0 118.39-39.723-10.598 193.27-51.539 39.723 10.602zm-128.52-34.273 193.27-51.539 60.078 16.02-193.27 51.539zm-19.469 10.129 66.598 17.758v33.957l-66.598-18.168zm184.02-69.328-193.27 51.539-36.027-9.6016 193.27-51.539zm-250.61 51.57 51.797 13.816v48.801l96.195 26.23v-49.387l59.199 15.785v206.67l-59.199-15.785v-54.227l-96.195-26.242v54.816l-51.797-13.816zm133.2 242.18-66.598-17.758v-39.375l66.598 18.16zm88.797 19.734v-206.67l207.19-55.254v206.67z"/>
  <path d="m560.99 457.4h14.801v14.801h-14.801z"/>
  <path d="m531.39 464.8h14.801v14.801h-14.801z"/>
  <path d="m501.8 472.2h14.801v14.801h-14.801z"/>
 </g>
</svg>
