<?xml version="1.0" encoding="UTF-8"?>
<svg width="752pt" height="752pt" version="1.1" viewBox="0 0 752 752" xmlns="http://www.w3.org/2000/svg">
 <g>
  <path d="m373.66 599.79c-1.1055 0-2.2109-0.24609-3.2383-0.74609l-219.64-106.92c-2.5469-1.2383-4.1641-3.8164-4.1641-6.6523v-215.75c0-2.5547 1.3164-4.9297 3.4805-6.2773 2.168-1.3555 4.8789-1.4922 7.1719-0.37109l219.64 107.55c2.5391 1.2422 4.1484 3.8203 4.1484 6.6445v215.11c0 2.5508-1.3125 4.9219-3.4727 6.2695-1.1953 0.75781-2.5625 1.1367-3.9258 1.1367zm-212.25-118.95 204.85 99.715v-198.66l-204.85-100.31z"/>
  <path d="m479.18 393.58c-1.3828 0-2.7617-0.38672-3.9609-1.1523-2.1367-1.3594-3.4375-3.7188-3.4375-6.25v-55.949l-208.38-107.57c-3.4102 1.125-7.2344-0.38672-8.9062-3.6953-1.8438-3.6484-0.38281-8.0938 3.2656-9.9414l1.418-0.71484c0.59375-0.41406 1.2344-0.73828 1.918-0.96875l42.004-21.227c2.1133-1.0703 4.6172-1.0586 6.7266 0.027344l217.3 112.01c2.4648 1.2695 4.0078 3.8086 4.0078 6.5781v60.461c0 2.8633-1.6523 5.4727-4.2422 6.6914l-44.555 21.004c-1.0039 0.46875-2.082 0.70312-3.1562 0.70312zm-199.39-179.12 202.78 104.68c2.4609 1.2695 4.0078 3.8086 4.0078 6.5742v48.789l29.754-14.027v-51.25l-209.94-108.21z"/>
  <path d="m523.74 312.29c-1.3711 0-2.7383-0.38281-3.9336-1.1328-0.24609-0.15625-0.48828-0.32422-0.71484-0.51172l-215.95-111.31c-2.4727-1.2773-4.0234-3.8281-4.0078-6.6133 0.011719-2.7773 1.582-5.3203 4.0664-6.5742l69.473-35.051c2.0898-1.0547 4.5625-1.0547 6.6523-0.007812l221.99 111.37c2.5195 1.2656 4.1016 3.8516 4.082 6.6719-0.023438 2.8203-1.6445 5.3828-4.1836 6.6094l-74.258 35.812c-1.0273 0.49219-2.125 0.73438-3.2188 0.73438zm-200.92-119.46 201.2 103.71 57.211-27.594-205.22-102.95z"/>
  <path d="m373.66 384.68c-1.1133 0-2.2266-0.25-3.2539-0.75391l-219.64-107.56c-2.5273-1.2344-4.1328-3.793-4.1484-6.5977-0.015625-2.8086 1.5586-5.3828 4.0664-6.6484l109.58-55.289c2.1172-1.0703 4.6211-1.0586 6.7266 0.03125l215.59 111.3c2.4609 1.2695 4.0078 3.8086 4.0078 6.5742v0.66016c0 2.8398-1.625 5.4297-4.1836 6.6641l-105.53 50.887c-1.0195 0.48828-2.1172 0.73438-3.2148 0.73438zm-203.02-115.05 203.05 99.43 89.59-43.207-199.72-103.11z"/>
  <path d="m374.44 601.69c-1.3672 0-2.7266-0.38281-3.9258-1.1289-2.1602-1.3516-3.4727-3.7227-3.4727-6.2695l-0.003907-217.66c0-2.8359 1.6172-5.418 4.1641-6.6562l104.74-50.914c3.6719-1.7891 8.1016-0.25781 9.8906 3.418 1.7852 3.6758 0.25391 8.1016-3.418 9.8906l-100.58 48.895v201.19l208.75-101.62v-200l-63.656 30.555c-3.6797 1.7695-8.1016 0.21484-9.8711-3.4688-1.7695-3.6836-0.21484-8.1016 3.4688-9.8711l74.258-35.641c2.2891-1.0938 4.9922-0.94531 7.1406 0.40625 2.1523 1.3555 3.4609 3.7188 3.4609 6.2656v216.38c0 2.8359-1.6172 5.4141-4.1641 6.6523l-223.55 108.83c-1.0273 0.5-2.1367 0.74219-3.2383 0.74219z"/>
  <path d="m319.84 520.72c-1.1055 0-2.2109-0.24609-3.2383-0.74609l-112.01-54.523c-2.5469-1.2383-4.1641-3.8164-4.1641-6.6523l0.003907-110.02c0-2.5547 1.3164-4.9297 3.4805-6.2773 2.168-1.3555 4.8789-1.4922 7.1719-0.37109l112 54.852c2.5391 1.2422 4.1484 3.8164 4.1484 6.6445v109.69c0 2.5508-1.3125 4.9219-3.4727 6.2695-1.1953 0.75391-2.5586 1.1328-3.9258 1.1328zm-104.61-66.551 97.211 47.316v-93.246l-97.211-47.598z"/>
 </g>
</svg>
