<?xml version="1.0" encoding="UTF-8"?>
<svg width="752pt" height="752pt" version="1.1" viewBox="0 0 752 752" xmlns="http://www.w3.org/2000/svg">
 <g>
  <path d="m238.66 455.56c0-0.85156 0-1.6562 0.33203-2.4609h-35.852v14.586h35.852c0-0.80469-0.23828-1.7031-0.37891-2.5586-0.14063-0.85156 0-0.66406 0-0.99609v0.003907c-0.26953-2.5391-0.25391-5.0938 0.046874-7.625-0.019531-0.31641-0.019531-0.63281 0-0.94922z"/>
  <path d="m319.6 465.22c-0.046875 0.71875-0.14453 1.4297-0.28516 2.1328h109.26v-14.398h-109.4c0 0.85156 0 1.7031 0.37891 2.5586 0.37891 0.85156 0 0.66406 0 0.99609 0.070313 1.1953 0.070313 2.3984 0 3.5977 0.070313 1.1992 0.070313 2.4023 0 3.5977 0.042969 0.50391 0.058594 1.0117 0.046875 1.5156z"/>
  <path d="m251.69 430.18c0.75781-0.71094 1.5625-1.3242 2.3203-1.9414 0.75781-0.61719 1.5156-1.2305 2.3203-1.7539 0.80469-0.51953 1.8477-1.1367 2.793-1.6562 0.94531-0.51953 1.5156-0.89844 2.3672-1.3242 0.85156-0.42578 2.1328-0.89844 3.2188-1.3242l2.3672-0.89844 0.003906-0.003906c1.2734-0.37891 2.5703-0.67969 3.8828-0.90234 0.66406 0 1.3242-0.37891 2.0352-0.47266 4.082-0.63281 8.2344-0.63281 12.316 0 0.71094 0 1.3242 0.33203 2.0352 0.47266 1.332 0.22266 2.6445 0.53906 3.9297 0.94922l2.2266 0.80469c1.1367 0.47266 2.2734 0.85156 3.3633 1.4219 1.0898 0.56641 1.4688 0.80469 2.2266 1.1836s1.9883 1.1367 2.9375 1.8008c0.94531 0.66406 1.375 1.043 2.082 1.5625l2.6055 2.1797-0.003906-0.003906c0.65234 0.59766 1.2695 1.2305 1.8477 1.8945 0.75781 0.80469 1.5156 1.6094 2.2266 2.5117 0.71094 0.89844 1.0898 1.4219 1.6094 2.1328 0.51953 0.71094 1.2305 1.8945 1.8008 2.8398 0.56641 0.94531 0.89844 1.6094 1.3242 2.4141l0.75781 1.4219h112.29v-183.09h-225.43v183.09h38.883l0.75781-1.375c0.42578-0.89844 0.89844-1.7539 1.4219-2.6523 0.51953-0.89844 1.043-1.6562 1.6094-2.5117l1.8008-2.4609c0.61719-0.75781 1.2773-1.4688 1.9414-2.1797 0.66016-0.70703 1.418-1.4648 2.1289-2.1289z"/>
  <path d="m531.67 465.22-0.28516 2.1328h17.523v-62.512h-67.484c-2.6172 0-4.7383-2.1211-4.7383-4.7383v-48.113c0-2.6172 2.1211-4.7383 4.7383-4.7383h29.742l-7.957-9.8984h-65.168v130.19h13.023c-0.17578-0.84375-0.30078-1.6953-0.37891-2.5547v-0.99609-3.5977c-0.375-11.062 3.7539-21.805 11.445-29.762 7.6953-7.957 18.289-12.453 29.355-12.453s21.66 4.4961 29.352 12.453c7.6953 7.957 11.824 18.699 11.445 29.762v3.5977c0 1.1836-0.56641 0.75781-0.61328 1.2305z"/>
  <path d="m520.63 470.72c1.2656-3.3438 1.9102-6.8906 1.8945-10.469 0.33203-8.5195-2.8203-16.805-8.7305-22.949-5.9141-6.1445-14.07-9.6172-22.598-9.6172-8.5273 0-16.684 3.4727-22.594 9.6172-5.9102 6.1445-9.0625 14.43-8.7344 22.949-0.03125 3.5742 0.59375 7.1211 1.8477 10.469 2.8398 8.2227 8.9844 14.887 16.957 18.375 7.9688 3.4922 17.035 3.4922 25.004 0 7.9688-3.4883 14.113-10.152 16.953-18.375z"/>
  <path d="m548.86 394.19-30.074-37.461h-32.629v38.645h62.703z"/>
  <path d="m279.15 491.6c6.4688 0.011719 12.777-1.9922 18.047-5.7344 5.2734-3.7461 9.2461-9.0391 11.363-15.148 1.3008-3.3359 1.9609-6.8867 1.9414-10.469 0.027344-3.5273-0.61328-7.0312-1.8945-10.324-2.8359-8.2227-8.9844-14.887-16.953-18.375-7.9688-3.4922-17.035-3.4922-25.004 0-7.9688 3.4883-14.117 10.152-16.953 18.375-1.2656 3.3477-1.9062 6.8945-1.8945 10.469-0.023438 3.5273 0.61719 7.0312 1.8945 10.324 2.125 6.1133 6.1055 11.406 11.387 15.152 5.2812 3.7422 11.598 5.7461 18.066 5.7305z"/>
 </g>
</svg>
