<?xml version="1.0" encoding="UTF-8"?>
<svg width="752pt" height="752pt" version="1.1" viewBox="0 0 752 752" xmlns="http://www.w3.org/2000/svg">
 <g>
  <path d="m312.45 292.7-12.219 45.793v0.51953 0.003906c-0.019531 0.23438-0.019531 0.47266 0 0.71094v118.39c0 1.2539 0.5 2.4609 1.3906 3.3477 0.88672 0.88672 2.0898 1.3867 3.3477 1.3867h142.07c1.2539 0 2.4609-0.5 3.3477-1.3867 0.89062-0.88672 1.3867-2.0938 1.3867-3.3477v-118.39c0.023437-0.23828 0.023437-0.47656 0-0.71094v-0.51953l-12.078-45.797h0.003907c-0.55469-2.1484-2.5234-3.6211-4.7383-3.5508h-117.97c-2.1445 0.015624-4.0078 1.4727-4.5469 3.5508zm118.87 5.918 9.4727 36.371h-47.828l-1.6562-36.371zm-61.094 0h11.555l1.7031 36.371h-14.957zm-1.8945 45.844h15.391v17.758h-15.387zm20.129 27.23h0.003906c1.2539 0 2.4609-0.5 3.3477-1.3867 0.89062-0.88672 1.3867-2.0938 1.3867-3.3477v-22.496h49.113v108.92h-132.61v-108.92h49.16v22.496c0 1.2539 0.49609 2.4609 1.3867 3.3477 0.88672 0.88672 2.0898 1.3867 3.3477 1.3867zm-27.75-73.074-1.6562 36.371h-47.926l9.4727-36.371z"/>
  <path d="m376 262.34c1.2578 0 2.4609-0.5 3.3516-1.3906 0.88672-0.88672 1.3867-2.0898 1.3867-3.3477v-59.625l12.266 12.27 3.3164 3.3633-0.003906-0.003906c0.89062 0.89844 2.1016 1.4023 3.3633 1.4023 1.2617 0 2.4727-0.50391 3.3633-1.4023 0.89453-0.88672 1.4023-2.0977 1.4023-3.3594 0-1.2656-0.50781-2.4766-1.4023-3.3633l-23.68-23.68c-0.46094-0.41797-0.98828-0.75391-1.5625-0.99609-1.1445-0.50391-2.4531-0.50391-3.5977 0-0.57422 0.24219-1.1055 0.57812-1.5625 0.99609l-23.68 23.68c-1.8594 1.8555-1.8594 4.8672 0 6.7227 1.8555 1.8594 4.8672 1.8594 6.7227 0l3.3164-3.3633 12.266-12.266v59.625c0 1.2578 0.5 2.4609 1.3867 3.3477 0.88672 0.89062 2.0938 1.3906 3.3477 1.3906z"/>
  <path d="m372.64 568.8c0.45703 0.41797 0.98828 0.75391 1.5625 0.99219 1.1445 0.50781 2.4531 0.50781 3.5977 0 0.57422-0.23828 1.1016-0.57422 1.5625-0.99219l23.68-23.68c1.8555-1.8555 1.8555-4.8672 0-6.7266-1.8555-1.8555-4.8672-1.8555-6.7266 0l-3.3164 3.3633-12.262 12.266v-59.621c0-2.6172-2.1211-4.7383-4.7383-4.7383-2.6133 0-4.7344 2.1211-4.7344 4.7383v59.621l-12.266-12.266-3.3164-3.3633c-1.8555-1.8555-4.8672-1.8555-6.7227 0-1.8594 1.8594-1.8594 4.8711 0 6.7266z"/>
  <path d="m568.8 379.36c0.41797-0.46094 0.75391-0.98828 0.99219-1.5625 0.50781-1.1445 0.50781-2.4531 0-3.5977-0.23828-0.57422-0.57422-1.1055-0.99219-1.5625l-23.68-23.68c-1.8555-1.8594-4.8672-1.8594-6.7266 0-1.8555 1.8555-1.8555 4.8672 0 6.7227l3.3633 3.3164 12.266 12.266h-59.621c-2.6172 0-4.7383 2.1211-4.7383 4.7344 0 2.6172 2.1211 4.7383 4.7383 4.7383h59.621l-12.266 12.266-3.3633 3.3164v-0.003906c-0.89453 0.89062-1.3984 2.1016-1.3984 3.3633 0 1.2617 0.50391 2.4727 1.3984 3.3633 0.89062 0.89453 2.1016 1.4023 3.3633 1.4023 1.2617 0 2.4727-0.50781 3.3633-1.4023z"/>
  <path d="m183.21 379.36 23.68 23.68c0.88672 0.89453 2.0977 1.4023 3.3633 1.4023 1.2617 0 2.4727-0.50781 3.3594-1.4023 0.89844-0.89062 1.4023-2.1016 1.4023-3.3633 0-1.2617-0.50391-2.4727-1.4023-3.3633l-3.3633-3.3164-12.266-12.262h59.625c2.6172 0 4.7383-2.1211 4.7383-4.7383 0-2.6133-2.1211-4.7344-4.7383-4.7344h-59.625l12.27-12.266 3.3633-3.3164h-0.003906c1.8594-1.8555 1.8594-4.8672 0-6.7227-1.8555-1.8594-4.8672-1.8594-6.7227 0l-23.68 23.68c-0.41797 0.45703-0.75391 0.98828-0.99609 1.5625-0.24219 0.56641-0.37109 1.1797-0.37891 1.7969 0.007813 0.62109 0.13672 1.2305 0.37891 1.8008 0.24219 0.57422 0.57812 1.1016 0.99609 1.5625z"/>
  <path d="m489.66 263.81c1.8477 1.8359 4.832 1.8359 6.6797 0l42.148-42.148v22.07c0 2.6172 2.1172 4.7344 4.7344 4.7344 2.6172 0 4.7344-2.1172 4.7344-4.7344v-33.48c0.007813-0.61719-0.10156-1.2305-0.32812-1.8008-0.24219-0.58594-0.59375-1.1172-1.043-1.5625-0.45313-0.40625-0.96484-0.74219-1.5156-0.99609-0.59766-0.25391-1.2422-0.38281-1.8945-0.37891h-33.484c-2.6133 0-4.7344 2.1211-4.7344 4.7383 0 2.6133 2.1211 4.7344 4.7344 4.7344h22.07l-8.668 8.668-33.434 33.48c-1.8359 1.8477-1.8359 4.832 0 6.6758z"/>
  <path d="m262.34 489.66c-1.8477-1.8359-4.832-1.8359-6.6797 0l-42.102 42.102v-22.07c0-2.6133-2.1211-4.7344-4.7344-4.7344-2.6172 0-4.7383 2.1211-4.7383 4.7344v33.484c-0.011719 0.63281 0.10156 1.2578 0.33203 1.8477 0.51172 1.1367 1.4219 2.0469 2.5586 2.5547 0.59375 0.21094 1.2188 0.32422 1.8477 0.33203h33.48c2.6172 0 4.7383-2.1211 4.7383-4.7344 0-2.6172-2.1211-4.7344-4.7383-4.7344h-22.066l8.668-8.668 33.434-33.484c1.8047-1.8398 1.8047-4.7852 0-6.6289z"/>
  <path d="m514.43 538.44h-4.7383c-2.6133 0-4.7344 2.1172-4.7344 4.7344 0 2.6133 2.1211 4.7344 4.7344 4.7344h33.484c0.62891-0.007812 1.2539-0.12109 1.8477-0.33203 1.1367-0.50781 2.0469-1.418 2.5547-2.5547 0.23438-0.58984 0.34766-1.2148 0.33203-1.8477v-33.484c0-2.6133-2.1211-4.7344-4.7344-4.7344-2.6172 0-4.7344 2.1211-4.7344 4.7344v22.07l-8.668-8.668-33.484-33.434c-0.82031-1.0977-2.082-1.7852-3.4492-1.8828-1.3711-0.097656-2.7148 0.40625-3.6875 1.375-0.96875 0.97266-1.4727 2.3164-1.375 3.6875 0.097656 1.3672 0.78516 2.6289 1.8828 3.4492l42.148 42.148z"/>
  <path d="m262.34 257.13-33.48-33.48-8.6211-8.668h22.07-0.003906c2.6172 0 4.7383-2.1211 4.7383-4.7344 0-2.6172-2.1211-4.7383-4.7383-4.7383h-33.48c-0.63672 0-1.2656 0.12891-1.8477 0.37891-0.55469 0.25391-1.0625 0.58984-1.5156 0.99609-0.44922 0.44531-0.80078 0.97656-1.043 1.5625-0.22656 0.57031-0.33594 1.1836-0.33203 1.8008v33.48c0 2.6172 2.1211 4.7344 4.7383 4.7344 2.6133 0 4.7344-2.1172 4.7344-4.7344v-22.07l42.148 42.148c1.8477 1.8359 4.832 1.8359 6.6797 0 1.8203-1.8594 1.8008-4.8438-0.046875-6.6758z"/>
 </g>
</svg>
