<?xml version="1.0" encoding="UTF-8" standalone="no"?>
<svg
   width="752pt"
   height="752pt"
   version="1.1"
   viewBox="0 0 752 752"
   id="svg4"
   sodipodi:docname="distribuidor1.svg"
   xml:space="preserve"
   inkscape:version="1.2 (dc2aedaf03, 2022-05-15)"
   xmlns:inkscape="http://www.inkscape.org/namespaces/inkscape"
   xmlns:sodipodi="http://sodipodi.sourceforge.net/DTD/sodipodi-0.dtd"
   xmlns="http://www.w3.org/2000/svg"
   xmlns:svg="http://www.w3.org/2000/svg"><defs
     id="defs8"><clipPath
       clipPathUnits="userSpaceOnUse"
       id="clipPath2350"><path
         d="m 139.21,220.99997 h 66.789 v 67.00005 H 139.21 Z"
         id="path2352"
         style="stroke-width:0.999998" /></clipPath><clipPath
       clipPathUnits="userSpaceOnUse"
       id="clipPath2356"><path
         d="M 298.99998,439.99997 H 612.79 V 448 H 298.99998 Z"
         id="path2358"
         style="stroke-width:0.999998" /></clipPath><clipPath
       clipPathUnits="userSpaceOnUse"
       id="clipPath2362"><path
         d="M 139.21001,245 H 612.78994 V 509 H 139.21001 Z"
         id="path2364"
         style="stroke-width:0.999998" /></clipPath></defs><sodipodi:namedview
     id="namedview6"
     pagecolor="#505050"
     bordercolor="#eeeeee"
     borderopacity="1"
     inkscape:showpageshadow="0"
     inkscape:pageopacity="0"
     inkscape:pagecheckerboard="0"
     inkscape:deskcolor="#505050"
     inkscape:document-units="pt"
     showgrid="false"
     inkscape:zoom="0.9005984"
     inkscape:cx="543.5275"
     inkscape:cy="459.69435"
     inkscape:window-width="1835"
     inkscape:window-height="1057"
     inkscape:window-x="-8"
     inkscape:window-y="-8"
     inkscape:window-maximized="1"
     inkscape:current-layer="svg4" /><path
     d="m 289.0597,182.66385 -3.3525,-1.93315 c -0.55177,0.5293 -1.30475,0.854 -2.13525,0.854 -1.7075,0 -3.09475,-1.38625 -3.09475,-3.09475 0,-1.7095 1.38725,-3.09575 3.09475,-3.09575 1.71237,0 3.09475,1.38625 3.09475,3.09575 0,0.2505 -0.0258,0.49465 -0.0825,0.729 l 3.34713,1.93315 c -0.43897,0.4067 -0.73779,0.93015 -0.87159,1.51175 z m 0.8711,17.24998 -3.34713,1.93462 c 0.0566,0.23243 0.0825,0.47608 0.0825,0.72705 0,1.71 -1.38238,3.09475 -3.09475,3.09475 -1.7075,0 -3.09475,-1.38475 -3.09475,-3.09475 0,-1.7095 1.38725,-3.09475 3.09475,-3.09475 0.83007,0 1.5835,0.32423 2.13525,0.85351 l 3.3525,-1.93362 c 0.13427,0.58154 0.4331,1.10547 0.87158,1.51312 z m 29.87499,-1.51313 3.34763,1.93313 c 0.55664,-0.52784 1.3105,-0.85352 2.13525,-0.85352 1.71237,0 3.09475,1.38575 3.09475,3.09475 0,1.71 -1.38238,3.09475 -3.09475,3.09475 -1.7075,0 -3.09475,-1.38475 -3.09475,-3.09475 0,-0.25097 0.0308,-0.49511 0.0874,-0.72802 l -3.34763,-1.93363 c 0.43897,-0.40722 0.73779,-0.93115 0.87208,-1.51275 z m -0.87158,-17.25 3.34762,-1.9346 c -0.0566,-0.23245 -0.0874,-0.4766 -0.0874,-0.72705 0,-1.7095 1.38725,-3.09575 3.09475,-3.09575 1.71238,0 3.09475,1.38625 3.09475,3.09575 0,1.7085 -1.38237,3.09475 -3.09475,3.09475 -0.8252,0 -1.57812,-0.32425 -2.12987,-0.85305 l -3.3525,1.93365 c -0.13525,-0.58205 -0.43409,-1.106 -0.87257,-1.51365 z m -13.6275,-11.73485 v 3.8681 c -0.57227,-0.17575 -1.17578,-0.17575 -1.75388,0 v -3.8681 c -1.27875,-0.37795 -2.21825,-1.5645 -2.21825,-2.96925 0,-1.7095 1.38725,-3.09575 3.09475,-3.09575 1.71238,0 3.09475,1.38625 3.09475,3.09575 10e-4,1.40475 -0.93261,2.59085 -2.21725,2.96925 z m -0.2373,5.666 4.22412,2.4395 -13.69875,7.90875 v 5.86185 c 0,0.2344 0.11817,0.43555 0.31983,0.55275 l 3.17775,1.8335 c 0.0982,0.0586 0.21631,0.0586 0.31933,0 0.0981,-0.0586 0.15967,-0.1592 0.15967,-0.27635 v -5.67675 l 13.7,-7.91015 4.22412,2.4395 c 0.40284,0.2344 0.63476,0.63625 0.63476,1.105 v 14.34625 c 0,0.46824 -0.23193,0.87009 -0.63476,1.10495 l -12.42525,7.17288 c -0.40771,0.23291 -0.87207,0.23291 -1.27387,0 l -12.42525,-7.17288 c -0.40771,-0.23486 -0.63965,-0.63721 -0.63965,-1.10495 v -14.34625 c 0,-0.46875 0.23194,-0.8706 0.63965,-1.105 l 12.42525,-7.17335 c 0.40283,-0.2339 0.86621,-0.2339 1.27387,0 z m -0.63965,42.63123 c -1.7075,0 -3.09475,-1.38575 -3.09475,-3.09575 0,-1.40525 0.93847,-2.59038 2.21825,-2.96925 v -3.86813 c 0.57763,0.17676 1.18163,0.17676 1.75387,0 v 3.86863 c 1.28463,0.37792 2.21825,1.564 2.21825,2.96925 0,1.7095 -1.38325,3.09525 -3.09575,3.09525 z"
     fill-rule="evenodd"
     id="path386"
     style="fill:#92bcce;fill-opacity:1;stroke-width:0.125" /><g
     id="g4787"
     transform="matrix(0.125,0,0,0.125,306.0134,392.04431)"
     style="fill:#92bcce;fill-opacity:1"><path
       style="fill:#92bcce;fill-opacity:1;stroke:#0830d0;stroke-width:3;stroke-linecap:round;stroke-linejoin:round;stroke-dasharray:none;stroke-opacity:1;paint-order:stroke markers fill"
       d="m 1137.1377,-939.44971 c -2.6133,0 -4.7344,2.12157 -4.7344,4.73877 v 59.6206 l -12.2651,-12.26513 -3.3164,-3.36329 c -1.8555,-1.85549 -4.8682,-1.85549 -6.7237,0 -1.8594,1.8594 -1.8594,4.87107 0,6.72657 l 23.6807,23.6792 c 0.457,0.41797 0.9888,0.75488 1.563,0.99316 1.1445,0.50781 2.4531,0.50781 3.5977,0 0.5742,-0.23828 1.1006,-0.57519 1.5615,-0.99316 l 23.6806,-23.6792 c 1.8555,-1.8555 1.8555,-4.86717 0,-6.72657 -1.8555,-1.85549 -4.8671,-1.85549 -6.7265,0 l -3.3164,3.36329 -12.2622,12.26513 v -59.6206 c 0,-2.6172 -2.1216,-4.73877 -4.7388,-4.73877 z"
       id="path4770" /><path
       style="fill:#92bcce;fill-opacity:1;stroke:#0830d0;stroke-width:3;stroke-linecap:round;stroke-linejoin:round;stroke-dasharray:none;stroke-opacity:1;paint-order:stroke markers fill"
       d="m 1020.1392,-940.8296 c -1.208,0 -2.416,0.45901 -3.3399,1.37696 l -42.10252,42.10254 v -22.0708 c 0,-2.6133 -2.12108,-4.73438 -4.73438,-4.73438 -2.6172,0 -4.73877,2.12108 -4.73877,4.73438 v 33.48486 c -0.0117,0.63281 0.10205,1.25727 0.33252,1.84717 0.51172,1.1367 1.42239,2.04689 2.55908,2.55468 0.59375,0.21094 1.21827,0.32471 1.84717,0.33252 h 33.4805 c 2.6172,0 4.7373,-2.12107 4.7373,-4.73437 0,-2.6172 -2.1201,-4.73438 -4.7373,-4.73438 h -22.06644 l 8.66749,-8.66894 33.43505,-33.4834 c 1.8047,-1.8398 1.8047,-4.78472 0,-6.62842 v -10e-4 c -0.9238,-0.91795 -2.1318,-1.37696 -3.3398,-1.37696 z"
       id="path4768" /><path
       style="fill:#92bcce;fill-opacity:1;stroke:#0830d0;stroke-width:3;stroke-linecap:round;stroke-linejoin:round;stroke-dasharray:none;stroke-opacity:1;paint-order:stroke markers fill"
       d="m 1253.4668,-941.34522 c -1.189,0.0443 -2.3247,0.53516 -3.1758,1.38281 -0.9687,0.97266 -1.4732,2.31738 -1.3755,3.68848 0.098,1.3672 0.7862,2.62794 1.8838,3.44824 l 42.148,42.14795 -17.3789,0.006 h -4.7388 c -2.6133,0 -4.7344,2.11718 -4.7344,4.73437 0,2.6133 2.1211,4.73438 4.7344,4.73438 h 33.4849 c 0.6289,-0.008 1.2533,-0.12158 1.8471,-0.33252 1.1367,-0.50781 2.0469,-1.41799 2.5547,-2.55469 0.2344,-0.58984 0.3482,-1.21427 0.3325,-1.84717 v -33.48486 c 0,-2.6133 -2.121,-4.73437 -4.7343,-4.73437 -2.6172,0 -4.7344,2.12107 -4.7344,4.73437 v 22.0708 l -8.6675,-8.66894 -33.4849,-33.4336 c -0.8203,-1.0977 -2.0825,-1.78472 -3.4497,-1.88232 -0.1714,-0.0122 -0.3413,-0.0151 -0.5112,-0.009 z"
       id="path4766" /><path
       style="fill:#92bcce;fill-opacity:1;stroke:#0830d0;stroke-width:3;stroke-linecap:round;stroke-linejoin:round;stroke-dasharray:none;stroke-opacity:1;paint-order:stroke markers fill"
       d="m 1302.8965,-1081.5498 c -1.2173,0 -2.4351,0.4648 -3.3648,1.3945 -1.8555,1.8555 -1.8555,4.8667 0,6.7222 l 3.3633,3.3164 12.2666,12.2666 h -59.6206 c -2.6172,0 -4.7388,2.1211 -4.7388,4.7344 0,2.6172 2.1216,4.7387 4.7388,4.7387 h 59.6206 l -12.2666,12.2652 -3.3633,3.3164 c -0.8945,0.8906 -1.3974,2.1016 -1.3974,3.3633 0,1.2617 0.5029,2.4726 1.3974,3.3632 0.8906,0.8945 2.1016,1.4034 3.3633,1.4034 1.2617,0 2.4727,-0.5089 3.3633,-1.4034 l 23.6807,-23.6835 c 0.418,-0.4609 0.7534,-0.9888 0.9917,-1.563 0.5078,-1.1445 0.5078,-2.4531 0,-3.5977 -0.2383,-0.5742 -0.5737,-1.1045 -0.9917,-1.5615 l -23.6807,-23.6807 c -0.9277,-0.9297 -2.1445,-1.3945 -3.3618,-1.3945 z"
       id="path4764" /><path
       style="fill:#92bcce;fill-opacity:1;stroke:#0830d0;stroke-width:3;stroke-linecap:round;stroke-linejoin:round;stroke-dasharray:none;stroke-opacity:1;paint-order:stroke markers fill"
       d="m 971.39063,-1081.5498 c -1.2168,0 -2.43407,0.4648 -3.36182,1.3945 l -23.68067,23.6807 c -0.41797,0.457 -0.75391,0.9873 -0.99609,1.5615 -0.24219,0.5664 -0.37011,1.1802 -0.37793,1.7974 0.008,0.6211 0.13574,1.23 0.37793,1.8003 0.24219,0.5742 0.57812,1.1021 0.99609,1.563 l 23.68067,23.6806 c 0.88672,0.8945 2.09768,1.4019 3.36328,1.4019 1.2617,0 2.47219,-0.5074 3.35889,-1.4019 0.89844,-0.8906 1.40332,-2.1016 1.40332,-3.3633 0,-1.2617 -0.50493,-2.4726 -1.40332,-3.3632 l -3.36328,-3.3165 -12.26514,-12.2622 h 59.62504 c 2.6172,0 4.7373,-2.1215 4.7373,-4.7387 0,-2.6133 -2.1201,-4.7344 -4.7373,-4.7344 h -59.62504 l 12.26953,-12.2666 3.36328,-3.3164 h -0.004 c 1.85939,-1.8555 1.85939,-4.8667 0,-6.7222 -0.92775,-0.9297 -2.14356,-1.3945 -3.36035,-1.3945 z"
       id="path4762" /><path
       style="fill:#92bcce;fill-opacity:1;stroke:none;stroke-width:3;stroke-linecap:round;stroke-linejoin:round;stroke-dasharray:none;stroke-opacity:1;paint-order:stroke markers fill"
       d="m 1129.4707,-1084.6509 h 15.3911 v 17.7583 h -15.3882 z"
       id="path4760" /><path
       style="fill:#92bcce;fill-opacity:1;stroke:none;stroke-width:3;stroke-linecap:round;stroke-linejoin:round;stroke-dasharray:none;stroke-opacity:1;paint-order:stroke markers fill"
       d="m 1070.8359,-1084.6509 h 49.1602 v 22.4956 c 0,1.2539 0.4966,2.4619 1.3872,3.3487 0.8867,0.8867 2.0893,1.3857 3.3472,1.3857 h 24.8686 c 1.2539,0 2.4604,-0.499 3.3472,-1.3857 0.8906,-0.8867 1.3872,-2.0948 1.3872,-3.3487 v -22.4956 h 49.1133 v 108.91994 h -132.6109 z"
       id="path4758" /><path
       style="fill:#92bcce;fill-opacity:1;stroke:none;stroke-width:3;stroke-linecap:round;stroke-linejoin:round;stroke-dasharray:none;stroke-opacity:1;paint-order:stroke markers fill"
       d="m 1152.4468,-1130.4946 h 40.0122 l 9.4717,36.3706 h -47.8272 z"
       id="path4756" /><path
       style="fill:#92bcce;fill-opacity:1;stroke:none;stroke-width:3;stroke-linecap:round;stroke-linejoin:round;stroke-dasharray:none;stroke-opacity:1;paint-order:stroke markers fill"
       d="m 1131.3647,-1130.4946 h 11.5547 l 1.7036,36.3706 h -14.9575 z"
       id="path4754" /><path
       style="fill:#92bcce;fill-opacity:1;stroke:none;stroke-width:3;stroke-linecap:round;stroke-linejoin:round;stroke-dasharray:none;stroke-opacity:1;paint-order:stroke markers fill"
       d="m 1081.7402,-1130.4946 h 40.1089 l -1.6567,36.3706 h -47.9253 z"
       id="path4752" /><path
       style="fill:#92bcce;fill-opacity:1;stroke:none;stroke-width:3;stroke-linecap:round;stroke-linejoin:round;stroke-dasharray:none;stroke-opacity:1;paint-order:stroke markers fill"
       d="m 1078.1265,-1139.9678 c -2.1445,0.016 -4.0078,1.4727 -4.5469,3.5508 h 0.01 l -12.2183,45.7925 v 0.52 c -0.019,0.2344 -0.019,0.4736 0,0.7119 v 118.38868 c 0,1.2539 0.4996,2.46184 1.3902,3.34864 0.8867,0.88671 2.0892,1.38574 3.3471,1.38574 h 142.0708 c 1.2539,0 2.4604,-0.49905 3.3472,-1.38574 0.8906,-0.88672 1.3872,-2.09474 1.3872,-3.34864 v -118.38868 c 0.023,-0.2383 0.023,-0.4775 0,-0.7119 v -0.52 l -12.0776,-45.7969 c -0.5547,-2.1484 -2.5239,-3.6211 -4.7388,-3.5508 z"
       id="path4750" /><path
       style="fill:#92bcce;fill-opacity:1;stroke:#0830d0;stroke-width:3;stroke-linecap:round;stroke-linejoin:round;stroke-dasharray:none;stroke-opacity:1;paint-order:stroke markers fill"
       d="m 1270.8296,-1223.5986 c -2.6133,0 -4.7344,2.1215 -4.7344,4.7387 0,2.6133 2.1211,4.7344 4.7344,4.7344 h 22.0708 l -8.669,8.6675 -33.4335,33.4805 c -1.8359,1.8477 -1.8359,4.8315 0,6.6752 v 0 c 1.8477,1.8359 4.832,1.8359 6.6797,0 l 42.148,-42.1479 v 22.0693 c 0,2.6172 2.1171,4.7344 4.7343,4.7344 2.6172,0 4.7344,-2.1172 4.7344,-4.7344 v -33.479 c 0.01,-0.6172 -0.1016,-1.2314 -0.3281,-1.8017 -0.2422,-0.5859 -0.5938,-1.1163 -1.043,-1.5616 -0.4531,-0.4062 -0.9654,-0.7421 -1.5161,-0.996 -0.5977,-0.2539 -1.2417,-0.3833 -1.894,-0.3794 z"
       id="path4748" /><path
       style="fill:#92bcce;fill-opacity:1;stroke:#0830d0;stroke-width:3;stroke-linecap:round;stroke-linejoin:round;stroke-dasharray:none;stroke-opacity:1;paint-order:stroke markers fill"
       d="m 969.9668,-1223.5986 c -0.63672,0 -1.26507,0.1294 -1.84717,0.3794 -0.55469,0.2539 -1.06301,0.5898 -1.51611,0.9961 -0.44922,0.4453 -0.80075,0.9756 -1.04297,1.5615 -0.22656,0.5703 -0.33497,1.1845 -0.33106,1.8017 v 33.479 c 0,2.6172 2.12011,4.7344 4.73731,4.7344 2.61329,0 4.73437,-2.1172 4.73437,-4.7344 v -22.0693 l 42.14943,42.148 c 1.8477,1.8359 4.832,1.8359 6.6797,0 1.8203,-1.8594 1.7994,-4.8433 -0.048,-6.6753 v 0 l -33.48046,-33.4805 -8.62061,-8.6675 h 22.06937 c 2.6172,0 4.7387,-2.1211 4.7387,-4.7344 0,-2.6172 -2.1215,-4.7387 -4.7387,-4.7387 z"
       id="path4746" /><path
       style="fill:#92bcce;fill-opacity:1;stroke:#0830d0;stroke-width:3;stroke-linecap:round;stroke-linejoin:round;stroke-dasharray:none;stroke-opacity:1;paint-order:stroke markers fill"
       d="m 1137.145,-1247.2749 c -0.6133,0 -1.2265,0.126 -1.7988,0.3779 -0.5742,0.2422 -1.106,0.5781 -1.563,0.9961 l -23.6807,23.6807 c -1.8594,1.8555 -1.8594,4.8667 0,6.7222 1.8555,1.8594 4.8682,1.8594 6.7237,0 l 3.3164,-3.3633 12.2651,-12.2666 v 59.625 c 0,1.2578 0.5005,2.4618 1.3872,3.3486 0.8867,0.8906 2.0933,1.3901 3.3472,1.3901 v 0 c 1.2578,0 2.4608,-0.4995 3.3515,-1.3901 0.8867,-0.8867 1.3858,-2.0893 1.3858,-3.3472 v -59.625 l 12.2666,12.2696 3.3164,3.3633 c 0.8906,0.8984 2.1016,1.4018 3.3633,1.4018 1.2617,0 2.4726,-0.5034 3.3632,-1.4018 0.8945,-0.8867 1.4019,-2.0972 1.4019,-3.3589 0,-1.2656 -0.5074,-2.4766 -1.4019,-3.3633 l -23.6806,-23.6807 c -0.4609,-0.418 -0.9874,-0.7539 -1.5616,-0.9961 -0.5722,-0.2519 -1.1855,-0.3779 -1.7988,-0.3779 z"
       id="path395" /></g><path
     id="path466"
     clip-path="url(#clipPath2362)"
     d="m 188.22945,245.94953 c -9.52729,0 -17.66734,7.39868 -17.94434,16.92627 -0.37109,9.71089 7.21508,17.85166 16.92627,18.22266 h 0.64746 50.96631 c 7.8633,0 14.24561,6.38388 14.24561,14.24707 0,7.86329 -6.38241,14.2456 -14.24561,14.2456 l -35.5166,-0.004 c -9.52729,0 -17.5748,7.39868 -17.9458,16.92627 -0.37109,9.71089 7.21508,17.85165 16.92627,18.22265 h 0.64893 23.58545 c 8.04689,0 14.98495,6.19492 15.35595,14.24561 0.37109,8.23049 -5.91908,15.26328 -14.24707,15.63428 H 226.894 l -69.65185,-0.004 c -9.5273,0 -17.66734,7.39868 -17.94434,16.92627 -0.37109,9.71089 7.21508,17.85166 16.92627,18.22266 h 0.64746 65.11816 c 7.8633,0.46094 13.87418,7.21444 13.40918,15.07763 -0.46094,7.3086 -6.28925,13.13365 -13.59814,13.41065 h -20.89746 c -9.52729,0 -17.6688,7.39868 -17.9458,16.92627 -0.37109,9.71089 7.21508,17.85166 16.92627,18.22266 h 0.64892 62.71143 c 3.79299,20.53497 20.99479,35.42578 43.84277,35.42578 22.56998,0 43.74995,-14.52288 53.46094,-34.77686 12.57799,-0.0937 26.08271,-0.27783 38.38769,-0.64892 0,0 30.06213,-0.37058 64.7461,-1.10889 3.32809,21.08998 20.81237,36.53467 44.02734,36.53467 24.69498,0 47.72597,-17.48025 55.95996,-40.69922 0.83203,-0.0937 1.48149,-0.27686 1.94239,-0.37061 18.12898,-4.53119 33.39102,-19.60939 37.64502,-38.10937 2.49609,-10.81999 6.19432,-31.90968 9.24902,-52.72266 1.0156,-6.38279 0.27836,-12.94894 -2.21777,-18.96094 -7.6758,-17.94498 -16.92602,-35.14868 -27.75,-51.43066 -10.17599,-15.16799 -27.28618,-24.23398 -46.80616,-24.60498 -10.91399,-0.18359 -21.54978,-0.27686 -29.96777,-0.27686 -4.1641,-18.77698 -19.42646,-31.91014 -39.77344,-34.22314 -23.85497,-1.6602 -70.28906,-1.47217 -70.28906,-1.47217 l -10e-4,-0.003 z m 193.87646,33.95508 c 28.30498,0 62.15584,1.01457 75.56983,2.21777 8.41799,0.82812 14.1515,7.48905 13.6875,15.90674 v 0.001 c -0.83203,16.37098 -3.05174,37.08974 -6.47754,61.51171 -3.4219,24.41798 -7.03054,45.13674 -10.81934,61.51172 -2.03519,8.60159 -9.34396,14.89092 -18.03515,15.81592 -12.94899,1.1094 -44.12095,2.03472 -71.31592,2.12842 -4.7188,-19.23798 -21.46108,-32.92969 -43.28906,-32.92969 -18.77698,0 -36.62955,10.08217 -47.72754,25.16016 -2.2188,-2.9609 -3.32716,-6.56603 -3.14356,-10.26563 0.83203,-16.37098 3.05028,-36.99974 6.47608,-61.51172 3.42189,-24.51197 7.032,-45.1382 10.8208,-61.51318 2.0352,-8.50779 9.34396,-14.89092 18.03515,-15.81592 13.78099,-1.2031 47.91378,-2.21777 76.21875,-2.21777 z m -222.26953,29.68066 c -9.70289,0 -17.57373,7.86821 -17.57373,17.5752 0,9.70679 7.87064,17.57373 17.57373,17.57373 9.70679,0 17.57373,-7.86674 17.57373,-17.57373 0,-9.70679 -7.86674,-17.5752 -17.57373,-17.5752 z m 345.10108,7.03272 c 7.39839,0 16.18841,0.0932 25.0664,0.27685 9.24999,0.18359 17.2025,4.34747 22.1045,11.65577 9.80469,14.80098 18.22316,30.42995 25.16015,46.71093 0.28125,0.37109 0.28125,0.92624 0.1875,1.29346 l 10e-4,10e-4 c -2.9609,20.16398 -6.47657,40.14426 -8.78907,49.94825 -0.73827,2.86719 -2.68364,5.27389 -5.27343,6.56689 -6.3828,-16.09398 -21.82899,-27.00879 -41.43897,-27.00879 -11.37899,0.0937 -22.38234,3.60598 -31.81933,9.98877 3.05079,-14.33598 6.28909,-32.74262 9.62109,-56.5166 2.4062,-16.83598 4.07029,-30.983 5.17969,-42.91699 z M 316.5234,441.02863 c 9.06289,0 15.35256,7.39851 14.05957,16.3711 -1.2969,9.06639 -9.6212,16.37109 -18.68409,16.37109 -9.06639,0 -15.35557,-7.3985 -14.05957,-16.37109 1.2969,-8.97269 9.62119,-16.3711 18.68409,-16.3711 z m 200.62792,0 c 9.0629,0 15.26257,7.39851 14.05958,16.3711 -1.2969,9.06639 -9.6212,16.37109 -18.68409,16.37109 -9.06639,0 -15.3541,-7.3087 -14.0581,-16.37109 1.2969,-9.06639 9.61972,-16.3711 18.68261,-16.3711 z"
     transform="matrix(0.125,0,0,0.125,399.66655,278.5765)"
     style="fill:#92bcce;fill-opacity:1" /><path
     id="path491"
     d="m 416.25333,170.33985 c -0.61581,0.016 -1.16636,0.4457 -1.31012,1.07355 0,0 -0.002,0.009 -0.005,0.0215 h 2.70374 c -0.10889,-0.50925 -0.50104,-0.93545 -1.04205,-1.06 -0.11635,-0.0265 -0.23258,-0.038 -0.34662,-0.035 z m 10.94971,0.5281 c -2.148,0 -3.88916,1.7411 -3.88916,3.88895 0,2.148 1.74129,3.88915 3.88916,3.88915 1.97075,0 3.59666,-1.4647 3.85254,-3.3651 -0.35059,-0.018 -0.72015,-0.0557 -1.10101,-0.1148 -1.99125,-0.3096 -3.52594,-1.0899 -3.48194,-1.7578 0.26319,0.59815 1.80474,1.0576 3.67236,1.0576 1.40913,0 2.63531,-0.26165 3.26569,-0.6469 0.28711,-0.1758 0.45062,-0.37745 0.45062,-0.5918 0,-0.6841 -1.66406,-1.2387 -3.71631,-1.2387 -0.0703,0 -0.13867,0 -0.208,0.005 -0.70264,-0.69485 -1.66808,-1.1239 -2.73395,-1.1239 z m -14.31189,0.9131 v 8.2969 h 8.29687 v -8.2969 z m 18.04395,6.3994 v 0.43595 c 0.39648,0.04 0.9472,0.15475 1.55419,0.4609 0.85254,0.42525 1.63045,1.1441 2.24469,2.0762 h 0.001 c 1.439,2.19975 2.14164,5.604 2.14801,10.4101 0,0.229 -0.003,0.463 -0.006,0.69835 0.69629,-0.5415 1.57038,-0.8648 2.52063,-0.8648 2.27,0 4.1098,1.84035 4.1098,4.11035 0,0.027 -0.001,0.0538 -0.002,0.0806 h 14.3487 c 0,-0.027 -0.002,-0.0532 -0.002,-0.0806 0,-2.27 1.83999,-4.11035 4.10997,-4.11035 2.27,0 4.10982,1.84035 4.10982,4.11035 0,0.027 -0.002,0.0538 -0.002,0.0806 h 3.54786 v -8.0596 l -5.15773,-9.34805 z m -7.07172,1.45055 c -0.15771,0 -0.30853,0.029 -0.44916,0.0791 -0.3208,0.062 -1.0225,0.18165 -1.88141,0.24315 v 0.46875 h -7.26306 c 0.0215,0.049 0.043,0.0976 0.0679,0.1474 0.12744,0.24755 0.31788,0.5234 0.63428,0.74945 1.72362,1.1997 3.78497,1.42685 5.50909,1.4381 0.75977,0 1.46107,-0.0532 2.04694,-0.1192 v 27.0901 c 0,1.18066 0.95712,2.13665 2.13684,2.13665 0.91309,0 1.69033,-0.57369 1.99658,-1.37932 0.0894,-0.23535 0.14063,-0.4903 0.14063,-0.75788 l 3.6e-4,-15.6024 h 0.80127 v 15.6024 c 0,1.18066 0.95712,2.13665 2.13684,2.13665 1.18018,0 2.13722,-0.95644 2.13722,-2.13665 v -25.92005 c 0.10252,0.20995 0.20556,0.4512 0.30761,0.73245 0.4873,1.3501 0.89703,3.56595 0.89556,7.02445 0,0.95315 -0.0308,1.9999 -0.0978,3.1498 -0.0444,0.76315 0.53775,1.4165 1.30041,1.46135 0.0273,0 0.0546,0.005 0.0815,0.005 0.72705,0 1.33634,-0.56735 1.37934,-1.30225 0.0693,-1.1987 0.1015,-2.29895 0.10198,-3.3111 -0.007,-5.2172 -0.84028,-8.10445 -1.97643,-9.8408 -0.56837,-0.8618 -1.23244,-1.4144 -1.84627,-1.72065 -0.59472,-0.3003 -1.11764,-0.3662 -1.42822,-0.36915 -0.0181,0 -0.0356,-0.005 -0.0537,-0.005 h -2.02752 z m 32.78101,0.16165 h 6.86516 l 3.93805,7.1373 h -10.80321 z m 0.72491,8.70375 h 3.14319 v 0.7251 h -3.14319 z m -17.97107,3.7055 c -1.0249,0 -1.94183,0.46925 -2.54883,1.2041 -0.0171,0.49955 -0.0396,1.00885 -0.0703,1.5293 -0.0312,0.5425 -0.24176,1.0341 -0.57037,1.4218 v 2e-4 c 0.37646,1.41015 1.66163,2.45361 3.18951,2.45361 1.82175,0 3.30432,-1.48246 3.30432,-3.30431 0,-1.82185 -1.48295,-3.3047 -3.30432,-3.3047 z m 22.565,0 c -1.82175,0 -3.30431,1.483 -3.30431,3.3049 0,1.82125 1.48243,3.30411 3.30431,3.30411 1.82125,0 3.30432,-1.48226 3.30432,-3.30411 0,-1.82175 -1.48295,-3.3049 -3.30432,-3.3049 z m -22.565,1.61135 c 0.9331,0 1.69281,0.7592 1.69281,1.6928 0,0.9331 -0.7597,1.69245 -1.69281,1.69245 -0.9336,0 -1.69281,-0.75935 -1.69281,-1.69245 0,-0.9336 0.75921,-1.6928 1.69281,-1.6928 z m 22.565,0 c 0.93261,0 1.69245,0.7594 1.69245,1.693 0,0.9331 -0.75935,1.69225 -1.69245,1.69225 -0.9336,0 -1.6928,-0.75915 -1.6928,-1.69225 0,-0.9336 0.7592,-1.693 1.6928,-1.693 z m -29.04821,5.38035 v 0.86426 h 39.17376 v -0.86426 h -11.94013 z"
     style="fill:#92bcce;fill-opacity:1;stroke-width:0.125" /><path
     id="path597"
     d="m 313.65696,371.57532 c -1.60883,0.01 -3.20101,0.81451 -3.9245,2.1037 -1.00635,1.71675 0.059,3.78871 0.53265,4.49908 0.0596,0.17774 0.23736,0.29597 0.4737,0.35504 l 6.57129,1.48005 c 0.41454,0.11816 0.76965,-0.11822 0.94738,-0.4737 0.17774,-0.47363 0.35498,-0.8882 0.41455,-1.36139 -0.53271,-0.0591 -1.36137,-0.17779 -2.664,-0.47369 -1.835,-0.41455 -3.13781,-2.2494 -2.90094,-3.3739 0.11817,-0.53271 0.59182,-1.00642 1.59815,-0.76959 1.24316,0.23681 2.19037,0.11822 2.664,0.0591 -0.86016,-1.44287 -2.29272,-2.05334 -3.71228,-2.04474 z m 0.65423,2.96686 c -0.0924,0.003 -0.13861,0.026 -0.13861,0.026 0,0 -0.059,0.17761 0.0592,0.47351 0.23681,0.65136 1.00629,1.42096 2.01269,1.65784 1.12451,0.2959 1.89461,0.41442 2.36774,0.47351 -0.11817,-0.65136 -0.3551,-1.48 -0.82874,-2.60449 -0.47363,0.11767 -1.65767,0.35462 -3.2558,-3.7e-4 -0.0888,-0.0222 -0.16097,-0.0277 -0.21643,-0.026 z m -3.07122,5.00537 c -0.43805,0.01 -0.87087,0.10437 -1.27039,0.34863 -1.06542,0.5918 -1.71684,1.65782 -1.89459,2.90094 l -0.94721,8.64221 c -0.0591,0.5918 0.11822,1.12452 0.4737,1.539 0.35497,0.41455 0.94712,0.65131 1.47986,0.65131 h 8.28772 l -0.2959,7.34033 c -0.0591,1.12451 0.82852,2.01284 1.89441,2.07184 h 0.0591 c 1.06542,0 1.95357,-0.8287 2.01269,-1.89459 l 0.41419,-9.35303 c 0,-0.53271 -0.17786,-1.06528 -0.53284,-1.47986 -0.35497,-0.41457 -0.88821,-0.59179 -1.4209,-0.59179 h -5.15039 l 0.35504,-3.84778 c 0.41455,0.47364 0.71045,0.82873 0.71045,0.82873 0.23682,0.2959 0.59175,0.53271 0.94721,0.5918 l 3.90729,0.9472 c 0.11816,0.0591 0.2959,0.0592 0.41455,0.0592 0.41455,0 0.76959,-0.11817 1.06549,-0.41455 l 1.65765,-0.23694 c 0.0591,0.23681 0.11829,0.53283 0.11829,0.82873 0.17773,1.30225 0.59181,1.83495 1.36139,2.0127 0.5918,2.19037 1.24302,5.62351 1.71661,7.75488 0.17774,1.00635 -0.1181,2.07175 -0.82855,2.84125 l -2.24945,2.42725 c -0.41455,0.41455 -0.94727,0.6513 -1.539,0.6513 l -6.68903,5e-4 c -0.76952,0 -1.36137,-0.59181 -1.30225,-1.36139 l 0.11811,-4.3808 h 0.71045 c 0.41455,0 0.82873,-0.29596 0.94738,-0.76959 l 0.35486,-1.4209 c 0.11817,-0.5918 -0.29584,-1.18414 -0.9472,-1.18414 h -19.0025 c -0.82862,0 -1.12457,1.06543 -0.4737,1.539 l 3.19684,2.07184 c -1.8945,2.01275 -2.24947,4.91363 -2.30859,6.21588 0,0.35498 0.29584,0.65131 0.6513,0.65131 h 1.36139 c 0,0.23681 -0.0591,0.47363 -0.0591,0.71045 0,3.49262 2.84122,6.27484 6.27484,6.27484 3.25587,0 5.92002,-2.48623 6.27502,-5.62335 0.2959,0.0591 0.53266,0.059 0.82856,0.059 h 11.89892 c 0.71045,0 1.36128,-0.35485 1.8349,-0.88807 v 0.11811 c 0,3.72949 3.19685,6.68946 6.98548,6.27484 2.72312,-0.2959 5.03162,-2.48641 5.50524,-5.20953 0.53269,-2.66298 -0.76925,-5.14908 -2.90039,-6.3924 h 0.0586 2.13135 c 0.35497,0 0.59174,-0.29584 0.53265,-0.65131 -0.47364,-2.90087 -4.20302,-4.08462 -5.56439,-4.44012 -0.35498,-0.11816 -0.65143,-0.35492 -0.7696,-0.65131 l -2.30859,-4.85394 c 0.2959,0.17774 0.59174,0.23676 0.94721,0.23676 h 1.18414 c 0.17774,0 0.2959,-0.11817 0.2959,-0.2959 v -3.90729 c 0,-0.17774 -0.11817,-0.2959 -0.2959,-0.2959 h -1.18414 c -0.53272,0 -1.06545,0.23676 -1.4209,0.65131 -0.0591,-0.2959 -0.17774,-0.65125 -0.2959,-1.06531 -0.17774,-0.65136 -0.94717,-0.53271 -1.89441,-0.2959 -1.30225,0.2959 -2.54535,0.5918 -3.8476,0.71045 l -0.53283,0.059 c -0.17774,-0.5918 -0.65131,-1.0653 -1.24311,-1.18396 l -3.31494,-0.82873 c -0.5918,-0.71045 -1.30224,-1.59813 -2.42724,-2.84125 -0.17774,-0.17774 -0.82873,-1.00635 -1.95374,-1.30225 -0.62897,-0.14801 -1.37344,-0.36539 -2.10351,-0.34863 z m -14.88611,4.37292 c -0.71045,0 -1.30225,0.5918 -1.30225,1.30225 v 7.16309 c 0,0.71044 0.5918,1.30224 1.30225,1.30224 h 7.57708 c 0.71045,0 1.30225,-0.5918 1.30225,-1.30224 v -7.16309 c 0,-0.71045 -0.5918,-1.30225 -1.30225,-1.30225 z m -13.02265,5.68378 c -0.71045,0 -1.24328,0.53265 -1.24328,1.2431 0,0.71045 0.53283,1.24329 1.24328,1.24329 h 7.81385 c 0.71045,0 1.24328,-0.53284 1.24328,-1.24329 0,-0.71045 -0.53283,-1.2431 -1.24328,-1.2431 z m 0.82874,5.38623 c -0.65088,0 -1.18414,0.59241 -1.18414,1.24329 0,0.71045 0.53265,1.2431 1.2431,1.2431 h 7.75506 c 0.71045,0 1.24311,-0.53265 1.24311,-1.2431 0,-0.71045 -0.53266,-1.24329 -1.24311,-1.24329 z m 0.88751,5.3877 c -0.71045,0 -1.24329,0.53265 -1.24329,1.2431 0,0.71045 0.53284,1.2431 1.24329,1.2431 h 7.81384 c 0.71045,0 1.24329,-0.53265 1.24329,-1.2431 0,-0.71045 -0.59192,-1.2431 -1.24329,-1.2431 z m 47.00263,2.25 c 2.01274,-5e-4 3.61084,1.59754 3.61084,3.61029 0,2.01275 -1.65722,3.61139 -3.61084,3.61139 -2.01275,0 -3.61084,-1.5981 -3.61084,-3.61084 0,-2.01275 1.59809,-3.61084 3.61084,-3.61084 z m 0,2.0711 c -0.88819,0 -1.53901,0.71045 -1.53901,1.539 0,0.88819 0.71046,1.53901 1.53901,1.53901 0.88818,0 1.539,-0.71046 1.539,-1.53901 0,-0.8877 -0.71046,-1.539 -1.539,-1.539 z m -30.66431,0.82929 h 2.13153 c -0.11816,0.23681 -0.1778,0.41455 -0.1778,0.71045 0,0.88818 0.71046,1.539 1.53901,1.539 0.88818,0 1.539,-0.71045 1.539,-1.539 0,-0.23682 -0.0591,-0.47364 -0.1778,-0.71045 h 2.13135 v 0.17761 c 0,0.17774 0.0591,0.3551 0.0591,0.53284 0.11865,2.01224 -1.47993,3.61084 -3.49255,3.61084 -2.01275,0 -3.61084,-1.5981 -3.61084,-3.61084 0,-0.23682 -1.2e-4,-0.47364 0.059,-0.71045 z"
     style="fill:#92bcce;fill-opacity:1;stroke-width:0.125" /><path
     id="path639"
     d="m 297.87272,236.32428 c -0.51074,0 -0.92469,0.41413 -0.92469,0.92487 v 12.94866 c 0,0.2456 0.0972,0.48109 0.271,0.65443 0.17334,0.17334 0.40856,0.27099 0.65369,0.27099 h 12.94995 c 0.24511,0 0.48053,-0.0977 0.65387,-0.27099 0.17334,-0.17334 0.27099,-0.40881 0.27099,-0.65443 v -12.94866 c 0,-0.24511 -0.0976,-0.4806 -0.27099,-0.65442 -0.17334,-0.17334 -0.40875,-0.27045 -0.65387,-0.27045 z m 0.92486,1.84882 h 11.09967 v 11.09966 h -11.09967 z m 5.5503,1.8501 c -0.51074,0 -0.92487,0.41413 -0.92487,0.92486 v 1.8501 h -1.8501 c -0.51073,0 -0.92486,0.41413 -0.92486,0.92487 0,0.51073 0.41413,0.92522 0.92486,0.92522 h 1.8501 v 1.8501 c 0,0.51074 0.41413,0.92524 0.92487,0.92524 0.51122,0 0.92523,-0.4145 0.92523,-0.92524 v -1.84955 h 1.8501 c 0.51105,-2e-4 0.92486,-0.4148 0.92486,-0.92541 0,-0.51074 -0.41401,-0.92468 -0.92523,-0.92468 v -5e-4 h -1.84973 v -1.8501 c 0,-0.51073 -0.41401,-0.92486 -0.92523,-0.92486 z m -17.57447,2.77423 c -0.3501,0 -0.67035,0.19775 -0.82708,0.51122 l -5.54975,11.09968 c -0.006,0.0112 -0.007,0.0234 -0.0122,0.0346 -0.009,0.0196 -0.0137,0.0405 -0.0211,0.0606 -0.0342,0.0913 -0.0536,0.18739 -0.0575,0.28455 -5e-4,0.0117 -0.007,0.022 -0.007,0.0337 v 1.85028 c -0.001,1.60113 0.6899,3.12385 1.89496,4.1781 1.20507,1.0542 2.80674,1.53622 4.39361,1.32184 1.58638,-0.21386 3.00336,-1.10312 3.88623,-2.4386 1.02539,1.55375 2.76277,2.48878 4.62452,2.48878 1.86187,0 3.59918,-0.93509 4.62506,-2.48878 1.02538,1.55375 2.76258,2.48878 4.62432,2.48878 1.86175,0 3.59919,-0.93509 4.62507,-2.48878 1.02587,1.55375 2.76318,2.48878 4.62506,2.48878 1.86137,0 3.59913,-0.93509 4.62451,-2.48878 0.88281,1.3355 2.29973,2.22473 3.88623,2.4386 1.58637,0.21435 3.18843,-0.26766 4.39343,-1.32184 1.20508,-1.0542 1.89596,-2.57697 1.89496,-4.1781 v -1.85028 c 0,-0.0117 -0.006,-0.022 -0.007,-0.0337 h 1.8e-4 c -0.004,-0.0972 -0.0234,-0.19336 -0.0571,-0.28418 -0.008,-0.0205 -0.0122,-0.0409 -0.0214,-0.061 -0.005,-0.0112 -0.006,-0.0234 -0.0122,-0.0346 l -5.54975,-11.09968 c -0.15673,-0.31347 -0.47698,-0.51122 -0.82708,-0.51122 h -8.32471 c -0.51122,0 -0.92542,0.41412 -0.92542,0.92486 0,0.51074 0.4142,0.92524 0.92542,0.92524 h 7.75287 l 4.62488,9.24957 H 282.7206 l 4.62488,-9.24957 h 7.75251 c 0.51073,0 0.92486,-0.4145 0.92486,-0.92524 0,-0.51074 -0.41413,-0.92486 -0.92486,-0.92486 z m -4.62414,12.94922 h 7.39984 v 0.92486 h -5e-4 c -10e-4,0.98097 -0.39099,1.92138 -1.08435,2.61474 -0.69385,0.69385 -1.6343,1.08393 -2.6153,1.0849 v 5e-4 c -0.98096,-10e-4 -1.92123,-0.39122 -2.61511,-1.08507 -0.69336,-0.69337 -1.08356,-1.63375 -1.08453,-2.61475 z m 9.24957,0 h 7.39984 v 0.92486 h -5e-4 c -10e-4,0.98097 -0.39117,1.92138 -1.08453,2.61474 -0.69385,0.69385 -1.63411,1.08393 -2.61511,1.0849 v 5e-4 c -0.98097,-10e-4 -1.92142,-0.39122 -2.6153,-1.08507 -0.69336,-0.69337 -1.08337,-1.63375 -1.08435,-2.61475 z m 9.24939,0 h 7.39984 v 0.92523 c -10e-4,0.98096 -0.39105,1.92137 -1.0849,2.61475 -0.6938,0.6938 -1.63418,1.08406 -2.61511,1.08507 -0.98096,-10e-4 -1.92137,-0.39122 -2.61475,-1.08507 -0.69385,-0.69337 -1.08411,-1.63375 -1.08508,-2.61475 z m 9.24957,0 h 7.39984 v 0.92523 c -10e-4,0.98096 -0.39105,1.92137 -1.0849,2.61475 -0.69336,0.69385 -1.63374,1.0841 -2.61474,1.08507 h -5e-4 c -0.98076,-10e-4 -1.921,-0.39136 -2.61475,-1.08507 -0.69385,-0.69337 -1.08392,-1.63375 -1.0849,-2.61475 z m 9.25012,0 h 7.40003 l -3.7e-4,0.92523 c 0,1.32175 -0.70523,2.54303 -1.85028,3.20416 -1.14452,0.66065 -2.55465,0.66065 -3.69964,0 -1.14453,-0.66114 -1.84974,-1.88241 -1.84974,-3.20416 z m -33.29919,7.4002 c -0.51074,0 -0.92468,0.41413 -0.92468,0.92486 v 21.27503 c 0,0.24512 0.0971,0.48035 0.27044,0.65369 0.17383,0.17382 0.40863,0.271 0.65424,0.271 h 36.99884 c 0.24511,0 0.48053,-0.0972 0.65387,-0.271 0.17383,-0.17334 0.271,-0.40856 0.271,-0.65369 v -21.27503 c 0,-0.24511 -0.0972,-0.48052 -0.271,-0.65386 -0.17329,-0.1733 -0.40863,-0.27095 -0.65369,-0.271 h -1.8e-4 c -0.51065,1e-4 -0.92468,0.41419 -0.92468,0.92486 v 20.3487 h -20.34998 v -15.72363 c 0,-0.24511 -0.0971,-0.48059 -0.27044,-0.65442 -0.17383,-0.17334 -0.4093,-0.27045 -0.65442,-0.27045 h -9.24939 c -0.51074,0 -0.92487,0.41413 -0.92487,0.92487 v 15.72363 h -3.70019 v -20.3487 c 0,-0.51073 -0.41413,-0.92486 -0.92487,-0.92486 z m 20.34943,4.62452 c -0.51074,0 -0.92487,0.41412 -0.92487,0.92486 v 11.09967 c 0,0.24511 0.0972,0.48035 0.271,0.65369 0.17333,0.17382 0.40874,0.27099 0.65387,0.27099 h 11.09967 c 0.24511,0 0.48035,-0.0972 0.65368,-0.27099 0.17383,-0.17334 0.271,-0.40856 0.271,-0.65369 v -11.09967 c 0,-0.24511 -0.0972,-0.48041 -0.271,-0.65423 -0.17333,-0.17334 -0.40856,-0.27063 -0.65368,-0.27063 z m 0.92486,1.84973 h 9.24994 v 9.24994 h -9.24994 z m -14.79895,5e-4 h 7.39984 v 14.79877 h -7.39984 z"
     style="fill:#92bcce;fill-opacity:1;stroke-width:0.125" /><path
     d="m 466.78065,402.97403 c -1.2251,0 -2.21825,-0.99511 -2.21825,-2.21825 0,-1.22364 0.99268,-2.21825 2.21825,-2.21825 1.22022,0 2.21825,0.99462 2.21825,2.21825 0,1.22315 -0.99805,2.21825 -2.21825,2.21825 z m -19.985,0.0395 v -13.795 l 11.94925,-6.897 v 13.795 z m 1.34425,9.78462 c 0,1.22364 -0.99756,2.21825 -2.21825,2.21825 -1.2251,0 -2.21825,-0.99462 -2.21825,-2.21825 0,-1.22265 0.99268,-2.21825 2.21825,-2.21825 1.2207,0 2.21825,0.9956 2.21825,2.21825 z m -15.04125,-30.47625 3.10788,1.79488 v 5.72362 c 0,0.31348 0.16504,0.60303 0.43945,0.75976 l 3.97125,2.29438 c 0.13427,0.0776 0.29004,0.11719 0.43945,0.11719 0.1499,0 0.30517,-0.0395 0.43945,-0.11719 0.26904,-0.15723 0.43945,-0.4458 0.43945,-0.75976 v -4.711 l 3.10737,1.79487 v 13.795 l -11.94437,-6.897 v -13.795 z m 10.605,-17.695 c 0,-1.22364 0.99268,-2.21825 2.21825,-2.21825 1.22022,0 2.21825,0.99463 2.21825,2.21825 0,1.22364 -0.99756,2.21825 -2.21825,2.21825 -1.22558,0 -2.21825,-0.99462 -2.21825,-2.21825 z m -3.52687,21.78375 -2.21825,-1.28125 v 4.20413 l 2.21825,1.28125 z m -1.33838,-2.80075 2.21825,1.28225 11.94438,-6.898 -2.21825,-1.28125 z m -4.86625,-2.80762 3.11275,1.79587 11.94438,-6.897 -3.10738,-1.79487 z m 11.94925,6.8975 11.94438,-6.897 -3.10738,-1.79488 -11.94975,6.8965 z m -20.86374,15.27375 c -1.22021,0 -2.21825,-0.99512 -2.21825,-2.21825 0,-1.22364 0.99756,-2.21825 2.21825,-2.21825 1.2251,0 2.21825,0.99462 2.21825,2.21825 0,1.22315 -0.99219,2.21825 -2.21825,2.21825 z m 0,-24.085 c -1.22021,0 -2.21825,-0.99512 -2.21825,-2.21825 0,-1.22364 0.99756,-2.21825 2.21825,-2.21825 1.2251,0 2.21825,0.99511 2.21825,2.21825 0,1.22313 -0.99219,2.21825 -2.21825,2.21825 z m 41.72249,-4.436 c 1.22022,0 2.21825,0.99511 2.21825,2.21825 0,1.22265 -0.99756,2.21825 -2.21825,2.21825 -1.2251,0 -2.21825,-0.99512 -2.21825,-2.21825 0,-1.22364 0.99268,-2.21825 2.21825,-2.21825 z m 0,22.33125 c -1.15332,0 -2.19237,0.49218 -2.916,1.27637 l -3.36625,-1.94437 v -14.80625 l 3.36625,-1.94438 c 0.72413,0.78418 1.76313,1.27638 2.916,1.27638 2.187,0 3.97125,-1.78225 3.97125,-3.97163 0,-2.19037 -1.78412,-3.97212 -3.97125,-3.97212 -2.19237,0 -3.97612,1.78225 -3.97612,3.97212 0,0.41015 0.0674,0.80469 0.18066,1.17774 l -3.36625,1.94237 -12.8225,-7.40187 v -3.88675 c 1.7685,-0.40088 3.09713,-1.98438 3.09713,-3.873 0,-2.19038 -1.78413,-3.97213 -3.97125,-3.97213 -2.19238,0 -3.97613,1.78125 -3.97613,3.97213 0,1.88862 1.32913,3.47212 3.09713,3.873 v 3.88675 l -12.8225,7.40337 -3.36625,-1.94287 c 0.11914,-0.37256 0.18066,-0.76758 0.18066,-1.17725 0,-2.19038 -1.78412,-3.97213 -3.97612,-3.97213 -2.187,0 -3.97125,1.78225 -3.97125,3.97213 0,2.1895 1.78412,3.97162 3.97125,3.97162 1.15332,0 2.19237,-0.49218 2.916,-1.27637 l 3.36624,1.94437 v 14.80625 l -3.36574,1.94338 c -0.72413,-0.78418 -1.76313,-1.27638 -2.916,-1.27638 -2.187,0 -3.97125,1.78225 -3.97125,3.97163 0,2.18937 1.78412,3.97162 3.97125,3.97162 2.19237,0 3.97612,-1.78125 3.97612,-3.97162 0,-0.41015 -0.0625,-0.80518 -0.18066,-1.17725 l 3.36625,-1.94288 12.82375,7.40338 v 3.88625 c -1.7685,0.40039 -3.09713,1.98487 -3.09713,3.873 0,2.1895 1.78413,3.97162 3.97613,3.97162 2.187,0 3.97125,-1.78225 3.97125,-3.97162 0,-1.88813 -1.32913,-3.47313 -3.09713,-3.873 v -3.88625 l 12.82375,-7.40338 3.36625,1.94238 c -0.11426,0.37305 -0.18066,0.76855 -0.18066,1.17822 0,2.1895 1.78412,3.97163 3.97612,3.97163 2.187,0 3.97125,-1.78125 3.97125,-3.97163 -10e-4,-2.19 -1.78512,-3.97262 -3.97212,-3.97262 z"
     fill-rule="evenodd"
     id="path735"
     style="fill:#92bcce;fill-opacity:1;stroke-width:0.125" /><g
     id="g3217"
     style="fill:#92bcce;fill-opacity:1"
     transform="matrix(0.125,0,0,0.125,306.0134,392.04431)"><path
       d="M -120.46864,-607.82626 H 41.30132 l -21.312,36.906 c -11.148,19.309 -8.3945,41.062 5.1289,56.164 h -145.58996 v -93.07 z m 155.99996,45.879 45.832,-79.379 c 20.461,-35.44501 74.043,-4.5078 53.582,30.934 l -45.832,79.383 c -20.461,35.441 -74.043,4.5039 -53.582,-30.938 z m 25.539,-31.062 6.1602,-10.668 42.168,24.344 -6.1523,10.672 z m -207.83994,97.145 h 437.03994 v 39.79306 H -146.76962 Z M 76.02032,-391.8742 h 146.29 v 98.773 h -146.29 z m 77.625,-215.95006 h 110.33 v 93.07 h -164.35 c 1.8477,-2.25 3.5312,-4.6836 5.0352,-7.2891 l 45.832,-79.379 c 1.2148,-2.1094 2.2656,-4.2461 3.1562,-6.4062 z m 110.33,170.64006 v 190.86 h -244.61 v -133.11 h -90.379 v 133.11 h -49.44496 v -190.86 z"
       fill-rule="evenodd"
       id="path663"
       sodipodi:nodetypes="cccccccccccccccccccccccccccccccccccccccccccc"
       style="fill:#92bcce;fill-opacity:1" /><path
       style="color:#000000;fill:#92bcce;fill-opacity:1;stroke-linecap:round;stroke-linejoin:round;paint-order:stroke markers fill"
       d="m 148.37305,-386.44922 c -24.3479,0 -44.1875,19.83961 -44.1875,44.1875 0,24.3479 19.8396,44.1875 44.1875,44.1875 24.34789,0 44.1875,-19.8396 44.1875,-44.1875 0,-24.34789 -19.83961,-44.1875 -44.1875,-44.1875 z m 0,9.46875 c 19.2302,0 34.71679,15.48855 34.71679,34.71875 0,19.2302 -15.48659,34.7168 -34.71679,34.7168 -19.2302,0 -34.71875,-15.4866 -34.71875,-34.7168 0,-19.2302 15.48855,-34.71875 34.71875,-34.71875 z"
       id="path798" /><path
       style="color:#000000;fill:#92bcce;fill-opacity:1;stroke-linecap:round;stroke-linejoin:round;paint-order:stroke markers fill"
       d="m 148.57812,-367.23437 a 5.7399502,5.7399502 0 0 0 -5.81835,5.66015 l -0.51954,38.22266 a 5.7399502,5.7399502 0 0 0 5.66016,5.8164 5.7399502,5.7399502 0 0 0 5.81836,-5.66015 l 0.51953,-38.22266 a 5.7399502,5.7399502 0 0 0 -5.66016,-5.8164 z"
       id="path1418" /><path
       style="color:#000000;fill:#92bcce;fill-opacity:1;stroke-linecap:round;stroke-linejoin:round;-inkscape-stroke:none;paint-order:stroke markers fill"
       d="m 129.07617,-348.38281 a 5.7399502,5.7399502 0 0 0 -5.8164,5.66211 5.7399502,5.7399502 0 0 0 5.6621,5.8164 l 38.48047,0.51758 a 5.7399502,5.7399502 0 0 0 5.81641,-5.66211 5.7399502,5.7399502 0 0 0 -5.66211,-5.8164 z"
       id="path1420" /></g></svg>
