<?xml version="1.0" encoding="UTF-8" standalone="no"?>
<!-- Created with Inkscape (http://www.inkscape.org/) -->

<svg
   width="128"
   height="128"
   viewBox="0 0 128 128"
   version="1.1"
   id="svg5"
   xml:space="preserve"
   inkscape:version="1.2 (dc2aedaf03, 2022-05-15)"
   sodipodi:docname="fc-icon.svg"
   inkscape:export-filename="fc.png"
   inkscape:export-xdpi="96"
   inkscape:export-ydpi="96"
   xmlns:inkscape="http://www.inkscape.org/namespaces/inkscape"
   xmlns:sodipodi="http://sodipodi.sourceforge.net/DTD/sodipodi-0.dtd"
   xmlns="http://www.w3.org/2000/svg"
   xmlns:svg="http://www.w3.org/2000/svg"><sodipodi:namedview
     id="namedview7"
     pagecolor="#505050"
     bordercolor="#eeeeee"
     borderopacity="1"
     inkscape:showpageshadow="0"
     inkscape:pageopacity="0"
     inkscape:pagecheckerboard="0"
     inkscape:deskcolor="#505050"
     inkscape:document-units="px"
     showgrid="false"
     inkscape:zoom="1.6088805"
     inkscape:cx="199.20684"
     inkscape:cy="49.724016"
     inkscape:window-width="1835"
     inkscape:window-height="1057"
     inkscape:window-x="-8"
     inkscape:window-y="-8"
     inkscape:window-maximized="1"
     inkscape:current-layer="g3447" /><defs
     id="defs2" /><g
     inkscape:label="Camada 1"
     inkscape:groupmode="layer"
     id="layer1"><path
       id="path4904"
       style="fill:#000000;fill-opacity:1;stroke:none;stroke-width:3.24;stroke-linecap:round;stroke-dasharray:none;stroke-opacity:0.889169;paint-order:stroke markers fill"
       d="m 9.0019531,22.029297 c -0.6409693,0 -1.15625,0.515281 -1.15625,1.15625 v 3.794922 c -3.0817549,0.209113 -5.4941406,2.459387 -5.4941406,5.228515 v 36.400391 c 0,0.915453 0.2644301,1.773743 0.7285156,2.521484 L 8.8007812,38.6875 C 9.3135457,35.779468 12.38506,33.439453 15.6875,33.439453 h 64.429688 v -1.230469 c 0,-2.908032 -2.658492,-5.25 -5.960938,-5.25 H 35.791016 v -3.773437 c 0,-0.64097 -0.515279,-1.15625 -1.15625,-1.15625 z m 116.3710969,0 c -3.89602,1.948189 -17.05828,8.287354 -22.8125,16.101562 -2.08351,-1.768446 -3.496049,-3.263776 -8.238284,-5.386718 l -2.492188,2.355468 c 5.010565,4.588712 7.626629,7.468497 11.699222,12.804688 2.64587,-7.514768 9.20945,-13.834782 22.11914,-23.642578 z M 17.306641,36.679688 c -3.302444,0 -6.373954,2.340011 -6.886719,5.248046 L 4.0019531,78.330078 c -0.5127645,2.908035 1.7327136,5.248047 5.0351563,5.248047 H 74.880859 c 3.302445,0 6.373972,-2.340012 6.886719,-5.248047 l 6.417969,-36.402344 c 0.512779,-2.908035 -1.73272,-5.248046 -5.035156,-5.248046 z M 125.37305,51.0625 c -3.89602,1.948189 -17.05828,8.287354 -22.8125,16.101562 -2.08351,-1.768446 -3.496049,-3.263777 -8.238284,-5.386718 l -2.492188,2.355468 c 5.010565,4.588712 7.626629,7.47045 11.699222,12.806641 2.64587,-7.514767 9.20945,-13.836735 22.11914,-23.644531 z m -95.857425,6.083984 h 8.222656 l -0.566406,2.392578 h -5.800781 l -0.81836,3.4375 h 5.683594 l -0.566406,2.392579 h -5.683594 l -1.441406,6.09375 h -2.41211 z m 11.84375,0 h 9.248047 l -0.566406,2.392578 h -3.388672 l -2.826172,11.923829 h -2.41211 l 2.826172,-11.923829 h -3.447265 z m 13.355469,0 h 4.77539 c 0.885415,0 1.558855,0.126953 2.017578,0.38086 0.458725,0.253904 0.811658,0.654298 1.0625,1.201172 0.25778,0.540363 0.361849,1.204428 0.310547,1.992187 -0.0619,0.950519 -0.295508,1.826174 -0.699218,2.626953 -0.396777,0.794269 -0.866262,1.383465 -1.41211,1.767578 -0.539336,0.384115 -1.170134,0.644533 -1.888672,0.78125 -0.388777,0.07162 -1.151695,0.107422 -2.291015,0.107422 h -1.552735 l -1.292968,5.458985 h -2.41211 z M 56.574219,59.5 55.601562,63.630859 h 0.742188 c 1.191404,0 2.006979,-0.08138 2.447266,-0.24414 0.446796,-0.162761 0.824882,-0.458986 1.132812,-0.888672 0.308354,-0.436198 0.480268,-0.940757 0.517578,-1.513672 0.04028,-0.618488 -0.133101,-1.044922 -0.521484,-1.279297 C 59.69445,59.56836 59.158852,59.5 58.3125,59.5 Z m 68.798831,20.595703 c -3.89602,1.94819 -17.05828,8.289309 -22.8125,16.103516 -2.08351,-1.768445 -3.496049,-3.265726 -8.238284,-5.388672 l -2.492188,2.353515 c 5.010565,4.588708 7.626629,7.470458 11.699222,12.806638 2.64587,-7.514766 9.20945,-13.836736 22.11914,-23.644528 z m -82.519534,8.054688 v 11.339843 h -4.859375 v 1.621096 H 15.314453 v 3.23828 h 22.679688 v 1.62109 h 12.958984 v -1.62109 h 22.679687 v -3.23828 H 50.953125 V 99.490234 H 46.09375 V 88.150391 Z" /><path
       style="fill:#000000;fill-opacity:1;stroke:none;stroke-width:3.24;stroke-linecap:round;stroke-dasharray:none;stroke-opacity:0.889169;paint-order:stroke markers fill"
       d="m 371.50693,86.311205 c -3.89602,1.94819 -17.05828,8.289309 -22.8125,16.103515 -2.08351,-1.76844 -3.49605,-3.265725 -8.23828,-5.388671 l -2.49219,2.353515 c 5.01056,4.588706 7.62663,7.470456 11.69922,12.806636 2.64587,-7.51476 9.20945,-13.836734 22.11914,-23.644526 z"
       id="path402" /><path
       style="fill:#000000;fill-opacity:1;stroke:none;stroke-width:3.24;stroke-linecap:round;stroke-dasharray:none;stroke-opacity:0.889169;paint-order:stroke markers fill"
       d="m 371.50693,57.278002 c -3.89602,1.948189 -17.05828,8.287354 -22.8125,16.101562 -2.08351,-1.768446 -3.49605,-3.263777 -8.23828,-5.386718 l -2.49219,2.355468 c 5.01056,4.588712 7.62663,7.47045 11.69922,12.806641 2.64587,-7.514767 9.20945,-13.836735 22.11914,-23.644531 z"
       id="path392" /><path
       style="fill:#000000;fill-opacity:1;stroke:none;stroke-width:3.24;stroke-linecap:round;stroke-dasharray:none;stroke-opacity:0.889169;paint-order:stroke markers fill"
       d="m 371.50693,28.244799 c -3.89602,1.948189 -17.05828,8.287354 -22.8125,16.101562 -2.08351,-1.768446 -3.49605,-3.263776 -8.23828,-5.386718 l -2.49219,2.355468 c 5.01056,4.588712 7.62663,7.468497 11.69922,12.804688 2.64587,-7.514768 9.20945,-13.834782 22.11914,-23.642578 z"
       id="path388" /><g
       id="g408"><path
         id="path384"
         style="fill:#000000;fill-opacity:1;stroke:none;stroke-width:3.24;stroke-linecap:round;stroke-dasharray:none;stroke-opacity:0.889169;paint-order:stroke markers fill"
         d="m 255.13583,28.244799 c -0.64097,0 -1.15625,0.515281 -1.15625,1.15625 v 3.794922 c -3.08175,0.209113 -5.49414,2.459387 -5.49414,5.228515 v 36.400391 c 0,0.915453 0.26443,1.773743 0.72852,2.521484 l 5.7207,-32.443359 c 0.51277,-2.908032 3.58428,-5.248047 6.88672,-5.248047 h 64.42969 v -1.230469 c 0,-2.908032 -2.65849,-5.25 -5.96094,-5.25 H 281.9249 v -3.773437 c 0,-0.64097 -0.51528,-1.15625 -1.15625,-1.15625 z m 8.30469,14.650391 c -3.30244,0 -6.37395,2.340011 -6.88672,5.248046 l -6.41797,36.402344 c -0.51276,2.908035 1.73272,5.248047 5.03516,5.248047 h 65.84375 c 3.30244,0 6.37397,-2.340012 6.88672,-5.248047 l 6.41797,-36.402344 c 0.51278,-2.908035 -1.73272,-5.248046 -5.03516,-5.248046 z m 12.20899,20.466796 h 8.22265 l -0.5664,2.392578 h -5.80079 l -0.81836,3.4375 h 5.6836 l -0.56641,2.392579 h -5.68359 l -1.44141,6.09375 h -2.41211 z m 11.84375,0 h 9.24804 l -0.5664,2.392578 h -3.38868 l -2.82617,11.923829 h -2.41211 l 2.82617,-11.923829 h -3.44726 z m 13.35546,0 h 4.77539 c 0.88542,0 1.55886,0.126953 2.01758,0.38086 0.45873,0.253904 0.81166,0.654298 1.0625,1.201172 0.25778,0.540363 0.36185,1.204428 0.31055,1.992187 -0.0619,0.950519 -0.29551,1.826174 -0.69922,2.626953 -0.39678,0.794269 -0.86626,1.383465 -1.41211,1.767578 -0.53933,0.384115 -1.17013,0.644533 -1.88867,0.78125 -0.38878,0.07162 -1.1517,0.107422 -2.29102,0.107422 h -1.55273 l -1.29297,5.458985 h -2.41211 z m 1.85938,2.353516 -0.97266,4.130859 h 0.74219 c 1.1914,0 2.00698,-0.08138 2.44727,-0.24414 0.44679,-0.162761 0.82488,-0.458986 1.13281,-0.888672 0.30835,-0.436198 0.48027,-0.940757 0.51758,-1.513672 0.0403,-0.618488 -0.1331,-1.044922 -0.52149,-1.279297 -0.22547,-0.136718 -0.76107,-0.205078 -1.60742,-0.205078 z m -13.7207,28.650391 v 11.339847 h -4.85938 v 1.62109 h -22.67969 v 3.23828 h 22.67969 v 1.62109 h 12.95899 v -1.62109 h 22.67968 v -3.23828 h -22.67968 v -1.62109 h -4.85938 V 94.365893 Z" /></g><g
       id="g3447"><path
         id="path3610"
         style="font-weight:bold;font-size:26.6667px;line-height:1.25;font-family:Arial;-inkscape-font-specification:'Arial, Bold';letter-spacing:0px;word-spacing:0px"
         d="M 328.69141 168.06445 C 325.72414 168.06445 323.27344 170.51712 323.27344 173.48438 L 323.27344 199.58789 C 323.27344 202.55515 325.72413 205.00781 328.69141 205.00781 L 425.03125 205.00781 C 427.99852 205.00781 430.45117 202.55515 430.45117 199.58789 L 430.45117 173.48438 C 430.45117 170.51712 427.99852 168.06445 425.03125 168.06445 L 328.69141 168.06445 z M 328.69141 172.06445 L 425.03125 172.06445 C 425.85172 172.06445 426.45117 172.66392 426.45117 173.48438 L 426.45117 199.58789 C 426.45117 200.40834 425.85171 201.00781 425.03125 201.00781 L 328.69141 201.00781 C 327.87094 201.00781 327.27344 200.40834 327.27344 199.58789 L 327.27344 173.48438 C 327.27344 172.66392 327.87094 172.06445 328.69141 172.06445 z M 393.67969 175.13086 L 388.95312 194.87109 L 391.64844 194.87109 L 396.42578 175.13086 L 393.67969 175.13086 z M 401.08789 175.13086 L 396.36133 194.87109 L 399.05664 194.87109 L 403.83594 175.13086 L 401.08789 175.13086 z M 331.67383 175.45703 L 331.67383 194.54492 L 335.33203 194.54492 L 335.33203 187.61719 C 335.33203 186.454 335.44118 185.57856 335.6582 184.98828 C 335.8839 184.38932 336.23546 183.94162 336.71289 183.64648 C 337.19032 183.35134 337.7322 183.20313 338.33984 183.20312 C 338.86936 183.20312 339.30902 183.32031 339.65625 183.55469 C 340.01215 183.78038 340.25955 184.08984 340.39844 184.48047 C 340.53733 184.8711 340.60547 185.79058 340.60547 187.24023 L 340.60547 194.54492 L 344.26562 194.54492 L 344.26562 186.43359 C 344.26562 185.19227 344.20053 184.27583 344.07031 183.68555 C 343.94879 183.09527 343.71441 182.55643 343.36719 182.07031 C 343.02864 181.58421 342.52083 181.18555 341.84375 180.87305 C 341.16666 180.56055 340.40647 180.4043 339.56445 180.4043 C 337.92383 180.4043 336.51259 181.0944 335.33203 182.47461 L 335.33203 175.45703 L 331.67383 175.45703 z M 351.81641 175.83398 L 348.14453 177.96875 L 348.14453 180.7168 L 346.46484 180.7168 L 346.46484 183.63281 L 348.14453 183.63281 L 348.14453 189.66211 C 348.14453 190.95551 348.18359 191.81488 348.26172 192.24023 C 348.35721 192.83919 348.52648 193.31598 348.76953 193.67188 C 349.02127 194.01909 349.41189 194.30555 349.94141 194.53125 C 350.47092 194.74826 351.06684 194.85742 351.72656 194.85742 C 352.80295 194.85742 353.7665 194.67513 354.61719 194.31055 L 354.30469 191.47266 C 353.66233 191.70703 353.17057 191.82422 352.83203 191.82422 C 352.58897 191.82422 352.38064 191.76215 352.20703 191.64062 C 352.04208 191.5191 351.93488 191.36784 351.88281 191.18555 C 351.83941 190.99457 351.81641 190.3355 351.81641 189.20703 L 351.81641 183.63281 L 354.31641 183.63281 L 354.31641 180.7168 L 351.81641 180.7168 L 351.81641 175.83398 z M 360.69727 175.83398 L 357.02539 177.96875 L 357.02539 180.7168 L 355.3457 180.7168 L 355.3457 183.63281 L 357.02539 183.63281 L 357.02539 189.66211 C 357.02539 190.95551 357.06445 191.81488 357.14258 192.24023 C 357.23806 192.83919 357.40734 193.31598 357.65039 193.67188 C 357.90213 194.01909 358.29275 194.30555 358.82227 194.53125 C 359.35178 194.74826 359.94575 194.85742 360.60547 194.85742 C 361.68186 194.85742 362.6454 194.67513 363.49609 194.31055 L 363.18359 191.47266 C 362.54123 191.70703 362.05143 191.82422 361.71289 191.82422 C 361.46983 191.82422 361.2615 191.76215 361.08789 191.64062 C 360.92294 191.5191 360.81379 191.36784 360.76172 191.18555 C 360.71832 190.99457 360.69727 190.3355 360.69727 189.20703 L 360.69727 183.63281 L 363.19727 183.63281 L 363.19727 180.7168 L 360.69727 180.7168 L 360.69727 175.83398 z M 373.35352 180.4043 C 372.43338 180.4043 371.59506 180.62065 370.83984 181.05469 C 370.08464 181.48871 369.48568 182.0536 369.04297 182.74805 L 369.04297 180.7168 L 365.63281 180.7168 L 365.63281 199.80469 L 369.29102 199.80469 L 369.29102 192.83984 C 369.97678 193.57769 370.62782 194.09852 371.24414 194.40234 C 371.86914 194.70616 372.56424 194.85742 373.32812 194.85742 C 374.93403 194.85742 376.30122 194.2194 377.42969 192.94336 C 378.55816 191.65864 379.12109 189.86177 379.12109 187.55273 C 379.12109 185.30447 378.5612 183.55165 377.44141 182.29297 C 376.32161 181.03428 374.95941 180.4043 373.35352 180.4043 z M 382.72852 180.7168 L 382.72852 184.375 L 386.38672 184.375 L 386.38672 180.7168 L 382.72852 180.7168 z M 372.36328 183.29492 C 373.22265 183.29492 373.94379 183.64648 374.52539 184.34961 C 375.10699 185.05274 375.39844 186.12847 375.39844 187.57812 C 375.39844 189.13194 375.11502 190.25173 374.55078 190.9375 C 373.98655 191.61459 373.28038 191.95312 372.42969 191.95312 C 371.54427 191.95313 370.7921 191.5855 370.17578 190.84766 C 369.55946 190.10112 369.25195 188.9503 369.25195 187.39648 C 369.25195 186.04232 369.54644 185.0217 370.13672 184.33594 C 370.72699 183.64149 371.46918 183.29492 372.36328 183.29492 z M 382.72852 190.88672 L 382.72852 194.54492 L 386.38672 194.54492 L 386.38672 190.88672 L 382.72852 190.88672 z " /><rect
         style="fill:none;stroke:#000000;stroke-width:4;stroke-linecap:round;stroke-linejoin:round;paint-order:stroke markers fill"
         id="rect2656"
         width="103.17731"
         height="32.942173"
         x="154.96863"
         y="177.52359"
         rx="3.4185333"
         ry="3.4185333" /><text
         xml:space="preserve"
         style="font-style:normal;font-variant:normal;font-weight:bold;font-stretch:normal;font-size:26.6667px;line-height:1.25;font-family:Arial;-inkscape-font-specification:'Arial, Bold';font-variant-ligatures:normal;font-variant-caps:normal;font-variant-numeric:normal;font-variant-east-asian:normal;text-align:start;letter-spacing:0px;word-spacing:0px;writing-mode:lr-tb;text-anchor:start;fill:#000000;fill-opacity:1;stroke:none"
         x="159.46771"
         y="202.00383"
         id="text2712"><tspan
           sodipodi:role="line"
           id="tspan2710"
           x="159.46771"
           y="202.00383">http://</tspan></text></g><path
       id="rect472-4"
       style="color:#000000;fill:#000000;stroke-linecap:round;stroke-linejoin:round;-inkscape-stroke:none;paint-order:stroke markers fill"
       d="M -85.773438 172.3457 C -91.667575 172.3457 -96.476562 177.15274 -96.476562 183.04688 L -96.476562 217.23242 C -96.476563 223.12656 -91.667575 227.93359 -85.773438 227.93359 L 32.320312 227.93359 C 38.214451 227.93359 43.021484 223.12656 43.021484 217.23242 L 43.021484 183.04688 C 43.021484 177.15274 38.214451 172.3457 32.320312 172.3457 L -85.773438 172.3457 z M -85.773438 176.3457 L 32.320312 176.3457 C 36.067644 176.3457 39.021484 179.29954 39.021484 183.04688 L 39.021484 217.23242 C 39.021484 220.97975 36.067644 223.93359 32.320312 223.93359 L -85.773438 223.93359 C -89.520768 223.93359 -92.476562 220.97975 -92.476562 217.23242 L -92.476562 183.04688 C -92.476562 179.29954 -89.520768 176.3457 -85.773438 176.3457 z M -56.425781 180.73633 C -59.393051 180.73633 -61.84375 183.18703 -61.84375 186.1543 L -61.84375 214.125 C -61.84375 217.09227 -59.393051 219.54297 -56.425781 219.54297 L 29.347656 219.54297 C 32.314926 219.54297 34.767578 217.09227 34.767578 214.125 L 34.767578 186.1543 C 34.767578 183.18703 32.314926 180.73633 29.347656 180.73633 L -56.425781 180.73633 z M -56.425781 184.73633 L 29.347656 184.73633 C 30.168113 184.73633 30.767578 185.33383 30.767578 186.1543 L 30.767578 214.125 C 30.767578 214.94546 30.168113 215.54297 29.347656 215.54297 L -56.425781 215.54297 C -57.246239 215.54297 -57.84375 214.94546 -57.84375 214.125 L -57.84375 186.1543 C -57.84375 185.33383 -57.246239 184.73633 -56.425781 184.73633 z M 8.5605469 187.80273 L 3.8339844 207.54102 L 6.5292969 207.54102 L 11.308594 187.80273 L 8.5605469 187.80273 z M 15.970703 187.80273 L 11.244141 207.54102 L 13.939453 207.54102 L 18.716797 187.80273 L 15.970703 187.80273 z M -53.443359 188.12695 L -53.443359 207.2168 L -49.785156 207.2168 L -49.785156 200.28906 C -49.785156 199.12587 -49.675998 198.24848 -49.458984 197.6582 C -49.23329 197.05924 -48.881728 196.6135 -48.404297 196.31836 C -47.926867 196.02322 -47.384983 195.875 -46.777344 195.875 C -46.24783 195.875 -45.810113 195.99218 -45.462891 196.22656 C -45.106988 196.45226 -44.859592 196.75976 -44.720703 197.15039 C -44.581814 197.54101 -44.511719 198.46245 -44.511719 199.91211 L -44.511719 207.2168 L -40.853516 207.2168 L -40.853516 199.10352 C -40.853516 197.8622 -40.91862 196.9477 -41.048828 196.35742 C -41.170356 195.76715 -41.404731 195.2283 -41.751953 194.74219 C -42.090495 194.25607 -42.598307 193.85742 -43.275391 193.54492 C -43.952475 193.23242 -44.710721 193.07617 -45.552734 193.07617 C -47.19336 193.07617 -48.604601 193.76627 -49.785156 195.14648 L -49.785156 188.12695 L -53.443359 188.12695 z M -80.316406 188.34961 C -85.344909 188.34961 -89.462886 192.46954 -89.462891 197.49805 C -89.462893 202.52655 -85.344914 206.64453 -80.316406 206.64453 C -78.36181 206.64453 -76.546128 206.02084 -75.054688 204.96484 L -68.677734 211.34375 A 2 2 0 0 0 -65.849609 211.34375 A 2 2 0 0 0 -65.849609 208.51367 L -72.365234 201.99805 C -71.605927 200.66675 -71.167968 199.1314 -71.167969 197.49805 C -71.167974 192.46954 -75.287904 188.34961 -80.316406 188.34961 z M -33.300781 188.50586 L -36.972656 190.64062 L -36.972656 193.38867 L -38.652344 193.38867 L -38.652344 196.30469 L -36.972656 196.30469 L -36.972656 202.33398 C -36.972656 203.62739 -36.933594 204.48676 -36.855469 204.91211 C -36.759983 205.51107 -36.590712 205.98784 -36.347656 206.34375 C -36.09592 206.69097 -35.705295 206.97743 -35.175781 207.20312 C -34.646268 207.42014 -34.052301 207.5293 -33.392578 207.5293 C -32.316189 207.5293 -31.352648 207.347 -30.501953 206.98242 L -30.814453 204.14258 C -31.456814 204.37696 -31.946615 204.49414 -32.285156 204.49414 C -32.528212 204.49414 -32.736545 204.43403 -32.910156 204.3125 C -33.075083 204.19097 -33.184242 204.03972 -33.236328 203.85742 C -33.279728 203.66646 -33.300781 203.00543 -33.300781 201.87695 L -33.300781 196.30469 L -30.800781 196.30469 L -30.800781 193.38867 L -33.300781 193.38867 L -33.300781 188.50586 z M -24.419922 188.50586 L -28.091797 190.64062 L -28.091797 193.38867 L -29.771484 193.38867 L -29.771484 196.30469 L -28.091797 196.30469 L -28.091797 202.33398 C -28.091797 203.62739 -28.052734 204.48676 -27.974609 204.91211 C -27.879123 205.51107 -27.709852 205.98784 -27.466797 206.34375 C -27.21506 206.69097 -26.824436 206.97743 -26.294922 207.20312 C -25.765408 207.42014 -25.171441 207.5293 -24.511719 207.5293 C -23.435329 207.5293 -22.471788 207.347 -21.621094 206.98242 L -21.933594 204.14258 C -22.575955 204.37696 -23.065755 204.49414 -23.404297 204.49414 C -23.647353 204.49414 -23.855686 204.43403 -24.029297 204.3125 C -24.194224 204.19097 -24.303382 204.03972 -24.355469 203.85742 C -24.398869 203.66646 -24.419922 203.00543 -24.419922 201.87695 L -24.419922 196.30469 L -21.919922 196.30469 L -21.919922 193.38867 L -24.419922 193.38867 L -24.419922 188.50586 z M -80.316406 192.34961 C -77.449659 192.34961 -75.167972 194.6313 -75.167969 197.49805 C -75.167968 200.36479 -77.449656 202.64453 -80.316406 202.64453 C -83.183157 202.64453 -85.462892 200.36479 -85.462891 197.49805 C -85.462888 194.6313 -83.183154 192.34961 -80.316406 192.34961 z M -11.763672 193.07617 C -12.683811 193.07617 -13.522135 193.29254 -14.277344 193.72656 C -15.032552 194.1606 -15.631511 194.72548 -16.074219 195.41992 L -16.074219 193.38867 L -19.486328 193.38867 L -19.486328 212.47656 L -15.826172 212.47656 L -15.826172 205.50977 C -15.140408 206.24761 -14.489367 206.76845 -13.873047 207.07227 C -13.248047 207.37609 -12.554905 207.5293 -11.791016 207.5293 C -10.185113 207.5293 -8.8179256 206.89127 -7.6894531 205.61523 C -6.5609806 204.33051 -5.9960938 202.53363 -5.9960938 200.22461 C -5.9960938 197.97634 -6.5559893 196.22158 -7.6757812 194.96289 C -8.7955732 193.70421 -10.157768 193.07617 -11.763672 193.07617 z M -2.3886719 193.38867 L -2.3886719 197.04688 L 1.2695312 197.04688 L 1.2695312 193.38867 L -2.3886719 193.38867 z M -12.753906 195.9668 C -11.894531 195.9668 -11.173394 196.31836 -10.591797 197.02148 C -10.0102 197.72461 -9.7207031 198.80035 -9.7207031 200.25 C -9.7207031 201.80382 -10.00217 202.92361 -10.566406 203.60938 C -11.130642 204.28645 -11.838759 204.625 -12.689453 204.625 C -13.57487 204.625 -14.325087 204.25542 -14.941406 203.51758 C -15.557726 202.77105 -15.865234 201.62218 -15.865234 200.06836 C -15.865234 198.71419 -15.570746 197.69357 -14.980469 197.00781 C -14.390191 196.31337 -13.648004 195.9668 -12.753906 195.9668 z M -2.3886719 203.55664 L -2.3886719 207.2168 L 1.2695312 207.2168 L 1.2695312 203.55664 L -2.3886719 203.55664 z " /></g></svg>
