<?xml version="1.0" encoding="UTF-8" standalone="no"?>
<!-- Svg Vector Icons : http://www.onlinewebfonts.com/icon -->

<svg
   version="1.1"
   x="0px"
   y="0px"
   viewBox="0 0 256 256"
   enable-background="new 0 0 1000 1000"
   xml:space="preserve"
   id="svg30"
   sodipodi:docname="78b116a6c23a4550740f505eb9591029.svg"
   inkscape:version="1.2 (dc2aedaf03, 2022-05-15)"
   width="256"
   height="256"
   xmlns:inkscape="http://www.inkscape.org/namespaces/inkscape"
   xmlns:sodipodi="http://sodipodi.sourceforge.net/DTD/sodipodi-0.dtd"
   xmlns="http://www.w3.org/2000/svg"
   xmlns:svg="http://www.w3.org/2000/svg"><g
   id="g2272"
   transform="matrix(0.125,0,0,0.125,29.993184,61.644459)"
   style="fill:#20d0a8;fill-opacity:1"><path
     id="path2195"
     d="M 225.91016,336.53516 C 209.11037,336.1084 189.37499,338.1875 180.5,340.5 c -16.19998,4.2 -27.50079,15.89923 -34.80078,29.69922 -7.19999,13.79998 -10.49883,55.40158 -9.79883,70.10156 0.3,6.59999 3.69961,17.70001 4.59961,24.5 0.5,3.5 1.00078,3.59961 1.30078,6.09961 -0.6,-0.3 -1.20117,-0.40039 -1.70117,-0.40039 -5.89999,0.4 -0.29921,26.39963 4.30078,44.59961 4.6,18.19998 9.2,19.00039 11.5,22.90039 2.3,3.9 2.59883,19.90001 7.29883,26 0.7,1 1.80117,2.4 3.20117,4 l 0.90039,12.69922 1.5,7.10156 c -0.7,-2 -2.10078,-3.30117 -2.80078,-0.70117 -2,6.89999 -4,13.90079 -6,20.80078 -0.2,-0.4 -0.50039,-0.59961 -0.90039,-0.59961 -1.9,-1.9 -4.50039,-0.30117 -6.90039,4.29883 -3.5,6.69999 -14.99845,16.30079 -28.39844,23.30078 l -0.20117,0.79883 -0.19922,0.90039 -0.0996,0.40039 c -1,0.5 -2.10117,1.1 -3.20117,1.5 L 49.400391,671.09961 C 34.300406,677.9996 9.9007811,682.5008 9.8007812,703.30078 v 66.79883 H 433.69922 l 0.20117,-70.19922 c -0.1,-20.79998 -28.49962,-21.70118 -43.59961,-28.70117 L 319.59961,638.59961 316,636.80078 c -12.59999,-6.59999 -23.59922,-15.70157 -27.69922,-22.10156 L 288.09961,614.5 v -0.0996 c -0.2,-0.4 -0.49922,-0.80117 -0.69922,-1.20117 l -0.20117,-0.39844 v -0.10156 L 287.09961,612.5 c -1.9,-3.2 -3.80039,-4.69961 -5.40039,-4.09961 l -0.0996,0.0996 -0.0996,0.0996 h -0.0996 l -0.0996,0.0996 c -1.9,1.1 -1.50078,-0.1 -2.30078,-2.5 -1.9,-6 -5.1,-17.29844 -5.5,-18.89844 -0.7,-3.1 -2.70078,4.89882 -2.30078,-3.70117 L 272,568 c 1.3,-1.6 2.29961,-2.90039 3.09961,-3.90039 4.59999,-5.99999 4.90117,-22.1 7.20117,-26 2.3,-3.9 6.90001,-4.70041 11.5,-22.90039 4.6,-18.19998 10.19882,-44.09961 4.29883,-44.59961 -1.5,-0.1 -3.09883,1.00117 -4.79883,2.70117 1,-6.69999 3.29922,-21.80001 3.69922,-33 C 297.7,425.6008 295.50077,387.79999 288.30078,374 283.80079,365.40001 274.60038,356.7996 265.40039,350.09961 259.9004,346.09961 254.5,342.7 250,340.5 c -4.9875,-2.55 -14.00997,-3.70879 -24.08984,-3.96484 z m -9.59766,20.81054 c 42.91094,0 77.87109,34.96015 77.87109,77.8711 0,42.91093 -34.96015,77.87109 -77.87109,77.87109 -42.91094,0 -77.87109,-34.96016 -77.87109,-77.87109 0,-42.91095 34.96015,-77.8711 77.87109,-77.8711 z m 0,16.19922 c -34.15584,0 -61.66992,27.51604 -61.66992,61.67188 0,34.15582 27.51408,61.66992 61.66992,61.66992 34.15583,0 61.67188,-27.5141 61.67188,-61.66992 0,-34.15584 -27.51605,-61.67188 -61.67188,-61.67188 z m -19.98047,39.22266 c 0.46267,-0.0134 0.92691,0.005 1.38867,0.0586 1.23136,0.14236 2.44493,0.52641 3.56446,1.17188 2.53301,1.46043 4.01311,4.02538 4.4707,6.77539 a 9,9 0 0 1 0.17187,2.26367 c -0.0211,0.30792 -0.068,0.59664 -0.11914,0.90234 a 9,9 0 0 1 -1.02148,3.10352 c -2.58194,4.47813 -8.56679,6.0878 -13.04492,3.50586 -4.47811,-2.58188 -6.08768,-8.56872 -3.50586,-13.04688 1.69436,-2.9388 4.857,-4.6407 8.0957,-4.73437 z m 39.59961,0 c 0.46267,-0.0134 0.92691,0.005 1.38867,0.0586 1.23136,0.14236 2.44493,0.52641 3.56446,1.17188 2.53301,1.46043 4.01506,4.02538 4.47265,6.77539 a 9,9 0 0 1 0.16992,2.26367 c -0.0211,0.30792 -0.0661,0.59664 -0.11718,0.90234 a 9,9 0 0 1 -1.02149,3.10352 c -2.58194,4.47813 -8.56874,6.0878 -13.04687,3.50586 -4.47811,-2.58188 -6.08768,-8.56872 -3.50586,-13.04688 1.69435,-2.9388 4.857,-4.6407 8.0957,-4.73437 z m -38.54102,1.14258 c -0.44696,-0.0119 -0.88899,0.0993 -1.33789,0.1289 a 9,9 0 0 1 3.14063,0.41211 c -0.53883,-0.17755 -1.05474,-0.46354 -1.61133,-0.52734 -0.0641,-0.007 -0.12755,-0.012 -0.19141,-0.0137 z m 39.59961,0 c -0.44696,-0.0119 -0.88704,0.0993 -1.33593,0.1289 a 9,9 0 0 1 3.13867,0.41211 c -0.53883,-0.17755 -1.05279,-0.46354 -1.60938,-0.52734 -0.0641,-0.007 -0.1295,-0.012 -0.19336,-0.0137 z m -42.88281,0.37109 c -2.0075,0.6017 -3.81797,1.87576 -4.91211,3.77344 a 9,9 0 0 1 4.91211,-3.77344 z m -4.91211,3.77344 c -1.09439,1.89823 -1.29228,4.10329 -0.80664,6.14258 a 9,9 0 0 1 0.80664,-6.14258 z m 44.51172,-3.77344 c -2.0075,0.6017 -3.81797,1.87576 -4.91211,3.77344 a 9,9 0 0 1 4.91211,-3.77344 z m -4.91211,3.77344 c -1.09439,1.89823 -1.29033,4.10329 -0.80469,6.14258 a 9,9 0 0 1 0.80469,-6.14258 z m -39.64062,7.93945 c 0.47559,0.96445 1.11678,1.79247 1.93359,2.51953 a 9,9 0 0 1 -1.93359,-2.51953 z m 39.59961,0 c 0.47559,0.96445 1.11678,1.79247 1.93359,2.51953 a 9,9 0 0 1 -1.93359,-2.51953 z M 175.48828,438.25 a 6.75,6.75 0 0 1 5.36524,2.9668 c 12.8759,19.04799 24.82135,27.22002 35.18164,27.33398 10.36029,0.11395 22.41798,-7.71786 35.74609,-27.3457 a 6.75,6.75 0 0 1 4.31641,-2.83789 6.75,6.75 0 0 1 5.05859,1.04687 6.75,6.75 0 0 1 1.79297,9.375 c -14.51674,21.3783 -30.05826,33.4468 -47.0625,33.25977 -17.00424,-0.18702 -32.18945,-12.51724 -46.21875,-33.27149 a 6.75,6.75 0 0 1 1.8125,-9.37304 6.75,6.75 0 0 1 4.00781,-1.1543 z"
     style="fill:#20d0a8;fill-opacity:1" /><path
     d="m 984,297.6 -61.9,-80.3 c -3.9,-5 -9.1,-7.8 -14.6,-7.8 H 690.9 c -17.1,0 -30.9,18 -30.9,40.1 v 321 c 0,22.1 13.9,40.1 30.9,40.1 h 268.2 c 17.1,0 30.9,-18 30.9,-40.1 v -254 c 0,-7.1 -2.2,-13.9 -6,-19 z m -14.6,273.1 c 0,7.4 -4.6,13.4 -10.3,13.4 H 690.9 c -5.7,0 -10.3,-6 -10.3,-13.4 v -321 c 0,-7.4 4.6,-13.4 10.3,-13.4 h 206.3 v 53.5 0 c 0,22.2 13.9,40.1 30.9,40.1 h 41.3 z m -31,-254.1 h -10.3 c -11.4,0 -20.6,-12 -20.6,-26.8 v 0 -53.5 l 61.9,80.3 z"
     id="path2008"
     style="fill:#20d0a8;fill-opacity:1" /><path
     d="m 819.8,303.2 h 51.6 c 2.8,0 5.2,-3 5.2,-6.7 0,-3.7 -2.3,-6.7 -5.2,-6.7 h -51.6 c -2.8,0 -5.2,3 -5.2,6.7 0,3.7 2.4,6.7 5.2,6.7 z"
     id="path2005"
     style="fill:#20d0a8;fill-opacity:1" /><path
     d="m 819.8,343.3 h 51.6 c 2.8,0 5.2,-3 5.2,-6.7 0,-3.7 -2.3,-6.7 -5.2,-6.7 h -51.6 c -2.8,0 -5.2,3 -5.2,6.7 0,3.7 2.4,6.7 5.2,6.7 z"
     id="path2002"
     style="fill:#20d0a8;fill-opacity:1" /><path
     d="m 814.6,376.8 c 0,3.7 2.3,6.7 5.2,6.7 h 123.8 c 2.8,0 5.2,-3 5.2,-6.7 0,-3.7 -2.3,-6.7 -5.2,-6.7 H 819.8 c -2.8,0 -5.2,3 -5.2,6.7 z"
     id="path1999"
     style="fill:#20d0a8;fill-opacity:1" /><path
     d="M 943.6,450.3 H 706.3 c -2.8,0 -5.2,3 -5.2,6.7 0,3.7 2.3,6.7 5.2,6.7 h 237.3 c 2.8,0 5.2,-3 5.2,-6.7 -0.1,-3.7 -2.4,-6.7 -5.2,-6.7 z"
     id="path1996"
     style="fill:#20d0a8;fill-opacity:1" /><path
     d="M 943.6,490.5 H 706.3 c -2.8,0 -5.2,3 -5.2,6.7 0,3.7 2.3,6.7 5.2,6.7 h 237.3 c 2.8,0 5.2,-3 5.2,-6.7 -0.1,-3.7 -2.4,-6.7 -5.2,-6.7 z"
     id="path1993"
     style="fill:#20d0a8;fill-opacity:1" /><path
     d="M 943.6,530.6 H 706.3 c -2.8,0 -5.2,3 -5.2,6.7 0,3.7 2.3,6.7 5.2,6.7 h 237.3 c 2.8,0 5.2,-3 5.2,-6.7 -0.1,-3.7 -2.4,-6.7 -5.2,-6.7 z"
     id="path1990"
     style="fill:#20d0a8;fill-opacity:1" /><path
     d="M 943.6,410.2 H 706.3 c -2.8,0 -5.2,3 -5.2,6.7 0,3.7 2.3,6.7 5.2,6.7 h 237.3 c 2.8,0 5.2,-3 5.2,-6.7 -0.1,-3.7 -2.4,-6.7 -5.2,-6.7 z"
     id="path1987"
     style="fill:#20d0a8;fill-opacity:1" /><path
     d="m 711.5,383.5 h 72.2 c 5.7,0 10.3,-6 10.3,-13.4 v -80.3 c 0,-7.4 -4.6,-13.4 -10.3,-13.4 h -72.2 c -5.7,0 -10.3,6 -10.3,13.4 v 80.3 c 0,7.4 4.6,13.4 10.3,13.4 z m 10.3,-80.3 h 51.6 v 53.5 h -51.6 z"
     id="path1984"
     style="fill:#20d0a8;fill-opacity:1" /><path
     d="m 869.18302,681.4778 c -7.9461,-4.3011 -17.8605,-1.3851 -22.2345,6.4881 -53.6544,98.1234 -157.3182,159.0678 -270.5319,159.0678 -35.3565,0 -69.984,-5.832 -102.9348,-17.3502 -0.2187,-0.0729 -0.5103,-0.1458 -0.729,-0.2187 l 19.2456,-33.534 h -105.4863 l 48.6972,98.9982 21.7971,-37.908 c 1.6038,1.5309 3.5721,2.7702 5.7591,3.4992 36.45,12.7575 74.7225,19.1727 113.724,19.1727 125.2422,0 239.9139,-67.4325 299.2545,-176.0535 4.3011,-7.8732 1.3851,-17.7876 -6.561,-22.1616 z"
     id="path1981"
     style="stroke-width:0.729;fill:#20d0a8;fill-opacity:1" /><path
     d="m 594.69711,154.70658 -14.5071,30.4722 101.4039,-8.5293 -58.1013,-82.449901 -14.4342,30.399301 c -28.8684,-7.7274 -58.6845,-11.5911 -88.938,-11.5911 -54.3105,0 -106.2153,12.2472 -154.2564,36.3771 -45.8541,23.0364 -86.4594,56.7162 -117.4419,97.3215 -5.4675,7.2171 -4.0824,17.4231 3.0618,22.9635 2.9889,2.2599 6.4881,3.3534 9.9144,3.3534 4.9572,0 9.7686,-2.187 13.0491,-6.4152 58.5387,-76.8366 148.0599,-120.8682 245.6001,-120.8682 25.3692,0 50.3739,3.0618 74.6496,8.9667 z"
     id="path1978"
     style="stroke-width:0.729;fill:#20d0a8;fill-opacity:1" /><path
     id="path2251"
     d="M 1425.9102,16.53516 C 1409.1104,16.1084 1389.375,18.1875 1380.5,20.5 c -16.2,4.2 -27.5008,15.89923 -34.8008,29.69922 -7.2,13.79998 -10.4988,55.40158 -9.7988,70.10156 0.3,6.59999 3.6996,17.70001 4.5996,24.5 0.5,3.5 1.0008,3.59961 1.3008,6.09961 -0.6,-0.3 -1.2012,-0.40039 -1.7012,-0.40039 -5.9,0.4 -0.2992,26.39963 4.3008,44.59961 4.6,18.19998 9.2,19.00039 11.5,22.90039 2.3,3.9 2.5988,19.90001 7.2988,26 0.7,1 1.8012,2.4 3.2012,4 l 0.9004,12.69922 1.5,7.10156 c -0.7,-2 -2.1008,-3.30117 -2.8008,-0.70117 -2,6.89999 -4,13.90079 -6,20.80078 -0.2,-0.4 -0.5004,-0.59961 -0.9004,-0.59961 -1.9,-1.9 -4.5004,-0.30117 -6.9004,4.29883 -3.5,6.69999 -14.9984,16.30079 -28.3984,23.30078 l -0.2012,0.79883 -0.1992,0.90039 -0.1,0.40039 c -1,0.5 -2.1012,1.1 -3.2012,1.5 L 1249.4,351.09961 c -15.1,6.89999 -39.4996,11.40119 -39.5996,32.20117 v 66.79883 h 423.8984 l 0.2012,-70.19922 c -0.1,-20.79998 -28.4996,-21.70118 -43.5996,-28.70117 L 1519.5996,318.59961 1516,316.80078 c -12.6,-6.59999 -23.5992,-15.70157 -27.6992,-22.10156 L 1488.0996,294.5 v -0.0996 c -0.2,-0.4 -0.4992,-0.80117 -0.6992,-1.20117 l -0.2012,-0.39844 v -0.10156 l -0.1,-0.19923 c -1.9,-3.2 -3.8004,-4.69961 -5.4004,-4.09961 l -0.1,0.0996 -0.1,0.0996 h -0.1 l -0.1,0.0996 c -1.9,1.1 -1.5008,-0.1 -2.3008,-2.5 -1.9,-6 -5.1,-17.29844 -5.5,-18.89844 -0.7,-3.1 -2.7007,4.89882 -2.3007,-3.70117 L 1472,248 c 1.3,-1.6 2.2996,-2.90039 3.0996,-3.90039 4.6,-5.99999 4.9012,-22.1 7.2012,-26 2.3,-3.9 6.9,-4.70041 11.5,-22.90039 4.6,-18.19998 10.1988,-44.09961 4.2988,-44.59961 -1.5,-0.1 -3.0988,1.00117 -4.7988,2.70117 1,-6.69999 3.2992,-21.80001 3.6992,-33 0.7,-14.69998 -1.4992,-52.50079 -8.6992,-66.30078 -4.5,-8.59999 -13.7004,-17.2004 -22.9004,-23.90039 -5.5,-4 -10.9004,-7.39961 -15.4004,-9.59961 -4.9875,-2.55 -14.01,-3.70879 -24.0898,-3.96484 z m -9.5977,20.81054 c 42.9109,0 77.8711,34.96015 77.8711,77.8711 0,42.91093 -34.9602,77.87109 -77.8711,77.87109 -42.9109,0 -77.8711,-34.96016 -77.8711,-77.87109 0,-42.91095 34.9602,-77.8711 77.8711,-77.8711 z m 0,16.19922 c -34.1558,0 -61.6699,27.51604 -61.6699,61.67188 0,34.15582 27.5141,61.66992 61.6699,61.66992 34.1558,0 61.6719,-27.5141 61.6719,-61.66992 0,-34.15584 -27.5161,-61.67188 -61.6719,-61.67188 z m -19.9805,39.22266 c 0.4627,-0.0134 0.9269,0.005 1.3887,0.0586 1.2314,0.14236 2.4449,0.52641 3.5645,1.17188 2.533,1.46043 4.0131,4.02538 4.4707,6.77539 a 9,9 0 0 1 0.1718,2.26367 c -0.021,0.30792 -0.068,0.59664 -0.1191,0.90234 a 9,9 0 0 1 -1.0215,3.10352 c -2.5819,4.47813 -8.5668,6.0878 -13.0449,3.50586 -4.4781,-2.58188 -6.0877,-8.56872 -3.5059,-13.04688 1.6944,-2.9388 4.857,-4.6407 8.0957,-4.73437 z m 39.5996,0 c 0.4627,-0.0134 0.927,0.005 1.3887,0.0586 1.2314,0.14236 2.4449,0.52641 3.5645,1.17188 2.533,1.46043 4.015,4.02538 4.4726,6.77539 a 9,9 0 0 1 0.1699,2.26367 c -0.021,0.30792 -0.066,0.59664 -0.1171,0.90234 a 9,9 0 0 1 -1.0215,3.10352 c -2.582,4.47813 -8.5688,6.0878 -13.0469,3.50586 -4.4781,-2.58188 -6.0877,-8.56872 -3.5059,-13.04688 1.6944,-2.9388 4.857,-4.6407 8.0957,-4.73437 z m -38.541,1.14258 c -0.4469,-0.0119 -0.889,0.0993 -1.3379,0.1289 a 9,9 0 0 1 3.1407,0.41211 c -0.5389,-0.17755 -1.0548,-0.46354 -1.6114,-0.52734 -0.064,-0.007 -0.1275,-0.012 -0.1914,-0.0137 z m 39.5996,0 c -0.4469,-0.0119 -0.887,0.0993 -1.3359,0.1289 a 9,9 0 0 1 3.1387,0.41211 c -0.5389,-0.17755 -1.0528,-0.46354 -1.6094,-0.52734 -0.064,-0.007 -0.1295,-0.012 -0.1934,-0.0137 z m -42.8828,0.37109 c -2.0075,0.6017 -3.8179,1.87576 -4.9121,3.77344 a 9,9 0 0 1 4.9121,-3.77344 z m -4.9121,3.77344 c -1.0944,1.89823 -1.2923,4.10329 -0.8066,6.14258 a 9,9 0 0 1 0.8066,-6.14258 z m 44.5117,-3.77344 c -2.0075,0.6017 -3.8179,1.87576 -4.9121,3.77344 a 9,9 0 0 1 4.9121,-3.77344 z m -4.9121,3.77344 c -1.0944,1.89823 -1.2903,4.10329 -0.8047,6.14258 a 9,9 0 0 1 0.8047,-6.14258 z m -39.6406,7.93945 c 0.4756,0.96445 1.1168,1.79247 1.9336,2.51953 a 9,9 0 0 1 -1.9336,-2.51953 z m 39.5996,0 c 0.4756,0.96445 1.1168,1.79247 1.9336,2.51953 a 9,9 0 0 1 -1.9336,-2.51953 z M 1375.4883,118.25 a 6.75,6.75 0 0 1 5.3652,2.9668 c 12.8759,19.04799 24.8214,27.22002 35.1817,27.33398 10.3602,0.11395 22.4179,-7.71786 35.746,-27.3457 a 6.75,6.75 0 0 1 4.3165,-2.83789 6.75,6.75 0 0 1 5.0585,1.04687 6.75,6.75 0 0 1 1.793,9.375 c -14.5167,21.3783 -30.0582,33.4468 -47.0625,33.25977 -17.0042,-0.18702 -32.1894,-12.51724 -46.2187,-33.27149 a 6.75,6.75 0 0 1 1.8125,-9.37304 6.75,6.75 0 0 1 4.0078,-1.1543 z"
     style="fill:#20d0a8;fill-opacity:1" /><path
     d="m 1457.183,531.4778 c -7.9461,-4.3011 -17.8605,-1.3851 -22.2345,6.4881 -53.6544,98.1234 -157.3182,159.0678 -270.5319,159.0678 -35.3565,0 -69.984,-5.832 -102.9348,-17.3502 -0.2187,-0.0729 -0.5103,-0.1458 -0.729,-0.2187 l 19.2456,-33.534 H 974.51212 l 48.69718,98.9982 21.7971,-37.908 c 1.6038,1.5309 3.5721,2.7702 5.7591,3.4992 36.45,12.7575 74.7225,19.1727 113.724,19.1727 125.2422,0 239.9139,-67.4325 299.2545,-176.0535 4.3011,-7.8732 1.3851,-17.7876 -6.561,-22.1616 z"
     id="path2253"
     style="stroke-width:0.729;fill:#20d0a8;fill-opacity:1" /><path
     d="m 1206.6971,36.706579 -14.5071,30.4722 101.4039,-8.5293 -58.1013,-82.4499 -14.4342,30.3993 c -28.8684,-7.7274 -58.6845,-11.5911 -88.938,-11.5911 -54.3105,0 -106.2153,12.2472 -154.25639,36.3771 -45.8541,23.0364 -86.4594,56.7162 -117.4419,97.321501 -5.4675,7.2171 -4.0824,17.4231 3.0618,22.9635 2.9889,2.2599 6.4881,3.3534 9.9144,3.3534 4.9572,0 9.7686,-2.187 13.0491,-6.4152 58.5387,-76.836601 148.05989,-120.868201 245.60009,-120.868201 25.3692,0 50.3739,3.0618 74.6496,8.9667 z"
     id="path2255"
     style="stroke-width:0.729;fill:#20d0a8;fill-opacity:1" /></g><defs
   id="defs34" /><sodipodi:namedview
   id="namedview32"
   pagecolor="#505050"
   bordercolor="#eeeeee"
   borderopacity="1"
   inkscape:showpageshadow="0"
   inkscape:pageopacity="0"
   inkscape:pagecheckerboard="0"
   inkscape:deskcolor="#505050"
   showgrid="false"
   inkscape:zoom="1.2770348"
   inkscape:cx="189.89302"
   inkscape:cy="77.523335"
   inkscape:window-width="1835"
   inkscape:window-height="1057"
   inkscape:window-x="-8"
   inkscape:window-y="-8"
   inkscape:window-maximized="1"
   inkscape:current-layer="svg30" />
<metadata
   id="metadata2"> Svg Vector Icons : http://www.onlinewebfonts.com/icon </metadata>

</svg>
