<?xml version="1.0" encoding="UTF-8" standalone="no"?>
<!-- Created with Inkscape (http://www.inkscape.org/) -->

<svg
   width="128"
   height="128"
   viewBox="0 0 128 128"
   version="1.1"
   id="svg5"
   xml:space="preserve"
   inkscape:version="1.2 (dc2aedaf03, 2022-05-15)"
   sodipodi:docname="ftp.svg"
   inkscape:export-filename="fc.png"
   inkscape:export-xdpi="96"
   inkscape:export-ydpi="96"
   xmlns:inkscape="http://www.inkscape.org/namespaces/inkscape"
   xmlns:sodipodi="http://sodipodi.sourceforge.net/DTD/sodipodi-0.dtd"
   xmlns="http://www.w3.org/2000/svg"
   xmlns:svg="http://www.w3.org/2000/svg"><sodipodi:namedview
     id="namedview7"
     pagecolor="#505050"
     bordercolor="#eeeeee"
     borderopacity="1"
     inkscape:showpageshadow="0"
     inkscape:pageopacity="0"
     inkscape:pagecheckerboard="0"
     inkscape:deskcolor="#505050"
     inkscape:document-units="px"
     showgrid="false"
     inkscape:zoom="1.1376503"
     inkscape:cx="388.08059"
     inkscape:cy="-53.179786"
     inkscape:window-width="1814"
     inkscape:window-height="1051"
     inkscape:window-x="-9"
     inkscape:window-y="-9"
     inkscape:window-maximized="1"
     inkscape:current-layer="layer1" /><defs
     id="defs2" /><g
     inkscape:label="Camada 1"
     inkscape:groupmode="layer"
     id="layer1"><g
       id="g3447" /><g
       id="g1072"
       style="fill:#60a8d0;fill-opacity:1"><path
         style="fill:#60a8d0;fill-opacity:1;stroke:none;stroke-width:3.24;stroke-linecap:round;stroke-dasharray:none;stroke-opacity:0.889169;paint-order:stroke markers fill"
         d="m 371.50693,66.311205 c -3.89602,1.94819 -17.05828,8.289309 -22.8125,16.103515 -2.08351,-1.76844 -3.49605,-3.265725 -8.23828,-5.388671 l -2.49219,2.353515 c 5.01056,4.588706 7.62663,7.470456 11.69922,12.806636 2.64587,-7.51476 9.20945,-13.836734 22.11914,-23.644526 z"
         id="path402" /><path
         style="fill:#60a8d0;fill-opacity:1;stroke:none;stroke-width:3.24;stroke-linecap:round;stroke-dasharray:none;stroke-opacity:0.889169;paint-order:stroke markers fill"
         d="m 371.50693,37.278002 c -3.89602,1.948189 -17.05828,8.287354 -22.8125,16.101562 -2.08351,-1.768446 -3.49605,-3.263777 -8.23828,-5.386718 l -2.49219,2.355468 c 5.01056,4.588712 7.62663,7.47045 11.69922,12.806641 2.64587,-7.514767 9.20945,-13.836735 22.11914,-23.644531 z"
         id="path392" /><path
         style="fill:#60a8d0;fill-opacity:1;stroke:none;stroke-width:3.24;stroke-linecap:round;stroke-dasharray:none;stroke-opacity:0.889169;paint-order:stroke markers fill"
         d="m 371.50693,8.244799 c -3.89602,1.948189 -17.05828,8.287354 -22.8125,16.101562 -2.08351,-1.768446 -3.49605,-3.263776 -8.23828,-5.386718 l -2.49219,2.355468 c 5.01056,4.588712 7.62663,7.468497 11.69922,12.804688 2.64587,-7.514768 9.20945,-13.834782 22.11914,-23.642578 z"
         id="path388" /><g
         id="g408"
         transform="translate(0,-20)"
         style="fill:#60a8d0;fill-opacity:1"><path
           id="path384"
           style="fill:#60a8d0;fill-opacity:1;stroke:none;stroke-width:3.24;stroke-linecap:round;stroke-dasharray:none;stroke-opacity:0.889169;paint-order:stroke markers fill"
           d="m 255.13583,28.244799 c -0.64097,0 -1.15625,0.515281 -1.15625,1.15625 v 3.794922 c -3.08175,0.209113 -5.49414,2.459387 -5.49414,5.228515 v 36.400391 c 0,0.915453 0.26443,1.773743 0.72852,2.521484 l 5.7207,-32.443359 c 0.51277,-2.908032 3.58428,-5.248047 6.88672,-5.248047 h 64.42969 v -1.230469 c 0,-2.908032 -2.65849,-5.25 -5.96094,-5.25 H 281.9249 v -3.773437 c 0,-0.64097 -0.51528,-1.15625 -1.15625,-1.15625 z m 8.30469,14.650391 c -3.30244,0 -6.37395,2.340011 -6.88672,5.248046 l -6.41797,36.402344 c -0.51276,2.908035 1.73272,5.248047 5.03516,5.248047 h 65.84375 c 3.30244,0 6.37397,-2.340012 6.88672,-5.248047 l 6.41797,-36.402344 c 0.51278,-2.908035 -1.73272,-5.248046 -5.03516,-5.248046 z m 25.54688,50.020081 v 12.790469 h -4.85938 v 1.62109 h -22.67969 v 4.41421 h 22.67969 v 1.62109 h 12.95899 v -1.62109 h 22.67968 v -4.41421 h -22.67968 v -1.62109 h -4.85938 V 92.915271 Z"
           sodipodi:nodetypes="sscsscsscsscssssccssccssccccccccccccccccc" /></g><path
         id="path360"
         style="color:#000000;fill:#60a8d0;stroke-width:3.79749;stroke-linecap:round;stroke-linejoin:round;paint-order:stroke markers fill;fill-opacity:1"
         d="m 184.35221,-27.159036 c -19.09574,0 -34.73368,15.64538 -34.73368,34.7411797 0,19.0956403 15.63794,34.7336993 34.73368,34.7336993 7.42259,0 14.31764,-2.36837 19.9814,-6.37851 l 24.21646,24.223871 a 7.5949966,7.5949966 0 0 0 10.73979,0 7.5949966,7.5949966 0 0 0 0,-10.747271 l -24.7431,-24.743049 c 2.88349,-5.05556 4.54669,-10.88614 4.54669,-17.0887403 -1e-4,-19.0957997 -15.64553,-34.7411797 -34.74124,-34.7411797 z m -0.22261,10.99942 A 23.053194,23.053192 0 0 1 207.18901,6.8923637 23.053194,23.053192 0 0 1 184.1296,29.944314 23.053194,23.053192 0 0 1 161.07764,6.8923637 23.053194,23.053192 0 0 1 184.1296,-16.159616 Z" /><g
         id="g1041"
         transform="matrix(0.85,0,0,0.85,-58.469639,30.62052)"
         style="fill:#60a8d0;fill-opacity:1"><path
           id="path1039"
           style="fill:#60a8d0;fill-opacity:1;stroke:none;stroke-width:3.24;stroke-linecap:round;stroke-dasharray:none;stroke-opacity:0.889169;paint-order:stroke markers fill"
           d="m 255.13583,28.244799 c -0.64097,0 -1.15625,0.515281 -1.15625,1.15625 v 3.794922 c -3.08175,0.209113 -5.49414,2.459387 -5.49414,5.228515 v 36.400391 c 0,0.915453 0.26443,1.773743 0.72852,2.521484 l 5.7207,-32.443359 c 0.51277,-2.908032 3.58428,-5.248047 6.88672,-5.248047 h 64.42969 v -1.230469 c 0,-2.908032 -2.65849,-5.25 -5.96094,-5.25 H 281.9249 v -3.773437 c 0,-0.64097 -0.51528,-1.15625 -1.15625,-1.15625 z m 8.30469,14.650391 c -3.30244,0 -6.37395,2.340011 -6.88672,5.248046 l -6.41797,36.402344 c -0.51276,2.908035 1.73272,5.248047 5.03516,5.248047 h 65.84375 c 3.30244,0 6.37397,-2.340012 6.88672,-5.248047 l 6.41797,-36.402344 c 0.51278,-2.908035 -1.73272,-5.248046 -5.03516,-5.248046 z m 25.54688,50.020081 v 12.790469 h -4.85938 v 1.62109 h -22.67969 v 4.41421 h 22.67969 v 1.62109 h 12.95899 v -1.62109 h 22.67968 v -4.41421 h -22.67968 v -1.62109 h -4.85938 V 92.915271 Z"
           sodipodi:nodetypes="sscsscsscsscssssccssccssccccccccccccccccc" /></g><g
         id="g1045"
         transform="matrix(0.6936,0,0,0.6936,-101.91313,61.694182)"
         style="fill:#60a8d0;fill-opacity:1"><path
           id="path1043"
           style="fill:#60a8d0;fill-opacity:1;stroke:none;stroke-width:3.24;stroke-linecap:round;stroke-dasharray:none;stroke-opacity:0.889169;paint-order:stroke markers fill"
           d="m 255.13583,28.244799 c -0.64097,0 -1.15625,0.515281 -1.15625,1.15625 v 3.794922 c -3.08175,0.209113 -5.49414,2.459387 -5.49414,5.228515 v 36.400391 c 0,0.915453 0.26443,1.773743 0.72852,2.521484 l 5.7207,-32.443359 c 0.51277,-2.908032 3.58428,-5.248047 6.88672,-5.248047 h 64.42969 v -1.230469 c 0,-2.908032 -2.65849,-5.25 -5.96094,-5.25 H 281.9249 v -3.773437 c 0,-0.64097 -0.51528,-1.15625 -1.15625,-1.15625 z m 8.30469,14.650391 c -3.30244,0 -6.37395,2.340011 -6.88672,5.248046 l -6.41797,36.402344 c -0.51276,2.908035 1.73272,5.248047 5.03516,5.248047 h 65.84375 c 3.30244,0 6.37397,-2.340012 6.88672,-5.248047 l 6.41797,-36.402344 c 0.51278,-2.908035 -1.73272,-5.248046 -5.03516,-5.248046 z m 25.54688,50.020081 v 12.790469 h -4.85938 v 1.62109 h -22.67969 v 4.41421 h 22.67969 v 1.62109 h 12.95899 v -1.62109 h 22.67968 v -4.41421 h -22.67968 v -1.62109 h -4.85938 V 92.915271 Z"
           sodipodi:nodetypes="sscsscsscsscssssccssccssccccccccccccccccc" /></g></g></g></svg>
