<?xml version="1.0" encoding="UTF-8" standalone="no"?>
<!-- Svg Vector Icons : http://www.onlinewebfonts.com/icon -->

<svg
   version="1.1"
   x="0px"
   y="0px"
   viewBox="0 0 1000 1000"
   enable-background="new 0 0 1000 1000"
   xml:space="preserve"
   id="svg12"
   sodipodi:docname="laptop.svg"
   inkscape:version="1.2 (dc2aedaf03, 2022-05-15)"
   xmlns:inkscape="http://www.inkscape.org/namespaces/inkscape"
   xmlns:sodipodi="http://sodipodi.sourceforge.net/DTD/sodipodi-0.dtd"
   xmlns="http://www.w3.org/2000/svg"
   xmlns:svg="http://www.w3.org/2000/svg"><defs
   id="defs16" /><sodipodi:namedview
   id="namedview14"
   pagecolor="#505050"
   bordercolor="#eeeeee"
   borderopacity="1"
   inkscape:showpageshadow="0"
   inkscape:pageopacity="0"
   inkscape:pagecheckerboard="0"
   inkscape:deskcolor="#505050"
   showgrid="false"
   inkscape:zoom="0.31466252"
   inkscape:cx="1221.9441"
   inkscape:cy="508.48128"
   inkscape:window-width="1835"
   inkscape:window-height="1057"
   inkscape:window-x="-8"
   inkscape:window-y="-8"
   inkscape:window-maximized="1"
   inkscape:current-layer="svg12" />
<metadata
   id="metadata2"> Svg Vector Icons : http://www.onlinewebfonts.com/icon </metadata>

<g
   id="g2156"><g
     id="g2139"
     style="fill:#60a8d0;fill-opacity:1"
     transform="matrix(0.9,0,0,0.9,16.112304,50.067656)"><path
       d="M 774.125,193.4 H 225.875 C 209.6,193.4 196.4,206.6 196.4,222.875 V 578 h 63.45 V 257.225 H 739.7 V 578 h 63.975 V 222.875 C 803.6,206.6 790.4,193.4 774.125,193.4 Z"
       id="path4"
       style="fill:#60a8d0;fill-opacity:1;stroke-width:0.75" /><path
       d="m 867.5,739.1 h -735 L 196.4,578 h 607.2 z"
       id="path6"
       style="fill:#60a8d0;fill-opacity:1;stroke-width:0.75" /><path
       d="M 835.55,806.6 H 164.45 L 132.5,742.475 h 735 z"
       id="path8"
       style="fill:#60a8d0;fill-opacity:1;stroke-width:0.75" /></g><g
     id="g2143"
     style="fill:#60a8d0;fill-opacity:1"
     transform="matrix(1.040604,0,0,1.040604,-61.433115,30.874143)"><path
       style="color:#000000;fill:#60a8d0;fill-opacity:1;stroke-linecap:round;stroke-linejoin:round;paint-order:stroke markers fill"
       d="m 1088.6895,163.37891 c -15.8887,0 -29.1094,13.22073 -29.1094,29.10937 v 462.70899 c 0,15.88864 13.2207,29.10937 29.1094,29.10937 h 848.582 c 15.8886,0 29.1113,-13.22073 29.1113,-29.10937 V 192.48828 c 0,-15.88864 -13.2227,-29.10937 -29.1113,-29.10937 z m 0,27.5625 h 848.582 c 1.0957,0 1.5488,0.45109 1.5488,1.54687 v 462.70899 c 0,1.09578 -0.4531,1.54687 -1.5488,1.54687 h -848.582 c -1.0958,0 -1.5469,-0.45109 -1.5469,-1.54687 V 192.48828 c 0,-1.09578 0.4511,-1.54687 1.5469,-1.54687 z"
       id="rect326" /><path
       style="color:#000000;fill:#60a8d0;fill-opacity:1;stroke-linecap:round;stroke-linejoin:round;paint-order:stroke markers fill"
       d="m 1336.041,710.83008 a 13.78125,13.78125 0 0 0 -13.7812,13.78125 13.78125,13.78125 0 0 0 13.7812,13.78125 h 353.8789 a 13.78125,13.78125 0 0 0 13.7813,-13.78125 13.78125,13.78125 0 0 0 -13.7813,-13.78125 z"
       id="path1260" /></g><g
     id="g2134"
     style="fill:#60a8d0;fill-opacity:1"
     transform="matrix(0.729,0,0,0.729,-47.14801,131.70125)"><path
       style="color:#000000;fill:#60a8d0;fill-opacity:1;stroke-linecap:round;stroke-linejoin:round;paint-order:stroke markers fill"
       d="m 225.27148,194.63281 c -12.31363,0 -22.61718,10.30354 -22.61718,22.61719 v 305.38672 c 0,12.31365 10.30355,22.61719 22.61718,22.61719 h 560.06446 c 12.31363,0 22.61719,-10.30355 22.61718,-22.61719 V 217.25 c 0,-12.31364 -10.30355,-22.61719 -22.61718,-22.61719 z m 2.38282,25 h 555.29882 v 300.6211 H 227.6543 Z"
       id="rect326-5"
       transform="rotate(90)" /><path
       style="color:#000000;fill:#60a8d0;fill-opacity:1;stroke-linecap:round;stroke-linejoin:round;paint-order:stroke markers fill"
       d="m -409.50586,251.86523 a 6.7866502,6.7866502 0 0 0 -6.78516,6.78711 6.7866502,6.7866502 0 0 0 6.78516,6.78516 h 79.12305 a 6.7866502,6.7866502 0 0 0 6.78711,-6.78516 6.7866502,6.7866502 0 0 0 -6.78711,-6.78711 z"
       id="path1288" /><path
       style="color:#000000;fill:#60a8d0;fill-opacity:1;stroke-linecap:round;stroke-linejoin:round;paint-order:stroke markers fill"
       d="m -372.47266,716.68555 a 25,25 0 0 0 -25,25 25,25 0 0 0 25,25 h 5.05664 a 25,25 0 0 0 25,-25 25,25 0 0 0 -25,-25 z"
       id="path1290" /></g></g></svg>
