<?xml version="1.0" encoding="UTF-8"?>
<svg width="752pt" height="752pt" version="1.1" viewBox="0 0 752 752" xmlns="http://www.w3.org/2000/svg">
 <path d="m183.79 219.84h161.77l-21.312 36.906c-11.148 19.309-8.3945 41.062 5.1289 56.164h-145.59v-93.07zm156 45.879 45.832-79.379c20.461-35.445 74.043-4.5078 53.582 30.934l-45.832 79.383c-20.461 35.441-74.043 4.5039-53.582-30.938zm25.539-31.062 6.1602-10.668 42.168 24.344-6.1523 10.672zm-207.84 97.145h437.04v39.793h-437.04zm222.79 106.99h140.29v95.773h-140.29zm77.625-218.95h110.33v93.07h-164.35c1.8477-2.25 3.5312-4.6836 5.0352-7.2891l45.832-79.379c1.2148-2.1094 2.2656-4.2461 3.1562-6.4062zm110.33 170.64v190.86h-244.61v-133.11h-90.379v133.11h-49.445v-190.86z" fill-rule="evenodd"/>
</svg>
