<?xml version="1.0" encoding="UTF-8"?>
<svg width="752pt" height="752pt" version="1.1" viewBox="0 0 752 752" xmlns="http://www.w3.org/2000/svg">
 <g fill="none" stroke="#000" stroke-linejoin="round" stroke-miterlimit="10" stroke-width="2">
  <path transform="matrix(7.3997 0 0 7.3997 139.21 139.21)" d="m5.0002 31h54v30h-54z"/>
  <path transform="matrix(7.3997 0 0 7.3997 139.21 139.21)" d="m40.435 11.536-9.9001 9.9001c-1.9532 1.9532-5.1179 1.9532-7.0711 0-1.9532-1.9532-1.9532-5.1179 0-7.0711l9.9001-9.9001c1.9532-1.9532 5.1179-1.9532 7.0711 0 1.9532 1.9521 1.9532 5.1179 0 7.0711z"/>
  <path transform="matrix(7.3997 0 0 7.3997 139.21 139.21)" d="m28.414 9.4139 7.0711 7.0711"/>
  <path transform="matrix(7.3997 0 0 7.3997 139.21 139.21)" d="m40.872 11c-0.13778 0.18318-0.27081 0.369-0.4371 0.53581l-9.9001 9.899c-1.9532 1.9532-5.1179 1.9532-7.0711 0-1.9532-1.9532-1.9532-5.1179 0-7.0711l3.3643-3.3637h-21.828v16h54v-16z"/>
  <path transform="matrix(7.3997 0 0 7.3997 139.21 139.21)" d="m25 45h14v8.0002h-14z"/>
  <path transform="matrix(7.3997 0 0 7.3997 139.21 139.21)" d="m25 53h14v8.0002h-14z"/>
  <path transform="matrix(7.3997 0 0 7.3997 139.21 139.21)" d="m25 37h14v8.0002h-14z"/>
  <path transform="matrix(7.3997 0 0 7.3997 139.21 139.21)" d="m9 37h12v16h-12z"/>
  <path transform="matrix(7.3997 0 0 7.3997 139.21 139.21)" d="m51 42v-3h-3.9998v3l-2.8939 1.447c-0.67834 0.33891-1.1065 1.032-1.1065 1.789v8.7636c0 1.1049 0.89478 2.0002 2.0002 2.0002h8.0002c1.1049 0 2.0002-0.89478 2.0002-2.0002v-8.7641c0-0.75805-0.42812-1.4501-1.1059-1.789z"/>
  <path transform="matrix(7.3997 0 0 7.3997 139.21 139.21)" d="m51 39h-3.9998c-1.1049 0-2.0002-0.89478-2.0002-2.0002 0-1.1049 0.89478-2.0002 2.0002-2.0002h3.9998c1.1049 0 2.0002 0.89478 2.0002 2.0002-5.27e-4 1.1049-0.89531 2.0002-2.0002 2.0002z"/>
  <path transform="matrix(7.3997 0 0 7.3997 139.21 139.21)" d="m49 46v6"/>
  <path transform="matrix(7.3997 0 0 7.3997 139.21 139.21)" d="m46 49h6"/>
  <path transform="matrix(7.3997 0 0 7.3997 139.21 139.21)" d="m3 27h58v3.9998h-58z"/>
  <path transform="matrix(7.3997 0 0 7.3997 139.21 139.21)" d="m36 49h-2.0002"/>
  <path transform="matrix(7.3997 0 0 7.3997 139.21 139.21)" d="m9 45h12"/>
 </g>
</svg>
