<?xml version="1.0" encoding="UTF-8"?>
<svg width="752pt" height="752pt" version="1.1" viewBox="0 0 752 752" xmlns="http://www.w3.org/2000/svg">
 <path d="m197.74 377.99v226.09h91.801v-226.09zm140.12-150.7 38.258-66.273c17.082-29.59 61.82-3.7578 44.73 25.824l-38.258 66.273c-17.082 29.59-61.812 3.7656-44.73-25.824zm21.324-25.93 5.1406-8.9062 35.207 20.328-5.1406 8.9062zm80.922 234.83c28.219 0 51.098 22.879 51.098 51.098s-22.879 51.098-51.098 51.098-51.098-22.879-51.098-51.098 22.879-51.098 51.098-51.098zm31.316 41.375v19.449h-21.59v21.59h-19.449v-21.59h-21.59v-19.449h21.59v-21.59h19.449v21.59zm-31.316-58.184c37.5 0 67.906 30.41 67.906 67.906 0 37.5-30.406 67.906-67.906 67.906-37.492 0-67.906-30.406-67.906-67.906 0-37.492 30.41-67.906 67.906-67.906zm-127.38 184.69h241.54v-226.09h-241.54zm265.81-244.2v-44.926h-405.07v44.926zm-3.1758-63.043-32.57-59.422h-134.19l-13.301 23.039c-7.4688 12.945-20.305 20.891-35.395 20.398-6.9648-0.23047-13.809-2.2695-19.836-5.75-14.301-8.2617-21.785-22.703-20.523-37.688h-110.34l-32.566 59.422h398.72zm-38.133-77.539v-44.199h-97.965c-0.27344 6.375-2.1211 12.883-5.6992 19.086l-14.504 25.113zm-186.18-44.199h-136.28v44.199h110.76z" fill-rule="evenodd"/>
</svg>
