<?xml version="1.0" encoding="UTF-8"?>
<svg width="752pt" height="752pt" version="1.1" viewBox="0 0 752 752" xmlns="http://www.w3.org/2000/svg">
 <g>
  <path d="m576.32 446.57h0.47266 17.051c2.8398 0 4.7344-2.3672 4.2617-5.2109-3.7891-23.207-33.625-32.676-44.516-35.52-2.8398-0.94531-5.2109-2.8398-6.1562-5.2109l-18.469-38.832c2.3672 1.4219 4.7344 1.8945 7.5781 1.8945h9.4727c1.4219 0 2.3672-0.94531 2.3672-2.3672v-31.258c0-1.4219-0.94531-2.3672-2.3672-2.3672h-9.4727c-4.2617 0-8.5234 1.8945-11.367 5.2109-0.47266-2.3672-1.4219-5.2109-2.3672-8.5234-1.4219-5.2109-7.5781-4.2617-15.156-2.3672-10.418 2.3672-20.363 4.7344-30.781 5.6836l-4.2617 0.47266c-1.4219-4.7344-5.2109-8.5234-9.9453-9.4727l-26.52-6.6289c-4.7344-5.6836-10.418-12.785-19.418-22.73-1.4219-1.4219-6.6289-8.0508-15.629-10.418-8.0508-1.8945-18.469-5.2109-26.992 0-8.5234 4.7344-13.734 13.262-15.156 23.207l-7.5781 69.137c-0.47266 4.7344 0.94531 8.9961 3.7891 12.312 2.8398 3.3164 7.5781 5.2109 11.84 5.2109h66.301l-2.3672 58.723c-0.47266 8.9961 6.6289 16.102 15.156 16.574h0.47266c8.5234 0 15.629-6.6289 16.102-15.156l3.3125-74.824c0-4.2617-1.4219-8.5234-4.2617-11.84s-7.1055-4.7344-11.367-4.7344h-41.203l2.8398-30.781c3.3164 3.7891 5.6836 6.6289 5.6836 6.6289 1.8945 2.3672 4.7344 4.2617 7.5781 4.7344l31.258 7.5781c0.94531 0.47266 2.3672 0.47266 3.3164 0.47266 3.3164 0 6.1562-0.94531 8.5234-3.3164l13.262-1.8945c0.47266 1.8945 0.94531 4.2617 0.94531 6.6289 1.4219 10.418 4.7344 14.68 10.891 16.102 4.7344 17.523 9.9453 44.988 13.734 62.039 1.4219 8.0508-0.94531 16.574-6.6289 22.73l-17.996 19.418c-3.3164 3.3164-7.5781 5.2109-12.312 5.2109l-53.512 0.003907c-6.1562 0-10.891-4.7344-10.418-10.891l0.94531-35.047h5.6836c3.3164 0 6.6289-2.3672 7.5781-6.1562l2.8398-11.367c0.94531-4.7344-2.3672-9.4727-7.5781-9.4727h-152.02c-6.6289 0-8.9961 8.5234-3.7891 12.312l25.574 16.574c-15.156 16.102-17.996 39.309-18.469 49.727 0 2.8398 2.3672 5.2109 5.2109 5.2109h10.891c0 1.8945-0.47266 3.7891-0.47266 5.6836 0 27.941 22.73 50.199 50.199 50.199 26.047 0 47.359-19.891 50.199-44.988 2.3672 0.47266 4.2617 0.47266 6.6289 0.47266h95.191c5.6836 0 10.891-2.8398 14.68-7.1055v0.94531c0 29.836 25.574 53.516 55.883 50.199 21.785-2.3672 40.254-19.891 44.043-41.676 4.2617-21.305-6.1562-41.195-23.207-51.141zm-242.47 71.984c-16.102 0-28.887-12.785-28.887-28.887 0-1.8945 0-3.7891 0.47266-5.6836h17.051c-0.94531 1.8945-1.4219 3.3164-1.4219 5.6836 0 7.1055 5.6836 12.312 12.312 12.312 7.1055 0 12.312-5.6836 12.312-12.312 0-1.8945-0.47266-3.7891-1.4219-5.6836h17.051v1.4219c0 1.4219 0.47266 2.8398 0.47266 4.2617 0.94922 16.098-11.84 28.887-27.941 28.887zm216.9 0c-16.102 0-28.887-12.785-28.887-28.887 0-16.102 12.785-28.887 28.887-28.887 16.102-0.003906 28.887 12.781 28.887 28.883 0 16.102-13.258 28.891-28.887 28.891z"/>
  <path d="m550.75 477.35c-7.1055 0-12.312 5.6836-12.312 12.312 0 7.1055 5.6836 12.312 12.312 12.312 7.1055 0 12.312-5.6836 12.312-12.312 0-7.1016-5.6836-12.312-12.312-12.312z"/>
  <path d="m265.18 389.26h60.617c5.6836 0 10.418-4.7344 10.418-10.418v-57.305c0-5.6836-4.7344-10.418-10.418-10.418h-60.617c-5.6836 0-10.418 4.7344-10.418 10.418v57.305c0 5.6836 4.7344 10.418 10.418 10.418z"/>
  <path d="m410.57 236.3c-1.8945-0.47266-2.8398 0-2.8398 0s-0.47266 1.4219 0.47266 3.7891c1.8945 5.2109 8.0508 11.367 16.102 13.262 8.9961 2.3672 15.156 3.3164 18.941 3.7891-0.94531-5.2109-2.8398-11.84-6.6289-20.836-3.7891 0.94141-13.262 2.8359-26.047-0.003906z"/>
  <path d="m380.26 268.02 52.57 11.84c3.3164 0.94531 6.1562-0.94531 7.5781-3.7891 1.4219-3.7891 2.8398-7.1055 3.3164-10.891-4.2617-0.47266-10.891-1.4219-21.312-3.7891-14.68-3.3164-25.102-17.996-23.207-26.992 0.94531-4.2617 4.7344-8.0508 12.785-6.1562 9.9453 1.8945 17.523 0.94531 21.312 0.47266-14.68-24.625-50.199-18.941-61.094 0.47266-8.0508 13.734 0.47266 30.309 4.2617 35.992 0.47656 1.4219 1.8984 2.3672 3.7891 2.8398z"/>
  <path d="m223.51 376.48c5.6836 0 9.9453-4.2617 9.9453-9.9453s-4.2617-9.9453-9.9453-9.9453h-62.512c-5.6836 0-9.9453 4.2617-9.9453 9.9453s4.2617 9.9453 9.9453 9.9453z"/>
  <path d="m230.14 419.57c5.6836 0 9.9453-4.2617 9.9453-9.9453s-4.2617-9.9453-9.9453-9.9453h-62.512c-5.207 0-9.4727 4.7383-9.4727 9.9453 0 5.6836 4.2617 9.9453 9.9453 9.9453z"/>
  <path d="m237.24 442.78h-62.512c-5.6836 0-9.9453 4.2617-9.9453 9.9453s4.2617 9.9453 9.9453 9.9453h62.512c5.6836 0 9.9453-4.2617 9.9453-9.9453s-4.7344-9.9453-9.9453-9.9453z"/>
 </g>
</svg>
