<?xml version="1.0" encoding="UTF-8"?>
<svg width="752pt" height="752pt" version="1.1" viewBox="0 0 752 752" xmlns="http://www.w3.org/2000/svg">
 <path d="m542.89 490.09c-9.8008 0-17.746-7.9609-17.746-17.746 0-9.7891 7.9414-17.746 17.746-17.746 9.7617 0 17.746 7.957 17.746 17.746-0.003907 9.7852-7.9844 17.746-17.746 17.746zm-159.88 0.31641v-110.36l95.594-55.176v110.36zm10.754 78.277c0 9.7891-7.9805 17.746-17.746 17.746-9.8008 0-17.746-7.957-17.746-17.746 0-9.7812 7.9414-17.746 17.746-17.746 9.7656 0.003906 17.746 7.9648 17.746 17.746zm-120.33-243.81 24.863 14.359v45.789c0 2.5078 1.3203 4.8242 3.5156 6.0781l31.77 18.355c1.0742 0.62109 2.3203 0.9375 3.5156 0.9375 1.1992 0 2.4414-0.31641 3.5156-0.9375 2.1523-1.2578 3.5156-3.5664 3.5156-6.0781l0.003907-37.688 24.859 14.359v110.36l-95.555-55.176v-110.36zm84.84-141.56c0-9.7891 7.9414-17.746 17.746-17.746 9.7617 0 17.746 7.957 17.746 17.746 0 9.7891-7.9805 17.746-17.746 17.746-9.8047 0-17.746-7.957-17.746-17.746zm-28.215 174.27-17.746-10.25v33.633l17.746 10.25zm-10.707-22.406 17.746 10.258 95.555-55.184-17.746-10.25zm-38.93-22.461 24.902 14.367 95.555-55.176-24.859-14.359zm95.594 55.18 95.555-55.176-24.859-14.359-95.598 55.172zm-166.91 122.19c-9.7617 0-17.746-7.9609-17.746-17.746 0-9.7891 7.9805-17.746 17.746-17.746 9.8008 0 17.746 7.957 17.746 17.746 0 9.7852-7.9375 17.746-17.746 17.746zm0-192.68c-9.7617 0-17.746-7.9609-17.746-17.746 0-9.7891 7.9805-17.746 17.746-17.746 9.8008 0 17.746 7.9609 17.746 17.746s-7.9375 17.746-17.746 17.746zm333.78-35.488c9.7617 0 17.746 7.9609 17.746 17.746 0 9.7812-7.9805 17.746-17.746 17.746-9.8008 0-17.746-7.9609-17.746-17.746 0-9.7891 7.9414-17.746 17.746-17.746zm0 178.65c-9.2266 0-17.539 3.9375-23.328 10.211l-26.93-15.555-0.003906-118.45 26.93-15.555c5.793 6.2734 14.105 10.211 23.328 10.211 17.496 0 31.77-14.258 31.77-31.773 0-17.523-14.273-31.777-31.77-31.777-17.539 0-31.809 14.258-31.809 31.777 0 3.2812 0.53906 6.4375 1.4453 9.4219l-26.93 15.539-102.58-59.215v-31.094c14.148-3.207 24.777-15.875 24.777-30.984 0-17.523-14.273-31.777-31.77-31.777-17.539 0-31.809 14.25-31.809 31.777 0 15.109 10.633 27.777 24.777 30.984v31.094l-102.58 59.227-26.93-15.543c0.95313-2.9805 1.4453-6.1406 1.4453-9.418 0-17.523-14.273-31.777-31.809-31.777-17.496 0-31.77 14.258-31.77 31.777 0 17.516 14.273 31.773 31.77 31.773 9.2266 0 17.539-3.9375 23.328-10.211l26.93 15.555v118.45l-26.926 15.547c-5.793-6.2734-14.105-10.211-23.328-10.211-17.496 0-31.77 14.258-31.77 31.773s14.273 31.773 31.77 31.773c17.539 0 31.809-14.25 31.809-31.773 0-3.2812-0.5-6.4414-1.4453-9.418l26.93-15.543 102.59 59.227v31.09c-14.148 3.2031-24.777 15.879-24.777 30.984 0 17.516 14.273 31.773 31.809 31.773 17.496 0 31.77-14.258 31.77-31.773 0-15.105-10.633-27.785-24.777-30.984v-31.09l102.59-59.227 26.93 15.539c-0.91406 2.9844-1.4453 6.1484-1.4453 9.4258 0 17.516 14.273 31.773 31.809 31.773 17.496 0 31.77-14.25 31.77-31.773-0.007813-17.52-14.281-31.781-31.777-31.781z" fill-rule="evenodd"/>
</svg>
