<?xml version="1.0" encoding="UTF-8"?>
<svg width="752pt" height="752pt" version="1.1" viewBox="0 0 752 752" xmlns="http://www.w3.org/2000/svg">
 <path d="m587.69 506.23-8.9961 2.8398c-2.3672-7.1055-6.1562-13.734-10.891-19.418-13.262-15.629-34.098-23.207-53.988-19.891-28.887 4.7344-50.672 31.258-49.254 60.617 0 1.4219 0.47266 3.3164 0.47266 4.7344l-116.5 0.007812c0.47266-3.3164 0.94531-6.6289 0.94531-9.9453-1.4219-27.941-22.73-51.621-50.199-55.41-17.523-2.3672-34.098 2.3672-47.359 13.734-12.785 11.367-20.363 27.469-20.363 44.516 0 2.3672 0 4.7344 0.47266 7.1055h-15.156l-41.199-76.719c-8.9961-16.574 0.47266-39.309 23.207-39.309h174.28v80.508h61.566l41.676-67.723-28.414-68.195c-1.4219 0-2.8398-0.47266-4.2617-1.4219-2.8398-1.8945-4.7344-4.7344-4.7344-8.5234 0-5.6836 4.7344-9.9453 9.9453-9.9453 3.3164 0 5.6836 1.4219 7.5781 3.7891 0 0 14.68 19.418 32.203 42.148 2.3672-10.418 11.84-17.996 22.73-17.996 4.7344 0 9.4727 1.4219 13.262 4.2617v38.832c-3.7891 2.3672-8.5234 4.2617-13.262 4.2617h-0.47266c18.469 24.152 34.57 44.988 34.57 44.988 19.887 6.6367 35.516 21.789 42.145 42.152zm-303.09-208.38v108.92h-123.13v-108.92zm-75.773 60.621v-46.41h-33.152v80.508h94.715v-80.508h-33.152v46.41l-14.207-16.102zm366.08 169.54c0 27.941-22.73 51.148-51.148 51.148-28.414 0-51.148-22.73-51.148-51.148 0-27.941 22.73-51.148 51.148-51.148 27.941 0.003906 51.148 22.734 51.148 51.148zm-38.836 0c0-7.1055-5.6836-12.785-12.785-12.785-7.1055 0-12.785 5.6836-12.785 12.785 0 7.1055 5.6836 12.785 12.785 12.785 7.1055-0.46875 12.785-6.1523 12.785-12.785zm-194.17 0c0 27.941-22.73 51.148-51.148 51.148-27.941 0-51.148-22.73-51.148-51.148 0-27.941 22.73-51.148 51.148-51.148 28.418 0.003906 51.148 22.734 51.148 51.148zm-38.359 0c0-7.1055-5.6836-12.785-12.785-12.785-7.1055 0-12.785 5.6836-12.785 12.785 0 7.1055 5.6836 12.785 12.785 12.785 7.1016-0.46875 12.785-6.1523 12.785-12.785zm37.887-277.99c17.996 0 32.676-15.156 34.098-33.625l-68.195 0.003906c1.4219 18.469 16.102 33.621 34.098 33.621zm52.566-52.566h-21.312c-5.2109-12.785-17.051-22.258-31.258-22.258-17.051 0-31.73 13.734-33.625 31.73h86.664l0.007812-9.4727zm55.41 136.87c2.3672 0 4.2617 0.47266 6.6289 0.94531v-1.4219c0-8.9961-6.1562-18.941-18.469-18.941h-44.043l-34.098-47.359c-4.2617-5.6836-11.367-9.4727-18.469-9.4727h-9.9453c-11.84 0-21.312 8.9961-22.73 20.363 0 0-7.1055 71.039-9.4727 95.191-1.8945 22.73 16.574 35.992 31.258 35.992h52.566v63.934c0 10.418 8.5234 18.941 18.941 18.941s18.941-8.5234 18.941-18.941v-77.195c0-18.941-9.4727-29.363-28.414-29.363h-32.203l1.4219-32.676 14.68 13.734h54.461c2.8438-8.0508 9.9492-13.73 18.945-13.73z"/>
</svg>
