<?xml version="1.0" encoding="UTF-8"?>
<svg width="752pt" height="752pt" version="1.1" viewBox="0 0 752 752" xmlns="http://www.w3.org/2000/svg">
 <g fill-rule="evenodd">
  <path d="m358.78 173c-15.812-1.0156-30.445 8.3047-36.191 23.074-5.7305 14.777-1.3477 31.676 11.145 41.434 6.9922 5.4844 15.402 9.3438 22.777 9.3711 17.844 0.085938 32.387-14.496 32.492-32.34l-9.2305 0.54688c-0.41406 12.609-10.578 22.609-23.262 22.609-1.4805 0-2.9297-0.13672-4.3086-0.41016 1.4844-2.0586 2.5273-4.7422 3.2695-7.8398 4.4414-18.633 17.781-18.906 30.145-19.812 3.5938-0.27344 8.4414-0.27344 12.691-0.27344 7.3633 0 7.6211-9.2656 1.2852-10.496l-8.4414-1.4805c-2.3242-6.3555-6.2969-11.84-11.762-16.332-5.4258-4.4922-12.715-7.5312-20.609-8.0508z"/>
  <path d="m265.2 523.95h55.16c0 15.234-12.355 27.594-27.594 27.594-15.207 0-27.566-12.359-27.566-27.594zm261.4-27.566c15.207 0 27.562 12.359 27.562 27.566 0 15.234-12.324 27.594-27.562 27.594-15.238 0-27.598-12.367-27.574-27.594 0-5.5938 1.6992-11.07 4.8789-15.676l14.418 18.332c2.6836 3.6641 7.2891 5.2891 11.238 2.9844 3.9414-2.2852 4.6875-6.9883 3.0117-11.207l-10.988-21.539c1.6406-0.30078 3.3047-0.46094 5.0156-0.46094zm-191.09-243.89c-9.3438 0.22266-18.328 5.0352-20.77 13.461l-26.355 91.496c-4.1094 14.195 0.54688 33.238 22.086 33.238h74.703l14.797 78.398c2.6055 13.801 28.91 14.027 27.848-0.03125l-6.6406-88.621c-1.0664-14.219-6.8125-19.539-17.121-20.906l-58.891-7.8398 5.2344-43.926 23.434 17.758c3.8672 2.9297 5.4297 3.668 11.215 4.6289l40.938 6.8516c2.6875 1.2891 4.4414 3.5312 5.2344 6.7617l43.984 107.64c9.9727 24.414 2.1875 41.023-29.625 41.023h-56.742c-24.578 0-37.68-20.828-29.684-38.859l11.684-26.246c5.2812-11.898-1.9453-24.422-14.66-24.422h-83.531v-77.734c0-5.8086-4.6875-10.465-10.496-10.465h-30.91v24.715c0 2.8242-2.2734 5.0977-5.0938 5.0977h-11.656c-2.8203 0-5.0938-2.2734-5.0938-5.0977v-24.715l-30.895-0.003906c-5.8164 0-10.477 4.6641-10.477 10.465v94.68c0 5.8086 4.6562 10.492 10.477 10.492h69.516c-27.051 16.965-44.234 50.172-41.328 79.414 1.2578 12.688 8.6094 14.195 14.027 14.195h17.512c0 30.141 24.422 54.551 54.535 54.551 30.145 0 54.555-24.414 54.555-54.551h124.71c0 30.141 24.422 54.551 54.566 54.551 30.113 0 54.531-24.414 54.531-54.551 0-9.5664-2.5469-18.965-7.3477-27.242l3.3477 0.51562c6.1406 0.94141 7.7266-6.5703 4.6836-13.176-10.031-21.922-31.434-36.309-55.141-37.488-2.2695-0.10938-4.4102-1.4453-4.4102-4.2773l0.003906-4.3477c0-5.3242 0.027344-9.6133-4.1289-15.344l-59.117-82.293c-2.9609-5.1523-2.2188-8.0234 2.9883-8.0234h9.9453c6.7422 0 11.594-1.4258 10.629-9.207l-2.9609-19.598c-0.73828-6.1094-3.3398-10.281-12.133-10.281h-15.621c-16.66 0-23.398 11.539-27.836 17.566-1.0742 1.4297-1.8086 2.5508-2.5586 3.5742l-34.715-10.008-31.758-43.512c-4.7656-5.875-12.219-8.4766-19.488-8.3125z"/>
 </g>
</svg>
