<?xml version="1.0" encoding="UTF-8"?>
<svg width="752pt" height="752pt" version="1.1" viewBox="0 0 752 752" xmlns="http://www.w3.org/2000/svg">
 <g>
  <path d="m568.34 323.93c-0.03125-0.77734-0.1875-1.5469-0.45703-2.2734-0.0625-0.16406-0.097656-0.32812-0.17187-0.48828-0.039063-0.089844-0.050782-0.1875-0.097657-0.27734l-44.398-88.797c-1.2539-2.5078-3.8164-4.0898-6.6172-4.0898h-66.598c-4.0898 0-7.4023 3.3125-7.4023 7.3984s3.3125 7.4023 7.4023 7.4023h62.023l37 73.996h-346.04l37-73.996h62.02c4.0859 0 7.3984-3.3164 7.3984-7.4023s-3.3125-7.3984-7.3984-7.3984h-66.598c-2.8008 0-5.3633 1.582-6.6172 4.0898l-44.398 88.797c-0.046875 0.089844-0.058594 0.1875-0.097656 0.27734-0.074219 0.15625-0.10938 0.32422-0.16797 0.48438-0.27344 0.73047-0.42969 1.5-0.46094 2.2773-0.003906 0.09375-0.054687 0.17578-0.054687 0.26953v14.801c-0.007813 12.809 5.5195 24.992 15.16 33.426 9.6406 8.4336 22.453 12.289 35.148 10.574 12.691-1.7109 24.027-8.8242 31.09-19.508 8.2031 12.43 22.102 19.91 36.996 19.91 14.895 0 28.793-7.4805 37-19.91 8.2031 12.43 22.102 19.91 36.996 19.91s28.793-7.4805 37-19.91c8.207 12.43 22.105 19.91 37 19.91 14.891 0 28.793-7.4805 36.996-19.91 7.0625 10.684 18.398 17.797 31.09 19.508 12.691 1.7148 25.508-2.1406 35.148-10.574 9.6406-8.4336 15.168-20.617 15.16-33.426v-14.801c0-0.09375-0.050781-0.17578-0.054687-0.26953zm-340.33 44.668c-7.8477-0.007812-15.371-3.1289-20.922-8.6797-5.5469-5.5469-8.668-13.07-8.6758-20.918v-7.4023h59.199v7.3984l-0.003906 0.003906c-0.007813 7.8477-3.1289 15.371-8.6758 20.918-5.5508 5.5508-13.074 8.6719-20.922 8.6797zm73.996 0c-7.8477-0.007812-15.371-3.1289-20.922-8.6797-5.5469-5.5469-8.668-13.07-8.6758-20.918v-7.4023h59.199v7.3984l-0.003907 0.003906c-0.007812 7.8477-3.1289 15.371-8.6758 20.918-5.5508 5.5508-13.074 8.6719-20.922 8.6797zm73.996 0c-7.8477-0.007812-15.371-3.1289-20.918-8.6797-5.5508-5.5469-8.6719-13.07-8.6797-20.918v-7.4023h59.199v7.4023c-0.007812 7.8477-3.1289 15.371-8.6797 20.918-5.5508 5.5508-13.074 8.6719-20.922 8.6797zm73.996 0h0.003906c-7.8477-0.007812-15.371-3.1289-20.922-8.6797-5.5508-5.5469-8.6719-13.07-8.6797-20.918v-7.4023h59.199v7.4023c-0.007812 7.8477-3.1289 15.371-8.6797 20.918-5.5469 5.5508-13.07 8.6719-20.918 8.6797zm103.6-29.598c0 10.574-5.6406 20.344-14.801 25.633-9.1562 5.2852-20.438 5.2852-29.598 0-9.1562-5.2891-14.797-15.059-14.797-25.633v-7.4023h59.199z"/>
  <path d="m324.2 294.61h103.6c1.9609 0 3.8438-0.78125 5.2305-2.168s2.168-3.2695 2.168-5.2344v-103.59c0-1.9609-0.78125-3.8438-2.168-5.2344-1.3867-1.3867-3.2695-2.1641-5.2305-2.1641h-103.6c-4.0859 0-7.3984 3.3125-7.3984 7.3984v103.59c0 1.9648 0.77734 3.8477 2.168 5.2344 1.3867 1.3867 3.2695 2.168 5.2305 2.168zm7.3984-103.6h88.797v88.797h-88.797z"/>
  <path d="m398.2 228.01h-14.797v-14.801c0-4.0859-3.3125-7.3984-7.4023-7.3984-4.0859 0-7.3984 3.3125-7.3984 7.3984v14.801h-14.801c-4.0859 0-7.3984 3.3125-7.3984 7.3984s3.3125 7.4023 7.3984 7.4023h14.801v14.801-0.003906c0 4.0859 3.3125 7.4023 7.3984 7.4023 4.0898 0 7.4023-3.3164 7.4023-7.4023v-14.797h14.801-0.003906c4.0898 0 7.4023-3.3164 7.4023-7.4023s-3.3125-7.3984-7.4023-7.3984z"/>
  <path d="m524 390.8c-4.0859 0-7.3984 3.3125-7.3984 7.3984v162.79h-162.8v-125.79c0-1.9609-0.77734-3.8438-2.1641-5.2344-1.3906-1.3867-3.2734-2.1641-5.2344-2.1641h-73.996c-4.0859 0-7.3984 3.3125-7.3984 7.3984v125.79h-29.602v-162.79c0-4.0859-3.3125-7.3984-7.3984-7.3984-4.0859 0-7.3984 3.3125-7.3984 7.3984v170.2c0 1.9609 0.77734 3.8438 2.1641 5.2305 1.3906 1.3906 3.2695 2.168 5.2344 2.168h295.99c1.9609 0 3.8438-0.77734 5.2305-2.168 1.3906-1.3867 2.168-3.2695 2.168-5.2305v-170.2c0-1.9609-0.77734-3.8438-2.168-5.2305-1.3867-1.3867-3.2695-2.168-5.2305-2.168zm-244.19 170.19v-118.39h59.199v118.39z"/>
  <path d="m479.6 531.39c1.9609 0 3.8438-0.77734 5.2305-2.168 1.3906-1.3867 2.168-3.2695 2.168-5.2305v-88.797c0-1.9609-0.77734-3.8438-2.168-5.2344-1.3867-1.3867-3.2695-2.1641-5.2305-2.1641h-88.797c-4.0859 0-7.3984 3.3125-7.3984 7.3984v88.797c0 1.9609 0.77734 3.8438 2.168 5.2305 1.3867 1.3906 3.2695 2.168 5.2305 2.168zm-81.398-88.797h74v74h-74z"/>
 </g>
</svg>
