<?xml version="1.0" encoding="UTF-8" standalone="no"?>
<!-- Svg Vector Icons : http://www.onlinewebfonts.com/icon -->

<svg
   version="1.1"
   x="0px"
   y="0px"
   viewBox="0 0 1000 1000"
   enable-background="new 0 0 1000 1000"
   xml:space="preserve"
   id="svg579"
   sodipodi:docname="person-laptop-table.svg"
   inkscape:version="1.2 (dc2aedaf03, 2022-05-15)"
   xmlns:inkscape="http://www.inkscape.org/namespaces/inkscape"
   xmlns:sodipodi="http://sodipodi.sourceforge.net/DTD/sodipodi-0.dtd"
   xmlns="http://www.w3.org/2000/svg"
   xmlns:svg="http://www.w3.org/2000/svg"><defs
   id="defs583"><clipPath
     clipPathUnits="userSpaceOnUse"
     id="clipPath494"><g
       id="g500"
       style="stroke:none"
       transform="translate(-81.438656,-557.54156)"><path
         style="color:#000000;fill:#00ff00;stroke:none;stroke-linecap:round;stroke-linejoin:round;-inkscape-stroke:none;paint-order:stroke markers fill"
         d="m -231.5,590.1582 c -5.91914,0 -10.91992,4.99886 -10.91992,10.91797 v 525.64653 c 0,5.919 5.0007,10.9179 10.91992,10.9179 h 1559.291 c 5.9192,0 10.918,-4.999 10.918,-10.9179 V 601.07617 c 0,-5.91895 -4.9989,-10.91797 -10.918,-10.91797 z m 4.08008,15 H 1323.709 v 517.4824 H -227.41992 Z"
         id="path496" /><path
         style="color:#000000;fill:#20d0a8;stroke:none;stroke-width:15;stroke-linecap:round;stroke-linejoin:round;-inkscape-stroke:none;paint-order:stroke markers fill"
         d="M -231.50067,597.65765 H 1327.7902 c 1.8939,0 3.4185,1.52467 3.4185,3.41854 v 525.64641 c 0,1.8939 -1.5246,3.4186 -3.4185,3.4186 H -231.50067 c -1.89387,0 -3.41853,-1.5247 -3.41853,-3.4186 V 601.07619 c 0,-1.89387 1.52466,-3.41854 3.41853,-3.41854 z"
         id="path498" /></g></clipPath><clipPath
     clipPathUnits="userSpaceOnUse"
     id="clipPath502"><g
       id="g508"
       style="stroke:none"
       transform="translate(-81.438656,-557.54156)"><path
         style="color:#000000;fill:#00ff00;stroke:none;stroke-linecap:round;stroke-linejoin:round;-inkscape-stroke:none;paint-order:stroke markers fill"
         d="m -231.5,590.1582 c -5.91914,0 -10.91992,4.99886 -10.91992,10.91797 v 525.64653 c 0,5.919 5.0007,10.9179 10.91992,10.9179 h 1559.291 c 5.9192,0 10.918,-4.999 10.918,-10.9179 V 601.07617 c 0,-5.91895 -4.9989,-10.91797 -10.918,-10.91797 z m 4.08008,15 H 1323.709 v 517.4824 H -227.41992 Z"
         id="path504" /><path
         style="color:#000000;fill:#20d0a8;stroke:none;stroke-width:15;stroke-linecap:round;stroke-linejoin:round;-inkscape-stroke:none;paint-order:stroke markers fill"
         d="M -231.50067,597.65765 H 1327.7902 c 1.8939,0 3.4185,1.52467 3.4185,3.41854 v 525.64641 c 0,1.8939 -1.5246,3.4186 -3.4185,3.4186 H -231.50067 c -1.89387,0 -3.41853,-1.5247 -3.41853,-3.4186 V 601.07619 c 0,-1.89387 1.52466,-3.41854 3.41853,-3.41854 z"
         id="path506" /></g></clipPath><clipPath
     clipPathUnits="userSpaceOnUse"
     id="clipPath510"><g
       id="g516"
       style="stroke:none"
       transform="translate(-81.438656,-557.54156)"><path
         style="color:#000000;fill:#00ff00;stroke:none;stroke-linecap:round;stroke-linejoin:round;-inkscape-stroke:none;paint-order:stroke markers fill"
         d="m -231.5,590.1582 c -5.91914,0 -10.91992,4.99886 -10.91992,10.91797 v 525.64653 c 0,5.919 5.0007,10.9179 10.91992,10.9179 h 1559.291 c 5.9192,0 10.918,-4.999 10.918,-10.9179 V 601.07617 c 0,-5.91895 -4.9989,-10.91797 -10.918,-10.91797 z m 4.08008,15 H 1323.709 v 517.4824 H -227.41992 Z"
         id="path512" /><path
         style="color:#000000;fill:#20d0a8;stroke:none;stroke-width:15;stroke-linecap:round;stroke-linejoin:round;-inkscape-stroke:none;paint-order:stroke markers fill"
         d="M -231.50067,597.65765 H 1327.7902 c 1.8939,0 3.4185,1.52467 3.4185,3.41854 v 525.64641 c 0,1.8939 -1.5246,3.4186 -3.4185,3.4186 H -231.50067 c -1.89387,0 -3.41853,-1.5247 -3.41853,-3.4186 V 601.07619 c 0,-1.89387 1.52466,-3.41854 3.41853,-3.41854 z"
         id="path514" /></g></clipPath><clipPath
     clipPathUnits="userSpaceOnUse"
     id="clipPath518"><g
       id="g524"
       style="stroke:none"
       transform="translate(-81.438656,-557.54156)"><path
         style="color:#000000;fill:#00ff00;stroke:none;stroke-linecap:round;stroke-linejoin:round;-inkscape-stroke:none;paint-order:stroke markers fill"
         d="m -231.5,590.1582 c -5.91914,0 -10.91992,4.99886 -10.91992,10.91797 v 525.64653 c 0,5.919 5.0007,10.9179 10.91992,10.9179 h 1559.291 c 5.9192,0 10.918,-4.999 10.918,-10.9179 V 601.07617 c 0,-5.91895 -4.9989,-10.91797 -10.918,-10.91797 z m 4.08008,15 H 1323.709 v 517.4824 H -227.41992 Z"
         id="path520" /><path
         style="color:#000000;fill:#20d0a8;stroke:none;stroke-width:15;stroke-linecap:round;stroke-linejoin:round;-inkscape-stroke:none;paint-order:stroke markers fill"
         d="M -231.50067,597.65765 H 1327.7902 c 1.8939,0 3.4185,1.52467 3.4185,3.41854 v 525.64641 c 0,1.8939 -1.5246,3.4186 -3.4185,3.4186 H -231.50067 c -1.89387,0 -3.41853,-1.5247 -3.41853,-3.4186 V 601.07619 c 0,-1.89387 1.52466,-3.41854 3.41853,-3.41854 z"
         id="path522" /></g></clipPath></defs><sodipodi:namedview
   id="namedview581"
   pagecolor="#505050"
   bordercolor="#eeeeee"
   borderopacity="1"
   inkscape:showpageshadow="0"
   inkscape:pageopacity="0"
   inkscape:pagecheckerboard="0"
   inkscape:deskcolor="#505050"
   showgrid="false"
   inkscape:zoom="0.31925871"
   inkscape:cx="656.20763"
   inkscape:cy="742.34466"
   inkscape:window-width="1835"
   inkscape:window-height="1057"
   inkscape:window-x="-8"
   inkscape:window-y="-8"
   inkscape:window-maximized="1"
   inkscape:current-layer="svg579" />
<metadata
   id="metadata540"> Svg Vector Icons : http://www.onlinewebfonts.com/icon </metadata>
<path
   id="path444"
   d="M 954.7,595.6 H 514.5 c -19.5,0 -35.3,15.8 -35.3,35.2 0,19.4 15.8,35.2 35.3,35.2 H 699.4 V 899.2 H 641 c -19.5,0 -35.2,15.8 -35.2,35.2 0,19.5 15.8,35.3 35.2,35.3 h 187.3 c 19.4,0 35.2,-15.8 35.2,-35.3 0,-19.5 -15.8,-35.2 -35.2,-35.2 H 769.9 V 666.1 h 184.9 c 19.5,0 35.3,-15.8 35.3,-35.2 0,-19.4 -15.9,-35.3 -35.4,-35.3 z"
   clip-path="url(#clipPath502)" /><g
   id="g612"
   transform="matrix(-1,0,0,1,911.69669,166.00957)"><path
     id="path450"
     d="m 210.1,236.2 c 56.9,0 103,-46.1 103,-103 0,-56.9 -46.1,-103 -103,-103 -56.9,0 -103,46.1 -103,103 0,56.9 46.1,103 103,103 z"
     clip-path="url(#clipPath518)" /><path
     id="path447"
     d="M 284.7,747.1 H 80.5 c 0,-105.9 0,-210.1 0,-315.8 0,-19.5 -15.8,-35.2 -35.2,-35.2 -19.5,0 -35.3,15.8 -35.3,35.2 0,333.9 0,196.3 0,503.3 0,19.5 15.8,35.2 35.3,35.2 19.4,0 35.2,-15.8 35.2,-35.2 v -117 h 168.9 v 117 c 0,19.5 15.8,35.2 35.3,35.2 19.5,0 35.2,-15.8 35.2,-35.2 V 782.3 c 0,-19.4 -15.8,-35.2 -35.2,-35.2 z"
     clip-path="url(#clipPath510)" /><path
     id="path441"
     d="m 399.2,618.9 h -81.4 v -87 c -8.4,-4.5 -15.9,-10.7 -21.7,-18.8 L 185,359 324.6,497.7 c 8.2,7.9 19.2,12.3 30.6,12.3 h 86.2 49.5 c -4.4,5.9 -7.5,12.9 -7.5,20.8 0,19.5 15.8,35.3 35.3,35.3 h 200.1 c 14.3,0 27.3,-8.7 32.7,-22 l 88.1,-217.2 c 7.3,-18 -1.4,-38.6 -19.4,-45.9 -18.1,-7.4 -38.6,1.4 -45.9,19.4 l -79.2,195.2 h -131 c 7.2,-7.8 11.8,-18.1 11.8,-29.6 0,-9.2 -5.4,-13.2 -10.3,-20.3 C 557.7,434 545,429.9 529.8,429.9 H 369 l -126.8,-126.3 72.7,40.6 c -4.4,-44.9 -39.8,-82.1 -85.8,-82.1 h -37.9 c -49,0 -88.7,39.7 -88.7,88.7 V 652 c 0,42 36.9,72.7 67.6,72.7 H 346.3 V 917 c 0,29.2 23.7,52.9 52.9,52.9 29.2,0 52.9,-23.7 52.9,-52.9 V 671.8 c 0,-29.2 -23.7,-52.9 -52.9,-52.9 z"
     sodipodi:nodetypes="scccccsccsssccccccscscccssssscsssss"
     clip-path="url(#clipPath494)" /></g><g
   id="g320"><path
     id="path308"
     d="m 1754.3022,-130.27395 c 56.9,0 103,-46.1 103,-103 0,-56.9 -46.1,-103 -103,-103 -56.9,0 -103,46.1 -103,103 0,56.9 46.1,103 103,103 z" /><path
     id="path310"
     d="m 1828.9022,380.62605 h -204.2 c 0,-105.9 0,-210.1 0,-315.799998 0,-19.5 -15.8,-35.2 -35.2,-35.2 -19.5,0 -35.3,15.8 -35.3,35.2 0,333.899998 0,196.299998 0,503.299998 0,19.5 15.8,35.2 35.3,35.2 19.4,0 35.2,-15.8 35.2,-35.2 v -117 h 168.9 v 117 c 0,19.5 15.8,35.2 35.3,35.2 19.5,0 35.2,-15.8 35.2,-35.2 v -152.3 c 0,-19.4 -15.8,-35.2 -35.2,-35.2 z" /><path
     id="path312"
     d="m 2498.9022,229.12605 h -440.2 c -19.5,0 -35.3,15.8 -35.3,35.2 0,19.4 15.8,35.2 35.3,35.2 h 184.9 v 233.2 h -58.4 c -19.5,0 -35.2,15.8 -35.2,35.2 0,19.5 15.8,35.3 35.2,35.3 h 187.3 c 19.4,0 35.2,-15.8 35.2,-35.3 0,-19.5 -15.8,-35.2 -35.2,-35.2 h -58.4 v -233.1 h 184.9 c 19.5,0 35.3,-15.8 35.3,-35.2 0,-19.4 -15.9,-35.3 -35.4,-35.3 z" /><path
     id="path314"
     d="m 1943.4022,252.42605 h -81.4 v -87 c -8.4,-4.5 -15.9,-10.7 -21.7,-18.8 l -111.1,-154.0999984 139.6,138.6999984 c 8.2,7.9 19.2,12.3 30.6,12.3 h 86.2 49.5 c -4.4,5.9 -7.5,12.9 -7.5,20.8 0,19.5 15.8,35.3 35.3,35.3 h 200.1 c 14.3,0 27.3,-8.7 32.7,-22 l 88.1,-217.199998 c 7.3,-18 -1.4,-38.6 -19.4,-45.9 -18.1,-7.4 -38.6,1.4 -45.9,19.4 l -79.2,195.199998 h -131 c 7.2,-7.8 11.8,-18.1 11.8,-29.599998 0,-9.2 -5.4,-13.2 -10.3,-20.3 -7.9,-11.7 -20.6,-15.8 -35.8,-15.8 h -160.8 l -126.8,-126.3 72.7,40.6 c -4.4,-44.9 -39.8,-82.100002 -85.8,-82.100002 h -37.9 c -49,0 -88.7,39.700002 -88.7,88.700002 V 285.52605 c 0,42 36.9,72.7 67.6,72.7 h 176.2 v 192.3 c 0,29.2 23.7,52.9 52.9,52.9 29.2,0 52.9,-23.7 52.9,-52.9 v -245.2 c 0,-29.2 -23.7,-52.9 -52.9,-52.9 z"
     sodipodi:nodetypes="scccccsccsssccccccscscccssssscsssss" /></g>
</svg>
