<?xml version="1.0" encoding="utf-8"?>
<!-- Svg Vector Icons : http://www.onlinewebfonts.com/icon -->
<!DOCTYPE svg PUBLIC "-//W3C//DTD SVG 1.1//EN" "http://www.w3.org/Graphics/SVG/1.1/DTD/svg11.dtd">
<svg version="1.1" xmlns="http://www.w3.org/2000/svg" xmlns:xlink="http://www.w3.org/1999/xlink" x="0px" y="0px" viewBox="0 0 1000 1000" enable-background="new 0 0 1000 1000" xml:space="preserve">
<metadata> Svg Vector Icons : http://www.onlinewebfonts.com/icon </metadata>
<g><g transform="translate(0.000000,511.000000) scale(0.100000,-0.100000)"><path d="M4624.3,5006c-296.7-42.4-475.9-79-664.8-136.8C2795.7,4520.4,1899.7,3661,1502.8,2512.7c-38.5-111.7-100.2-352.6-136.8-537.6c-63.6-327.6-65.5-344.9-65.5-818.9c0-375.7,7.7-510.6,28.9-599.2c82.9-316,344.9-554.9,666.7-605c395-63.6,772.7,169.5,903.7,556.8c38.5,113.7,40.5,152.2,34.7,701.4l-5.8,580l-61.7,131c-80.9,171.5-233.1,323.7-404.6,404.6c-123.3,57.8-144.5,61.7-348.8,61.7c-117.5,0-215.8,7.7-215.8,15.4c0,40.5,148.4,370,240.8,533.7c150.3,267.8,316,483.6,556.9,722.6c258.2,256.3,499,429.7,820.8,595.4c1090.6,554.9,2389.3,458.6,3391.2-254.3c213.9-152.2,564.6-491.3,714.8-697.5c158-211.9,300.6-458.6,395-680.2c46.2-107.9,84.8-204.2,84.8-215.8c0-11.6-84.8-19.3-217.7-19.3c-212,0-221.6-1.9-362.2-71.3c-179.2-88.6-304.5-215.8-389.2-396.9l-61.7-129.1l-5.8-580c-5.8-605-3.9-622.4,82.8-820.8c13.5-32.8-34.7-34.7-865.1-34.7c-944.2,0-973-1.9-1040.5-98.3c-40.4-57.8-40.4-169.5,0-227.4c61.7-86.7,129.1-98.3,595.4-98.3h433.5l-59.7-96.3c-142.6-231.2-398.8-447-660.9-556.8c-849.7-352.6-1807.4,177.3-1967.3,1086.7c-34.7,200.4-40.5,1021.2-9.6,1250.5c67.4,483.6,354.5,880.6,797.7,1104.1c379.6,190.8,876.7,190.8,1256.3,0c348.8-175.3,599.3-456.7,726.4-815c69.4-192.7,90.6-381.5,90.6-788.1c0-219.7,7.7-371.9,21.2-402.7c54-115.6,235.1-136.8,327.6-38.5c46.3,48.2,46.3,57.8,52,447c3.9,235.1-1.9,462.4-15.4,553C6720.7,2424,6183.1,3029,5452.8,3217.9c-275.5,71.3-630.1,71.3-903.7,0c-612.7-159.9-1096.4-605-1300.6-1202.3c-88.6-258.2-102.1-427.8-94.4-1092.5c7.7-558.8,13.5-632,52-770.7c52-194.6,179.2-466.3,287.1-612.7c46.3-61.7,80.9-115.6,77.1-117.5c-3.8-3.9-57.8-25.1-121.4-50.1c-192.7-75.1-524.1-250.5-732.2-385.4C1587.6-1759.1,895.9-3044.3,895.9-4398.8V-4659l65.5-65.5l65.5-65.5H5000h3973.1l65.5,65.5l65.5,65.5v260.1c0,1366.1-695.6,2645.5-1853.6,3404.7c-181.1,121.4-516.4,294.8-699.4,366.1c-63.6,25-117.5,46.3-121.4,50.1c-3.9,1.9,28.9,50.1,71.3,106c42.4,55.9,109.8,169.6,150.3,252.4l73.2,150.3h578c317.9,0,630.1,9.6,693.7,19.3c242.8,38.5,470.2,194.6,593.5,406.6c94.4,161.9,109.8,271.7,109.8,795.8c0,456.7-3.9,497.1-59.7,790c-156.1,813.1-479.8,1439.3-1036.6,1998.1c-418.1,418.1-890.2,709.1-1460.5,896c-387.3,127.2-618.5,165.7-1075.2,171.5C4855.5,5011.7,4657,5009.8,4624.3,5006z M2342.9,1926.9c40.5-27,98.3-86.7,127.2-131l54-79l5.8-502.9c7.7-553,0-607-96.3-716.8c-82.8-94.4-186.9-142.6-304.4-142.6c-169.6,0-292.9,73.2-371.9,221.6c-38.5,69.4-42.4,111.7-48.2,443.2c-11.6,676.3,23.1,818.9,231.2,924.9C2071.2,2009.8,2225.4,2004,2342.9,1926.9z M8094.5,1923c65.5-38.5,106-84.8,140.7-150.3c48.2-94.4,48.2-98.3,50.1-606.9c0-489.4-1.9-516.4-42.4-589.6c-79-148.4-202.3-221.6-371.9-221.6c-161.9,0-310.2,102.1-373.8,254.3c-42.4,98.3-44.3,1023.1-5.8,1119.5C7595.4,1973.1,7871,2061.8,8094.5,1923z M6607-1096.3c1196.6-568.4,1992.3-1747.6,2084.8-3090.6l13.5-198.5H5001.9H1300.5v82.8c0,138.7,36.6,433.5,77.1,633.9c194.6,951.8,765,1790,1589.6,2333.4c215.8,140.7,562.6,314.1,782.3,389.2l165.7,55.9l94.4-61.7c154.1-96.3,377.7-192.7,560.7-238.9c240.9-59.7,620.4-59.7,861.3,0c175.3,44.3,466.3,171.5,587.7,258.2l67.4,48.2l171.5-65.5C6352.6-984.5,6510.6-1050,6607-1096.3z"/></g></g>
</svg>