<?xml version="1.0" encoding="UTF-8" standalone="no"?>
<!-- Svg Vector Icons : http://www.onlinewebfonts.com/icon -->

<svg
   version="1.1"
   x="0px"
   y="0px"
   viewBox="0 0 384 256"
   enable-background="new 0 0 1000 1000"
   xml:space="preserve"
   id="svg579"
   sodipodi:docname="right-active.svg"
   inkscape:version="1.2 (dc2aedaf03, 2022-05-15)"
   width="384"
   height="256"
   xmlns:inkscape="http://www.inkscape.org/namespaces/inkscape"
   xmlns:sodipodi="http://sodipodi.sourceforge.net/DTD/sodipodi-0.dtd"
   xmlns="http://www.w3.org/2000/svg"
   xmlns:svg="http://www.w3.org/2000/svg"><defs
   id="defs583"><clipPath
     clipPathUnits="userSpaceOnUse"
     id="clipPath494"><g
       id="g500"
       style="stroke:none"
       transform="translate(-81.438656,-557.54156)"><path
         style="color:#000000;fill:#00ff00;stroke:none;stroke-linecap:round;stroke-linejoin:round;-inkscape-stroke:none;paint-order:stroke markers fill"
         d="m -231.5,590.1582 c -5.91914,0 -10.91992,4.99886 -10.91992,10.91797 v 525.64653 c 0,5.919 5.0007,10.9179 10.91992,10.9179 h 1559.291 c 5.9192,0 10.918,-4.999 10.918,-10.9179 V 601.07617 c 0,-5.91895 -4.9989,-10.91797 -10.918,-10.91797 z m 4.08008,15 H 1323.709 v 517.4824 H -227.41992 Z"
         id="path496" /><path
         style="color:#000000;fill:#20d0a8;stroke:none;stroke-width:15;stroke-linecap:round;stroke-linejoin:round;-inkscape-stroke:none;paint-order:stroke markers fill"
         d="M -231.50067,597.65765 H 1327.7902 c 1.8939,0 3.4185,1.52467 3.4185,3.41854 v 525.64641 c 0,1.8939 -1.5246,3.4186 -3.4185,3.4186 H -231.50067 c -1.89387,0 -3.41853,-1.5247 -3.41853,-3.4186 V 601.07619 c 0,-1.89387 1.52466,-3.41854 3.41853,-3.41854 z"
         id="path498" /></g></clipPath><clipPath
     clipPathUnits="userSpaceOnUse"
     id="clipPath502"><g
       id="g508"
       style="stroke:none"
       transform="translate(-81.438656,-557.54156)"><path
         style="color:#000000;fill:#00ff00;stroke:none;stroke-linecap:round;stroke-linejoin:round;-inkscape-stroke:none;paint-order:stroke markers fill"
         d="m -231.5,590.1582 c -5.91914,0 -10.91992,4.99886 -10.91992,10.91797 v 525.64653 c 0,5.919 5.0007,10.9179 10.91992,10.9179 h 1559.291 c 5.9192,0 10.918,-4.999 10.918,-10.9179 V 601.07617 c 0,-5.91895 -4.9989,-10.91797 -10.918,-10.91797 z m 4.08008,15 H 1323.709 v 517.4824 H -227.41992 Z"
         id="path504" /><path
         style="color:#000000;fill:#20d0a8;stroke:none;stroke-width:15;stroke-linecap:round;stroke-linejoin:round;-inkscape-stroke:none;paint-order:stroke markers fill"
         d="M -231.50067,597.65765 H 1327.7902 c 1.8939,0 3.4185,1.52467 3.4185,3.41854 v 525.64641 c 0,1.8939 -1.5246,3.4186 -3.4185,3.4186 H -231.50067 c -1.89387,0 -3.41853,-1.5247 -3.41853,-3.4186 V 601.07619 c 0,-1.89387 1.52466,-3.41854 3.41853,-3.41854 z"
         id="path506" /></g></clipPath><clipPath
     clipPathUnits="userSpaceOnUse"
     id="clipPath510"><g
       id="g516"
       style="stroke:none"
       transform="translate(-81.438656,-557.54156)"><path
         style="color:#000000;fill:#00ff00;stroke:none;stroke-linecap:round;stroke-linejoin:round;-inkscape-stroke:none;paint-order:stroke markers fill"
         d="m -231.5,590.1582 c -5.91914,0 -10.91992,4.99886 -10.91992,10.91797 v 525.64653 c 0,5.919 5.0007,10.9179 10.91992,10.9179 h 1559.291 c 5.9192,0 10.918,-4.999 10.918,-10.9179 V 601.07617 c 0,-5.91895 -4.9989,-10.91797 -10.918,-10.91797 z m 4.08008,15 H 1323.709 v 517.4824 H -227.41992 Z"
         id="path512" /><path
         style="color:#000000;fill:#20d0a8;stroke:none;stroke-width:15;stroke-linecap:round;stroke-linejoin:round;-inkscape-stroke:none;paint-order:stroke markers fill"
         d="M -231.50067,597.65765 H 1327.7902 c 1.8939,0 3.4185,1.52467 3.4185,3.41854 v 525.64641 c 0,1.8939 -1.5246,3.4186 -3.4185,3.4186 H -231.50067 c -1.89387,0 -3.41853,-1.5247 -3.41853,-3.4186 V 601.07619 c 0,-1.89387 1.52466,-3.41854 3.41853,-3.41854 z"
         id="path514" /></g></clipPath><clipPath
     clipPathUnits="userSpaceOnUse"
     id="clipPath518"><g
       id="g524"
       style="stroke:none"
       transform="translate(-81.438656,-557.54156)"><path
         style="color:#000000;fill:#00ff00;stroke:none;stroke-linecap:round;stroke-linejoin:round;-inkscape-stroke:none;paint-order:stroke markers fill"
         d="m -231.5,590.1582 c -5.91914,0 -10.91992,4.99886 -10.91992,10.91797 v 525.64653 c 0,5.919 5.0007,10.9179 10.91992,10.9179 h 1559.291 c 5.9192,0 10.918,-4.999 10.918,-10.9179 V 601.07617 c 0,-5.91895 -4.9989,-10.91797 -10.918,-10.91797 z m 4.08008,15 H 1323.709 v 517.4824 H -227.41992 Z"
         id="path520" /><path
         style="color:#000000;fill:#20d0a8;stroke:none;stroke-width:15;stroke-linecap:round;stroke-linejoin:round;-inkscape-stroke:none;paint-order:stroke markers fill"
         d="M -231.50067,597.65765 H 1327.7902 c 1.8939,0 3.4185,1.52467 3.4185,3.41854 v 525.64641 c 0,1.8939 -1.5246,3.4186 -3.4185,3.4186 H -231.50067 c -1.89387,0 -3.41853,-1.5247 -3.41853,-3.4186 V 601.07619 c 0,-1.89387 1.52466,-3.41854 3.41853,-3.41854 z"
         id="path522" /></g></clipPath></defs><sodipodi:namedview
   id="namedview581"
   pagecolor="#505050"
   bordercolor="#eeeeee"
   borderopacity="1"
   inkscape:showpageshadow="0"
   inkscape:pageopacity="0"
   inkscape:pagecheckerboard="0"
   inkscape:deskcolor="#505050"
   showgrid="false"
   inkscape:zoom="1.2770348"
   inkscape:cx="70.084227"
   inkscape:cy="210.25268"
   inkscape:window-width="1814"
   inkscape:window-height="1051"
   inkscape:window-x="-9"
   inkscape:window-y="-9"
   inkscape:window-maximized="1"
   inkscape:current-layer="svg579" />
<metadata
   id="metadata540"> Svg Vector Icons : http://www.onlinewebfonts.com/icon </metadata>
<path
   id="path444"
   d="M 954.7,595.6 H 514.5 c -19.5,0 -35.3,15.8 -35.3,35.2 0,19.4 15.8,35.2 35.3,35.2 H 699.4 V 899.2 H 641 c -19.5,0 -35.2,15.8 -35.2,35.2 0,19.5 15.8,35.3 35.2,35.3 h 187.3 c 19.4,0 35.2,-15.8 35.2,-35.3 0,-19.5 -15.8,-35.2 -35.2,-35.2 H 769.9 V 666.1 h 184.9 c 19.5,0 35.3,-15.8 35.3,-35.2 0,-19.4 -15.9,-35.3 -35.4,-35.3 z"
   clip-path="url(#clipPath502)" />
<g
   id="g1141"><g
     id="g612"
     transform="matrix(-0.25,0,0,0.25,378.11809,54.408153)"
     style="fill:#20d0a8;fill-opacity:0.9"><path
       id="path450"
       d="m 210.1,236.2 c 56.9,0 103,-46.1 103,-103 0,-56.9 -46.1,-103 -103,-103 -56.9,0 -103,46.1 -103,103 0,56.9 46.1,103 103,103 z"
       clip-path="url(#clipPath518)"
       style="fill:#20d0a8;fill-opacity:0.9" /><path
       id="path447"
       d="M 284.7,747.1 H 80.5 c 0,-105.9 0,-210.1 0,-315.8 0,-19.5 -15.8,-35.2 -35.2,-35.2 -19.5,0 -35.3,15.8 -35.3,35.2 0,333.9 0,196.3 0,503.3 0,19.5 15.8,35.2 35.3,35.2 19.4,0 35.2,-15.8 35.2,-35.2 v -117 h 168.9 v 117 c 0,19.5 15.8,35.2 35.3,35.2 19.5,0 35.2,-15.8 35.2,-35.2 V 782.3 c 0,-19.4 -15.8,-35.2 -35.2,-35.2 z"
       clip-path="url(#clipPath510)"
       style="fill:#20d0a8;fill-opacity:0.9" /><path
       id="path441"
       d="m 399.2,618.9 h -81.4 v -87 c -8.4,-4.5 -15.9,-10.7 -21.7,-18.8 L 185,359 324.6,497.7 c 8.2,7.9 19.2,12.3 30.6,12.3 h 86.2 49.5 c -4.4,5.9 -7.5,12.9 -7.5,20.8 0,19.5 15.8,35.3 35.3,35.3 h 200.1 c 14.3,0 27.3,-8.7 32.7,-22 l 88.1,-217.2 c 7.3,-18 -1.4,-38.6 -19.4,-45.9 -18.1,-7.4 -38.6,1.4 -45.9,19.4 l -79.2,195.2 h -131 c 7.2,-7.8 11.8,-18.1 11.8,-29.6 0,-9.2 -5.4,-13.2 -10.3,-20.3 C 557.7,434 545,429.9 529.8,429.9 H 369 l -126.8,-126.3 72.7,40.6 c -4.4,-44.9 -39.8,-82.1 -85.8,-82.1 h -37.9 c -49,0 -88.7,39.7 -88.7,88.7 V 652 c 0,42 36.9,72.7 67.6,72.7 H 346.3 V 917 c 0,29.2 23.7,52.9 52.9,52.9 29.2,0 52.9,-23.7 52.9,-52.9 V 671.8 c 0,-29.2 -23.7,-52.9 -52.9,-52.9 z"
       sodipodi:nodetypes="scccccsccsssccccccscscccssssscsssss"
       clip-path="url(#clipPath494)"
       style="fill:#20d0a8;fill-opacity:0.9" /></g><g
     id="g650"
     transform="matrix(0.1875,0,0,0.1875,-86.588088,106.92016)"
     style="fill:#20d0a8;fill-opacity:1"><g
       transform="matrix(0.1,0,0,-0.1,0,511)"
       id="g648"
       style="fill:#20d0a8;fill-opacity:1"><path
         d="M 4624.3,5006 C 4327.6,4963.6 4148.4,4927 3959.5,4869.2 2795.7,4520.4 1899.7,3661 1502.8,2512.7 1464.3,2401 1402.6,2160.1 1366,1975.1 c -63.6,-327.6 -65.5,-344.9 -65.5,-818.9 0,-375.7 7.7,-510.6 28.9,-599.2 82.9,-316 344.9,-554.9 666.7,-605 395,-63.6 772.7,169.5 903.7,556.8 38.5,113.7 40.5,152.2 34.7,701.4 l -5.8,580 -61.7,131 c -80.9,171.5 -233.1,323.7 -404.6,404.6 -123.3,57.8 -144.5,61.7 -348.8,61.7 -117.5,0 -215.8,7.7 -215.8,15.4 0,40.5 148.4,370 240.8,533.7 150.3,267.8 316,483.6 556.9,722.6 258.2,256.3 499,429.7 820.8,595.4 1090.6,554.9 2389.3,458.6 3391.2,-254.3 213.9,-152.2 564.6,-491.3 714.8,-697.5 158,-211.9 300.6,-458.6 395,-680.2 46.2,-107.9 84.8,-204.2 84.8,-215.8 0,-11.6 -84.8,-19.3 -217.7,-19.3 -212,0 -221.6,-1.9 -362.2,-71.3 C 7343,2227.6 7217.7,2100.4 7133,1919.3 l -61.7,-129.1 -5.8,-580 c -5.8,-605 -3.9,-622.4 82.8,-820.8 13.5,-32.8 -34.7,-34.7 -865.1,-34.7 -944.2,0 -973,-1.9 -1040.5,-98.3 -40.4,-57.8 -40.4,-169.5 0,-227.4 61.7,-86.7 129.1,-98.3 595.4,-98.3 h 433.5 l -59.7,-96.3 C 6069.3,-396.8 5813.1,-612.6 5551,-722.4 4701.3,-1075 3743.6,-545.1 3583.7,364.3 c -34.7,200.4 -40.5,1021.2 -9.6,1250.5 67.4,483.6 354.5,880.6 797.7,1104.1 379.6,190.8 876.7,190.8 1256.3,0 348.8,-175.3 599.3,-456.7 726.4,-815 69.4,-192.7 90.6,-381.5 90.6,-788.1 0,-219.7 7.7,-371.9 21.2,-402.7 54,-115.6 235.1,-136.8 327.6,-38.5 46.3,48.2 46.3,57.8 52,447 3.9,235.1 -1.9,462.4 -15.4,553 -109.8,749.4 -647.4,1354.4 -1377.7,1543.3 -275.5,71.3 -630.1,71.3 -903.7,0 -612.7,-159.9 -1096.4,-605 -1300.6,-1202.3 -88.6,-258.2 -102.1,-427.8 -94.4,-1092.5 7.7,-558.8 13.5,-632 52,-770.7 52,-194.6 179.2,-466.3 287.1,-612.7 46.3,-61.7 80.9,-115.6 77.1,-117.5 -3.8,-3.9 -57.8,-25.1 -121.4,-50.1 C 3256.2,-703 2924.8,-878.4 2716.7,-1013.3 1587.6,-1759.1 895.9,-3044.3 895.9,-4398.8 V -4659 l 65.5,-65.5 65.5,-65.5 H 5000 8973.1 l 65.5,65.5 65.5,65.5 v 260.1 c 0,1366.1 -695.6,2645.5 -1853.6,3404.7 -181.1,121.4 -516.4,294.8 -699.4,366.1 -63.6,25 -117.5,46.3 -121.4,50.1 -3.9,1.9 28.9,50.1 71.3,106 42.4,55.9 109.8,169.6 150.3,252.4 l 73.2,150.3 h 578 c 317.9,0 630.1,9.6 693.7,19.3 242.8,38.5 470.2,194.6 593.5,406.6 94.4,161.9 109.8,271.7 109.8,795.8 0,456.7 -3.9,497.1 -59.7,790 -156.1,813.1 -479.8,1439.3 -1036.6,1998.1 -418.1,418.1 -890.2,709.1 -1460.5,896 -387.3,127.2 -618.5,165.7 -1075.2,171.5 -212,3.7 -410.5,1.8 -443.2,-2 z M 2342.9,1926.9 c 40.5,-27 98.3,-86.7 127.2,-131 l 54,-79 5.8,-502.9 c 7.7,-553 0,-607 -96.3,-716.8 -82.8,-94.4 -186.9,-142.6 -304.4,-142.6 -169.6,0 -292.9,73.2 -371.9,221.6 -38.5,69.4 -42.4,111.7 -48.2,443.2 -11.6,676.3 23.1,818.9 231.2,924.9 130.9,65.5 285.1,59.7 402.6,-17.4 z m 5751.6,-3.9 c 65.5,-38.5 106,-84.8 140.7,-150.3 48.2,-94.4 48.2,-98.3 50.1,-606.9 0,-489.4 -1.9,-516.4 -42.4,-589.6 -79,-148.4 -202.3,-221.6 -371.9,-221.6 -161.9,0 -310.2,102.1 -373.8,254.3 -42.4,98.3 -44.3,1023.1 -5.8,1119.5 104,244.7 379.6,333.4 603.1,194.6 z M 6607,-1096.3 c 1196.6,-568.4 1992.3,-1747.6 2084.8,-3090.6 l 13.5,-198.5 H 5001.9 1300.5 v 82.8 c 0,138.7 36.6,433.5 77.1,633.9 194.6,951.8 765,1790 1589.6,2333.4 215.8,140.7 562.6,314.1 782.3,389.2 l 165.7,55.9 94.4,-61.7 c 154.1,-96.3 377.7,-192.7 560.7,-238.9 240.9,-59.7 620.4,-59.7 861.3,0 175.3,44.3 466.3,171.5 587.7,258.2 l 67.4,48.2 171.5,-65.5 c 94.4,-34.6 252.4,-100.1 348.8,-146.4 z"
         id="path646"
         style="fill:#20d0a8;fill-opacity:1" /><path
         style="fill:#60a8d0;stroke:#40d0a8;stroke-width:266.667;stroke-linecap:round;stroke-linejoin:round;stroke-dasharray:none;stroke-opacity:1;paint-order:stroke markers fill"
         d="M 2285.0672,-4632.4048 V -3480.688"
         id="path4026" /><path
         style="fill:#60a8d0;stroke:#40d0a8;stroke-width:266.667;stroke-linecap:round;stroke-linejoin:round;stroke-dasharray:none;stroke-opacity:1;paint-order:stroke markers fill"
         d="M 7618.4007,-4632.4048 V -3480.688"
         id="path4580" /><g
         id="g4663"
         transform="matrix(0.6561,0,0,0.6561,-6698.5598,697.2822)"><path
           id="path4634"
           style="fill:#60a8d0;stroke-width:266.667;stroke-linecap:round;stroke-linejoin:round;paint-order:stroke markers fill"
           d="m 19073.969,5046.8623 c -76.359,22.2638 -111.027,91.9711 -128.958,162.5 -3.393,13.3422 -0.954,34.7158 -3.438,49.1667 a 1033.5917,1033.5917 0 0 1 332.813,-137.9167 c -1.526,-1.4716 -2.949,-4.6031 -4.48,-6.0417 -53.027,-49.8394 -119.581,-89.9716 -195.937,-67.7083 z m 200.417,73.75 c 51.343,49.5134 100.283,116.0631 150.625,203.3333 61.196,106.0898 110.937,265.3446 165.416,408.0209 149.592,-30.7382 310.566,-74.3788 432.917,-79.7917 103.643,-4.5846 189.369,0.2986 259.896,18.2292 16.542,4.2056 22.278,23.8439 38.125,30.2083 a 1033.5917,1033.5917 0 0 0 -937.709,-625.2083 1033.5917,1033.5917 0 0 0 -109.27,45.2083 z m 1046.979,580 a 1033.5917,1033.5917 0 0 1 71.25,252.6042 c 33.958,-46.0872 70.609,-93.9976 53.125,-153.9584 -17.042,-58.4481 -72.658,-77.8753 -124.375,-98.6458 z m 71.25,252.6042 c -9.287,12.6033 -3.881,30.6961 -14.584,42.0833 -49.838,53.0272 -119.509,103.267 -209.375,155.1042 -106.085,61.1935 -265.35,110.8346 -408.02,165.3125 30.738,149.592 74.379,310.5665 79.791,432.9166 3.718,84.0432 -4.144,148.8911 -14.791,210.8334 a 1033.5917,1033.5917 0 0 0 591.562,-850.5209 1033.5917,1033.5917 0 0 0 -24.583,-155.7291 z m -566.979,1006.25 a 1033.5917,1033.5917 0 0 1 -332.813,137.9166 c 1.509,1.4549 2.966,4.515 4.479,5.9375 53.028,49.8386 119.683,89.9734 196.042,67.7084 76.356,-22.264 110.924,-91.8679 128.854,-162.3959 3.391,-13.337 0.954,-34.7218 3.438,-49.1666 z m -332.813,137.9166 c -51.362,-49.5171 -100.268,-116.1372 -150.625,-203.4375 -61.194,-106.0858 -110.835,-265.3503 -165.312,-408.0208 -149.596,30.7397 -310.566,74.4829 -432.917,79.8958 -84.045,3.7179 -148.892,-4.1437 -210.833,-14.7916 a 1033.5917,1033.5917 0 0 0 850.52,591.5625 1033.5917,1033.5917 0 0 0 109.167,-45.2084 z m -959.687,-546.3541 a 1033.5917,1033.5917 0 0 1 -137.917,-332.8125 c -1.443,1.4965 -4.527,2.8741 -5.938,4.375 -49.838,53.0273 -89.971,119.6839 -67.708,196.0416 22.264,76.3584 91.867,111.0269 162.396,128.9584 13.337,3.3908 34.722,0.9544 49.167,3.4375 z m -137.917,-332.8125 c 49.52,-51.3754 116.114,-100.3593 203.437,-150.7292 106.085,-61.1936 265.351,-110.8343 408.021,-165.3125 -30.739,-149.5951 -74.483,-310.5639 -79.896,-432.9167 -3.718,-84.035 4.146,-148.7915 14.792,-210.7291 a 1033.5917,1033.5917 0 0 0 -591.562,850.4166 1033.5917,1033.5917 0 0 0 45.208,109.2709 z m 728.437,-1000.9375 c -3.179,6.0118 -7.841,16.3574 -12.395,34.2708 -11.133,43.7907 -17.249,116.9158 -13.125,210.1042 4.462,100.8908 44.471,245.8286 69.583,375.2083 45.428,-14.9336 75.318,-35.813 122.187,-49.4792 46.85,-13.6602 83.268,-12.0362 129.584,-23.8541 -48.368,-122.6318 -92.446,-266.3571 -142.917,-353.8542 -46.609,-80.8008 -91.139,-139.1592 -124.062,-170.1042 -13.47,-12.6586 -22.945,-18.9291 -28.855,-22.2916 z m 907.292,606.1458 c -100.891,4.4635 -245.829,44.4709 -375.208,69.5833 14.932,45.4254 35.814,75.3203 49.479,122.1875 13.66,46.8498 12.036,83.2678 23.854,129.5834 122.624,-48.3658 266.362,-92.4485 353.854,-142.9167 80.8,-46.6084 139.16,-91.0347 170.104,-123.9583 12.66,-13.4695 18.93,-23.047 22.292,-28.9584 -6.013,-3.1781 -16.357,-7.8414 -34.271,-12.3958 -43.792,-11.1334 -116.916,-17.247 -210.104,-13.125 z m -546.354,101.3542 c -53.08,13.1033 -92.874,11.4726 -146.771,27.1875 -53.918,15.7211 -86.614,38.4519 -138.437,55.9375 13.111,53.1217 11.563,92.9345 27.291,146.875 15.711,53.883 38.464,86.5416 55.938,138.3333 53.087,-13.1048 92.866,-11.4703 146.771,-27.1875 53.918,-15.7212 86.613,-38.4517 138.437,-55.9375 -13.106,-53.0922 -11.573,-92.8611 -27.292,-146.7708 -15.721,-53.9207 -38.45,-86.6115 -55.937,-138.4375 z m -446.458,148.2291 c -122.639,48.3696 -266.353,92.5473 -353.855,143.0209 -80.8,46.6086 -139.158,91.138 -170.104,124.0625 -12.658,13.4683 -18.826,22.943 -22.187,28.8541 6.012,3.1782 16.356,7.8409 34.271,12.3959 43.79,11.1327 116.915,17.2475 210.104,13.125 100.905,-4.4643 245.807,-44.4648 375.208,-69.5834 -14.933,-45.4278 -35.813,-75.3176 -49.479,-122.1875 -13.673,-46.8918 -12.132,-83.3311 -23.958,-129.6875 z m 561.354,308.0209 c -45.396,14.9217 -75.248,35.8231 -122.084,49.4791 -46.891,13.6725 -83.331,12.1315 -129.687,23.9584 48.37,122.6389 92.546,266.3529 143.021,353.8541 46.608,80.8008 91.035,139.1599 123.958,170.1042 13.47,12.6586 23.046,18.826 28.958,22.1875 3.177,-6.0115 7.842,-16.3566 12.396,-34.2708 11.133,-43.7906 17.249,-116.9163 13.125,-210.1042 -4.463,-100.9082 -44.567,-245.8041 -69.687,-375.2083 z"
           transform="scale(1,-1)" /></g></g></g><path
     id="path6288"
     style="fill:#20d0a8;fill-opacity:0.75;stroke-width:0.127417"
     d="M 168.73242,8.3457031 171.9375,26.6875 c -35.45347,0.518088 -67.24292,20.887648 -94.039062,48.103516 l 9.201171,38.962894 C 112.82836,95.034739 136.84603,75.077411 170.26172,79.123047 l 1.83594,21.083983 C 192.7336,79.322024 228.33588,59.694936 247.24609,61.613281 231.74936,30.639755 195.50375,17.738609 168.73242,8.3457031 Z m 15.1543,25.8632809 c 0.33805,-0.0048 0.67684,-6.08e-4 1.01758,0.01367 h 0.006 c 2.27986,0.08719 4.41521,0.562564 6.38086,1.402344 a 1.10011,1.10011 0 0 1 0.004,0.002 c 7.1264,3.07717 11.51543,10.423112 10.86914,18.193359 -0.0483,0.580177 -0.15443,1.394859 -0.26367,2.113282 -0.0546,0.359209 -0.10946,0.689769 -0.16016,0.957031 -0.0254,0.133631 -0.0502,0.249516 -0.0762,0.357422 -0.026,0.107906 0.0289,0.110216 -0.16406,0.445312 -4e-5,7.6e-5 -0.7401,0.531225 -0.74023,0.53125 -1.3e-4,2e-5 -0.33377,0.0137 -0.33399,0.01367 -4.3e-4,-5e-5 -0.17579,-0.03317 -0.21289,-0.04492 -0.0742,-0.0235 -0.0942,-0.03377 -0.11523,-0.04297 -0.042,-0.01839 -0.06,-0.02893 -0.0801,-0.03906 -0.0402,-0.02025 -0.0776,-0.03893 -0.125,-0.06445 -0.0947,-0.05104 -0.22283,-0.121591 -0.38672,-0.212891 -0.32778,-0.182601 -0.79539,-0.446776 -1.37109,-0.773437 -1.15142,-0.653319 -2.73506,-1.558633 -4.47461,-2.560547 -3.09373,-1.781869 -4.67872,-2.694951 -5.48633,-3.128906 -0.16637,-0.08939 -0.16098,-0.08085 -0.26367,-0.13086 -0.22862,0.355047 -0.60746,0.997224 -1.35938,2.302735 -0.71173,1.235737 -1.12947,1.974497 -1.34375,2.392578 -0.0196,0.03804 -7.2e-4,-0.01788 -0.0156,0.01367 l 5.69336,3.279297 6.35351,3.660156 A 1.10011,1.10011 0 0 1 197.5,64.583984 l -0.21094,0.230469 a 1.10011,1.10011 0 0 1 -0.01,0.0098 c -0.35112,0.373352 -0.85838,0.777788 -1.47461,1.255859 -0.61623,0.478074 -1.28844,0.969703 -1.81446,1.314453 a 1.10011,1.10011 0 0 1 -0.01,0.0078 c -4.82566,3.090685 -10.98243,3.719954 -16.33203,1.654297 -2.44545,-0.932044 -5.42132,-2.93223 -6.87891,-4.742188 l 0.2168,0.259766 -13.74219,3.689453 a 1.10011,1.10011 0 0 0 -0.002,0 c -7.82851,2.093873 -11.53225,3.098613 -13.60938,3.542969 -2.07713,0.444355 -2.82087,0.266875 -3.72851,0.06836 a 1.10011,1.10011 0 0 1 -0.004,-0.002 c -1.60394,-0.358502 -3.24363,-1.344353 -4.32031,-2.574219 v -0.002 c -0.97345,-1.101948 -1.64497,-2.363564 -2.07422,-3.824219 -1.22731,-4.100248 -0.052,-7.962022 3.21875,-10.283203 l 0.81836,-0.583984 a 1.10011,1.10011 0 0 1 0.35156,-0.166016 l 14.85938,-4.023437 14.2832,-3.867188 0.082,-0.255859 a 1.10011,1.10011 0 0 0 0.002,-0.002 c 0.53946,-1.665141 2.23116,-4.573313 3.39258,-5.871094 a 1.10011,1.10011 0 0 1 0.004,-0.0039 c 3.55663,-3.935791 8.29832,-6.135652 13.36914,-6.207032 z m -0.22266,5.451172 c -3.16718,0.127052 -6.18164,1.448681 -8.54687,3.84961 a 1.10011,1.10011 0 0 1 -0.004,0.0039 c -0.56313,0.565803 -0.8466,0.953165 -1.55469,2.09375 a 1.10011,1.10011 0 0 0 -0.002,0.002 c -0.95279,1.52401 -1.27076,2.291433 -1.67578,3.953125 a 1.10011,1.10011 0 0 0 0,0.002 1.10011,1.10011 0 0 0 0,0.002 l -0.20508,0.833985 a 1.10011,1.10011 0 0 1 -0.7832,0.796875 l -15.60352,4.207031 c -8.78378,2.36766 -12.83841,3.439316 -14.68164,4.074219 -0.92161,0.317449 -1.22943,0.52182 -1.29883,0.58789 -0.0694,0.06607 -0.10984,0.199064 -0.39453,0.69336 -0.45743,0.794118 -0.36463,0.512687 -0.42773,1.357422 -0.0536,0.870678 0.39551,2.478038 0.90039,3.216796 h 0.002 c 0.38843,0.561808 0.23531,0.418418 0.99414,0.855469 0.47889,0.275817 0.57088,0.360846 0.67774,0.384766 0.10685,0.02392 0.48934,0.03967 1.44531,-0.148438 1.91194,-0.376209 5.91679,-1.471179 14.54102,-3.787109 l 15.26367,-4.089844 a 1.10011,1.10011 0 0 1 1.16211,0.398438 l 0.625,0.828125 0.004,0.0039 c 1.08333,1.418678 1.77797,2.048376 3.44336,3.070312 a 1.10011,1.10011 0 0 1 0.004,0.002 c 1.17171,0.726115 1.61755,0.960403 2.29492,1.199219 h 0.002 c 2.46687,0.863758 4.95708,0.984079 7.3711,0.373047 0.26486,-0.06728 0.68515,-0.221822 1.06836,-0.351562 -0.69917,-0.413248 -1.45232,-0.857485 -2.38477,-1.394532 -2.01752,-1.161994 -3.09945,-1.788147 -3.77734,-2.214843 -0.67566,-0.425288 -1.02207,-0.726719 -1.29883,-1.025391 v -0.002 c -0.93817,-1.007186 -1.37411,-2.387266 -1.25391,-3.771485 a 1.10011,1.10011 0 0 1 0,-0.0039 l 0.0723,-0.78125 a 1.10011,1.10011 0 0 1 0.14258,-0.449218 l 2.02929,-3.523438 c 1.00644,-1.74742 1.50886,-2.623764 1.875,-3.183594 0.36615,-0.559828 0.70844,-0.877504 1,-1.107422 a 1.10011,1.10011 0 0 1 0.004,-0.0039 c 1.04903,-0.81976 2.41071,-1.184201 3.71484,-0.970703 a 1.10011,1.10011 0 0 1 0.006,0 c 0.35833,0.06077 0.81154,0.194933 1.51953,0.564453 0.708,0.36952 1.82214,1.008674 3.95703,2.238281 1.06186,0.611578 1.86945,1.064315 2.60352,1.472657 -0.0816,-0.411775 -0.15963,-0.868766 -0.23633,-1.13086 a 1.10011,1.10011 0 0 0 -0.002,-0.002 c -0.69141,-2.369247 -1.84033,-4.240969 -3.58203,-5.847656 a 1.10011,1.10011 0 0 0 -0.002,-0.002 c -0.74939,-0.695993 -3.12554,-2.15606 -3.98438,-2.47461 -1.21283,-0.438257 -2.4415,-0.697027 -3.6582,-0.779296 -0.45725,-0.03092 -0.91278,-0.03768 -1.36524,-0.01953 z" /></g></svg>
