<?xml version="1.0" encoding="utf-8"?>
<!-- Svg Vector Icons : http://www.onlinewebfonts.com/icon -->
<!DOCTYPE svg PUBLIC "-//W3C//DTD SVG 1.1//EN" "http://www.w3.org/Graphics/SVG/1.1/DTD/svg11.dtd">
<svg version="1.1" xmlns="http://www.w3.org/2000/svg" xmlns:xlink="http://www.w3.org/1999/xlink" x="0px" y="0px" viewBox="0 0 1000 1000" enable-background="new 0 0 1000 1000" xml:space="preserve">
<metadata> Svg Vector Icons : http://www.onlinewebfonts.com/icon </metadata>
<g><g transform="translate(0.000000,511.000000) scale(0.100000,-0.100000)"><path d="M6642,4926.5c-347.7-41.5-689.5-148.2-1023.4-324C4822.3,4187.6,4275,3454.6,4077.4,2537.8c-47.4-225.2-49.4-883.2-2-1106.4l31.6-148.2L2206.4-623.4L305.7-2530l-73.1-160c-262.8-571-132.4-1147.9,367.5-1620.1c175.8-167.9,359.6-282.5,576.9-355.6c219.3-75.1,539.4-81,760.7-11.9c330,104.7,227.2,11.9,2234.6,2013.3L6019.6-819l59.3-21.7c312.2-122.5,954.3-173.9,1361.3-108.7c928.6,144.2,1756.5,740.9,2189.1,1574.7c90.9,179.8,233.1,525.5,258.8,634.2l11.9,53.3H8617.7H7333.5l-29.6,43.5c-27.6,37.5-31.6,132.4-31.6,632.2c0,563.1,2,590.7,39.5,628.3c39.5,39.5,65.2,39.5,1313.9,39.5c701.4,0,1274.4,4,1274.4,7.9c0,35.6-140.3,395.1-219.3,563.1C9135.4,4387.1,7908.4,5072.7,6642,4926.5z M7509.3,4318c436.6-98.8,810.1-302.3,1144-622.4c138.3-132.4,377.4-428.7,377.4-468.3c0-9.9-369.5-17.8-899-17.8c-861.4,0-900.9-2-1007.6-41.5c-152.1-57.3-304.3-207.5-367.5-363.5c-47.4-118.5-47.4-124.5-47.4-829.8v-711.3l57.3-124.5c81-173.9,227.2-306.2,401.1-359.6c120.5-37.5,181.8-39.5,995.8-39.5c476.2,0,867.4-5.9,867.4-13.8c0-33.6-241-329.9-381.3-466.3c-339.8-329.9-764.6-547.3-1248.7-638.2c-138.3-25.7-248.9-29.6-493.9-21.7c-355.6,9.9-557.2,53.3-859.5,179.8l-167.9,71.1l-1956-1952C1714.4-4308.2,1896.2-4150.1,1572.2-4150.1c-158.1,0-191.7,5.9-308.2,61.2C1070.3-3996,851-3782.6,756.2-3591c-67.2,140.3-73.1,162-73.1,328c0,329.9-177.8,126.4,2070.6,2376.8l1997.5,1999.4l-41.5,144.2c-86.9,298.3-110.6,480.1-98.8,806.1c7.9,239.1,19.8,347.7,59.3,495.9c245,938.5,983.9,1618.1,1944.2,1788.1C6825.7,4383.2,7286.1,4369.3,7509.3,4318z"/><path d="M1591.9-2672.3c-294.4-154.1-333.9-535.4-75.1-729c148.2-112.6,357.6-112.6,505.8-2c256.9,193.6,219.3,578.9-69.2,727.1C1862.6-2628.8,1676.9-2626.8,1591.9-2672.3z"/></g></g>
</svg>